<svg width="222" height="28" viewBox="0 0 222 28" fill="none" xmlns="http://www.w3.org/2000/svg">
<path d="M2 5C0.89543 5 0 5.89543 0 7V21C0 22.1046 0.895431 23 2 23H22C23.1046 23 24 22.1046 24 21V7C24 5.89543 23.1046 5 22 5H2ZM21.518 7L12 14.713L2.482 7H21.518ZM2 21V9.183L10.7408 16.2665C11.4749 16.8614 12.5251 16.8614 13.2592 16.2665L22 9.183V21H2Z" fill="#2E3038"/>
<path d="M65.5 12H67V21H65.5V12ZM67 10.5H65.5V9H67V10.5ZM78.5 21V16C78.5 15.4427 78.4583 14.974 78.375 14.5938C78.2917 14.2083 78.125 13.8984 77.875 13.6641C77.625 13.4297 77.2708 13.2604 76.8125 13.1562C76.3542 13.0521 75.75 13 75 13C74.1875 13 73.5208 13.0599 73 13.1797C72.4844 13.2995 72.0781 13.4688 71.7812 13.6875C71.4844 13.9062 71.2786 14.1693 71.1641 14.4766C71.0547 14.7839 71 15.125 71 15.5V21H69.5V12H71V13.5C71.1094 13.2448 71.2656 13.026 71.4688 12.8438C71.6719 12.6562 71.901 12.4974 72.1562 12.3672C72.4115 12.237 72.6875 12.1328 72.9844 12.0547C73.2812 11.9714 73.5781 11.9089 73.875 11.8672C74.1719 11.8203 74.4583 11.7891 74.7344 11.7734C75.0156 11.7578 75.2708 11.75 75.5 11.75C76.1667 11.75 76.7396 11.7917 77.2188 11.875C77.7031 11.9583 78.112 12.0807 78.4453 12.2422C78.7839 12.4036 79.0547 12.6042 79.2578 12.8438C79.4609 13.0833 79.6172 13.362 79.7266 13.6797C79.8411 13.9922 79.9167 14.3438 79.9531 14.7344C79.9896 15.1198 80.0078 15.5417 80.0078 16L80 21H78.5ZM85.0156 13.1406V21H83.5156V13.1406H82.0156V12H83.5156V11.9219C83.5156 11.3125 83.5833 10.8047 83.7188 10.3984C83.8542 9.99219 84.0781 9.66667 84.3906 9.42188C84.7031 9.17708 85.1146 9.00521 85.625 8.90625C86.1406 8.80208 86.7734 8.75 87.5234 8.75H89.2656V10H87.5156C87.0417 10 86.6458 10.0104 86.3281 10.0312C86.0104 10.0521 85.7526 10.1224 85.5547 10.2422C85.362 10.362 85.224 10.5521 85.1406 10.8125C85.0573 11.0729 85.0156 11.4427 85.0156 11.9219V12H89.2656V13.1406H85.0156ZM90.0156 16.4375C90.0156 15.5156 90.1146 14.7526 90.3125 14.1484C90.5104 13.5443 90.8281 13.0651 91.2656 12.7109C91.7031 12.3568 92.2708 12.1094 92.9688 11.9688C93.6667 11.8229 94.5156 11.75 95.5156 11.75C96.5156 11.75 97.3646 11.8229 98.0625 11.9688C98.7604 12.1094 99.3281 12.3568 99.7656 12.7109C100.203 13.0651 100.521 13.5443 100.719 14.1484C100.917 14.7526 101.016 15.5156 101.016 16.4375C101.016 17.3594 100.917 18.125 100.719 18.7344C100.521 19.3438 100.203 19.8281 99.7656 20.1875C99.3281 20.5469 98.7604 20.8021 98.0625 20.9531C97.3646 21.099 96.5156 21.1719 95.5156 21.1719C94.5156 21.1719 93.6667 21.099 92.9688 20.9531C92.2708 20.8021 91.7031 20.5469 91.2656 20.1875C90.8281 19.8281 90.5104 19.3438 90.3125 18.7344C90.1146 18.125 90.0156 17.3594 90.0156 16.4375ZM91.5156 16.4375C91.5156 16.9375 91.5339 17.3724 91.5703 17.7422C91.6068 18.112 91.6745 18.4297 91.7734 18.6953C91.8776 18.9609 92.0208 19.1771 92.2031 19.3438C92.3854 19.5104 92.625 19.6432 92.9219 19.7422C93.2188 19.8411 93.5781 19.9089 94 19.9453C94.4271 19.9818 94.9323 20 95.5156 20C96.0156 20 96.4609 19.9896 96.8516 19.9688C97.2474 19.9427 97.5911 19.888 97.8828 19.8047C98.1797 19.7214 98.4323 19.6042 98.6406 19.4531C98.849 19.2969 99.0156 19.0859 99.1406 18.8203C99.2708 18.5547 99.3646 18.2292 99.4219 17.8438C99.4844 17.4531 99.5156 16.9844 99.5156 16.4375C99.5156 15.901 99.4844 15.4453 99.4219 15.0703C99.3646 14.6901 99.2708 14.3724 99.1406 14.1172C99.0156 13.862 98.849 13.6615 98.6406 13.5156C98.4323 13.3646 98.1797 13.2526 97.8828 13.1797C97.5911 13.1016 97.2474 13.0521 96.8516 13.0312C96.4609 13.0104 96.0156 13 95.5156 13C95.0156 13 94.5677 13.0104 94.1719 13.0312C93.7812 13.0521 93.4375 13.1016 93.1406 13.1797C92.849 13.2526 92.599 13.3646 92.3906 13.5156C92.1823 13.6615 92.013 13.862 91.8828 14.1172C91.7578 14.3724 91.6641 14.6901 91.6016 15.0703C91.5443 15.4453 91.5156 15.901 91.5156 16.4375ZM110.492 18.75C111.049 18.75 111.521 18.7318 111.906 18.6953C112.292 18.6536 112.602 18.5599 112.836 18.4141C113.076 18.263 113.247 18.0391 113.352 17.7422C113.461 17.4453 113.516 17.0391 113.516 16.5234C113.516 15.9974 113.461 15.5833 113.352 15.2812C113.247 14.9792 113.076 14.7526 112.836 14.6016C112.602 14.4453 112.292 14.349 111.906 14.3125C111.521 14.2708 111.049 14.25 110.492 14.25C109.997 14.25 109.573 14.2604 109.219 14.2812C108.865 14.2969 108.568 14.3333 108.328 14.3906C108.094 14.4427 107.906 14.5208 107.766 14.625C107.625 14.7292 107.516 14.8646 107.438 15.0312C107.365 15.1979 107.318 15.401 107.297 15.6406C107.276 15.8802 107.266 16.1667 107.266 16.5C107.266 16.8333 107.276 17.1198 107.297 17.3594C107.318 17.599 107.365 17.8021 107.438 17.9688C107.516 18.1354 107.625 18.2708 107.766 18.375C107.906 18.4792 108.094 18.5599 108.328 18.6172C108.568 18.6693 108.865 18.7057 109.219 18.7266C109.573 18.7422 109.997 18.75 110.492 18.75ZM118.266 17.25C118.266 17.75 118.234 18.1745 118.172 18.5234C118.109 18.8724 117.987 19.1562 117.805 19.375C117.622 19.5938 117.367 19.7526 117.039 19.8516C116.716 19.9505 116.289 20 115.758 20C115.378 20 115.073 19.9505 114.844 19.8516C114.615 19.7474 114.438 19.6224 114.312 19.4766C114.188 19.3255 114.104 19.1641 114.062 18.9922C114.026 18.8151 114.008 18.651 114.008 18.5C113.878 18.7812 113.667 19.0312 113.375 19.25C113.25 19.3438 113.099 19.4375 112.922 19.5312C112.75 19.6198 112.544 19.7005 112.305 19.7734C112.07 19.8411 111.802 19.8958 111.5 19.9375C111.203 19.9792 110.867 20 110.492 20C109.831 20 109.253 19.9766 108.758 19.9297C108.268 19.8776 107.849 19.7969 107.5 19.6875C107.151 19.5781 106.865 19.4349 106.641 19.2578C106.417 19.0807 106.24 18.862 106.109 18.6016C105.979 18.3411 105.888 18.0391 105.836 17.6953C105.789 17.3464 105.766 16.9479 105.766 16.5C105.766 16.0521 105.789 15.6562 105.836 15.3125C105.888 14.9635 105.979 14.6589 106.109 14.3984C106.24 14.138 106.417 13.9193 106.641 13.7422C106.865 13.5651 107.151 13.4219 107.5 13.3125C107.849 13.2031 108.268 13.125 108.758 13.0781C109.253 13.026 109.831 13 110.492 13C110.815 13 111.104 13.0182 111.359 13.0547C111.62 13.0911 111.852 13.138 112.055 13.1953C112.258 13.2526 112.435 13.3203 112.586 13.3984C112.737 13.4714 112.867 13.5469 112.977 13.625C113.227 13.8073 113.406 14.0156 113.516 14.25V13.25H115.016V17.25C115.016 17.5729 115.023 17.8333 115.039 18.0312C115.055 18.224 115.086 18.375 115.133 18.4844C115.185 18.5885 115.26 18.6589 115.359 18.6953C115.458 18.7318 115.591 18.75 115.758 18.75C115.977 18.75 116.151 18.7318 116.281 18.6953C116.417 18.6589 116.518 18.5885 116.586 18.4844C116.659 18.375 116.706 18.224 116.727 18.0312C116.753 17.8333 116.766 17.5729 116.766 17.25V15C116.766 14.5 116.732 14.0677 116.664 13.7031C116.602 13.3333 116.487 13.0182 116.32 12.7578C116.154 12.4974 115.924 12.2865 115.633 12.125C115.346 11.9635 114.982 11.8359 114.539 11.7422C114.096 11.6484 113.565 11.5859 112.945 11.5547C112.326 11.5182 111.599 11.5 110.766 11.5C109.849 11.5 109.052 11.513 108.375 11.5391C107.698 11.5651 107.117 11.6328 106.633 11.7422C106.154 11.8464 105.76 12.0052 105.453 12.2188C105.146 12.4323 104.904 12.724 104.727 13.0938C104.555 13.4635 104.435 13.9271 104.367 14.4844C104.305 15.0365 104.273 15.7083 104.273 16.5C104.273 17.25 104.307 17.8958 104.375 18.4375C104.443 18.974 104.562 19.4271 104.734 19.7969C104.911 20.1667 105.154 20.4635 105.461 20.6875C105.768 20.9115 106.161 21.0833 106.641 21.2031C107.12 21.3229 107.698 21.401 108.375 21.4375C109.052 21.4792 111.513 21.5 115.758 21.5V22.75H110.766C109.599 22.75 108.591 22.6927 107.742 22.5781C106.893 22.4688 106.172 22.2995 105.578 22.0703C104.99 21.8464 104.51 21.5625 104.141 21.2188C103.771 20.875 103.484 20.4714 103.281 20.0078C103.078 19.5443 102.94 19.0208 102.867 18.4375C102.799 17.8542 102.766 17.2083 102.766 16.5C102.766 15.6667 102.799 14.9349 102.867 14.3047C102.94 13.6693 103.078 13.1198 103.281 12.6562C103.484 12.1927 103.771 11.8073 104.141 11.5C104.51 11.1927 104.99 10.9479 105.578 10.7656C106.172 10.5781 106.893 10.4453 107.742 10.3672C108.591 10.2891 109.599 10.25 110.766 10.25C111.766 10.25 112.646 10.2865 113.406 10.3594C114.167 10.4323 114.823 10.5469 115.375 10.7031C115.932 10.8594 116.396 11.0625 116.766 11.3125C117.135 11.5625 117.43 11.8646 117.648 12.2188C117.872 12.5677 118.078 14.2448 118.266 17.25ZM120.766 12H122.266V21H120.766V12ZM122.266 10.5H120.766V9H122.266V10.5ZM133.516 17C133.516 17.7656 133.453 18.4062 133.328 18.9219C133.203 19.4323 132.992 19.8411 132.695 20.1484C132.404 20.4557 132.018 20.6745 131.539 20.8047C131.06 20.9349 130.469 21 129.766 21C129.083 21 128.51 20.9479 128.047 20.8438C127.583 20.7396 127.208 20.5625 126.922 20.3125C126.635 20.0625 126.43 19.7292 126.305 19.3125C126.18 18.8958 126.117 18.375 126.117 17.75V13.2344H124.266V12H126.117V9.53906H127.617V12H133.266V13.2344H127.617V17.75C127.617 18.25 127.654 18.6354 127.727 18.9062C127.805 19.1771 127.927 19.375 128.094 19.5C128.26 19.625 128.479 19.6979 128.75 19.7188C129.026 19.7396 129.362 19.75 129.758 19.75C130.07 19.75 130.349 19.7448 130.594 19.7344C130.844 19.724 131.06 19.6927 131.242 19.6406C131.43 19.5833 131.589 19.5 131.719 19.3906C131.849 19.276 131.953 19.1172 132.031 18.9141C132.115 18.7109 132.174 18.4557 132.211 18.1484C132.247 17.8359 132.266 17.4531 132.266 17H133.516ZM135.516 15.75H141.516V17H135.516V15.75ZM152.266 17C152.266 17.7656 152.203 18.4062 152.078 18.9219C151.953 19.4323 151.742 19.8411 151.445 20.1484C151.154 20.4557 150.768 20.6745 150.289 20.8047C149.81 20.9349 149.219 21 148.516 21C147.833 21 147.26 20.9479 146.797 20.8438C146.333 20.7396 145.958 20.5625 145.672 20.3125C145.385 20.0625 145.18 19.7292 145.055 19.3125C144.93 18.8958 144.867 18.375 144.867 17.75V13.2344H143.016V12H144.867V9.53906H146.367V12H152.016V13.2344H146.367V17.75C146.367 18.25 146.404 18.6354 146.477 18.9062C146.555 19.1771 146.677 19.375 146.844 19.5C147.01 19.625 147.229 19.6979 147.5 19.7188C147.776 19.7396 148.112 19.75 148.508 19.75C148.82 19.75 149.099 19.7448 149.344 19.7344C149.594 19.724 149.81 19.6927 149.992 19.6406C150.18 19.5833 150.339 19.5 150.469 19.3906C150.599 19.276 150.703 19.1172 150.781 18.9141C150.865 18.7109 150.924 18.4557 150.961 18.1484C150.997 17.8359 151.016 17.4531 151.016 17H152.266ZM162.727 19.7656C162.711 19.8281 162.594 19.9844 162.375 20.2344C162.219 20.4219 162.01 20.5885 161.75 20.7344C161.49 20.875 161.141 20.9844 160.703 21.0625C160.271 21.1458 159.701 21.1875 158.992 21.1875C158.049 21.1875 157.245 21.138 156.578 21.0391C155.911 20.9453 155.367 20.7995 154.945 20.6016C154.523 20.3984 154.214 20.1406 154.016 19.8281C153.823 19.5156 153.727 19.1432 153.727 18.7109C153.727 18.2578 153.779 17.875 153.883 17.5625C153.992 17.2448 154.148 16.9792 154.352 16.7656C154.56 16.5521 154.81 16.3854 155.102 16.2656C155.393 16.1458 155.724 16.0547 156.094 15.9922C156.469 15.9297 156.878 15.8906 157.32 15.875C157.763 15.8594 158.234 15.8516 158.734 15.8516C159.448 15.8516 160.044 15.8828 160.523 15.9453C161.003 16.0026 161.393 16.0781 161.695 16.1719C162.003 16.2604 162.234 16.3568 162.391 16.4609C162.547 16.5651 162.659 16.6615 162.727 16.75C162.727 16.1667 162.701 15.6693 162.648 15.2578C162.602 14.8464 162.521 14.5026 162.406 14.2266C162.297 13.9505 162.154 13.7318 161.977 13.5703C161.799 13.4036 161.581 13.2786 161.32 13.1953C161.065 13.112 160.766 13.0599 160.422 13.0391C160.078 13.013 159.685 13 159.242 13C158.555 13 157.984 13.0182 157.531 13.0547C157.078 13.0859 156.719 13.151 156.453 13.25C156.188 13.349 156 13.487 155.891 13.6641C155.781 13.8359 155.727 14.0625 155.727 14.3438H154.227C154.227 13.8698 154.31 13.4688 154.477 13.1406C154.648 12.8125 154.93 12.5469 155.32 12.3438C155.716 12.1354 156.234 11.9844 156.875 11.8906C157.516 11.7969 158.305 11.75 159.242 11.75C160.159 11.75 160.935 11.8255 161.57 11.9766C162.206 12.1276 162.719 12.3932 163.109 12.7734C163.505 13.1536 163.789 13.6667 163.961 14.3125C164.138 14.9531 164.227 15.7656 164.227 16.75V21H162.727V19.7656ZM159.242 20C159.904 20 160.456 19.9688 160.898 19.9062C161.346 19.8438 161.706 19.75 161.977 19.625C162.247 19.5 162.44 19.3438 162.555 19.1562C162.669 18.9688 162.727 18.75 162.727 18.5C162.727 18.25 162.659 18.0391 162.523 17.8672C162.393 17.6901 162.172 17.5469 161.859 17.4375C161.552 17.3281 161.143 17.25 160.633 17.2031C160.122 17.151 159.492 17.125 158.742 17.125C157.992 17.125 157.385 17.138 156.922 17.1641C156.464 17.1901 156.109 17.25 155.859 17.3438C155.609 17.4375 155.44 17.5755 155.352 17.7578C155.268 17.9401 155.227 18.1875 155.227 18.5C155.227 18.8125 155.271 19.0677 155.359 19.2656C155.453 19.4583 155.641 19.6094 155.922 19.7188C156.203 19.8281 156.607 19.9036 157.133 19.9453C157.664 19.9818 158.367 20 159.242 20ZM166.734 9H168.234V21H166.734V9ZM171.234 12H172.734V21H171.234V12ZM172.734 10.5H171.234V9H172.734V10.5ZM184.734 21H183.234V15.9219C183.234 15.3802 183.198 14.9245 183.125 14.5547C183.057 14.1797 182.914 13.8776 182.695 13.6484C182.482 13.4193 182.177 13.2552 181.781 13.1562C181.391 13.0521 180.875 13 180.234 13C179.531 13 178.953 13.0599 178.5 13.1797C178.047 13.2943 177.69 13.4583 177.43 13.6719C177.169 13.8802 176.987 14.1328 176.883 14.4297C176.784 14.7266 176.734 15.0573 176.734 15.4219V21H175.234V12H176.734V13.4219C176.74 13.4062 176.763 13.3542 176.805 13.2656C176.846 13.1771 176.919 13.0729 177.023 12.9531C177.133 12.8281 177.279 12.6953 177.461 12.5547C177.648 12.4141 177.888 12.2839 178.18 12.1641C178.477 12.0443 178.833 11.9453 179.25 11.8672C179.667 11.7891 180.161 11.75 180.734 11.75C181.297 11.75 181.784 11.7865 182.195 11.8594C182.612 11.9271 182.966 12.0312 183.258 12.1719C183.555 12.3073 183.794 12.4792 183.977 12.6875C184.164 12.8906 184.312 13.125 184.422 13.3906C184.51 13.25 184.648 13.0859 184.836 12.8984C185.023 12.7109 185.284 12.5312 185.617 12.3594C185.956 12.1875 186.378 12.0443 186.883 11.9297C187.388 11.8099 188.005 11.75 188.734 11.75C189.333 11.75 189.846 11.7917 190.273 11.875C190.706 11.9531 191.07 12.0729 191.367 12.2344C191.664 12.3906 191.901 12.5859 192.078 12.8203C192.26 13.0547 192.398 13.3281 192.492 13.6406C192.591 13.9479 192.656 14.2943 192.688 14.6797C192.719 15.0599 192.734 15.474 192.734 15.9219V21H191.234V15.9219C191.234 15.3802 191.198 14.9245 191.125 14.5547C191.057 14.1797 190.914 13.8776 190.695 13.6484C190.482 13.4193 190.177 13.2552 189.781 13.1562C189.391 13.0521 188.875 13 188.234 13C187.531 13 186.953 13.0599 186.5 13.1797C186.047 13.2943 185.69 13.4583 185.43 13.6719C185.169 13.8802 184.987 14.1328 184.883 14.4297C184.784 14.7266 184.734 15.0573 184.734 15.4219V21ZM196.234 21H194.734V19.5H196.234V21ZM199.742 12V17C199.742 17.5573 199.784 18.0286 199.867 18.4141C199.951 18.7943 200.117 19.1016 200.367 19.3359C200.617 19.5703 200.971 19.7396 201.43 19.8438C201.888 19.9479 202.492 20 203.242 20C204.055 20 204.719 19.9401 205.234 19.8203C205.755 19.7005 206.164 19.5312 206.461 19.3125C206.758 19.0938 206.961 18.8307 207.07 18.5234C207.185 18.2161 207.242 17.875 207.242 17.5V12H208.742V21H207.242V19.5C207.169 19.6615 207.047 19.8411 206.875 20.0391C206.703 20.2318 206.445 20.4115 206.102 20.5781C205.758 20.7448 205.312 20.8854 204.766 21C204.224 21.1146 203.549 21.1719 202.742 21.1719C202.07 21.1719 201.492 21.1302 201.008 21.0469C200.529 20.9688 200.12 20.8516 199.781 20.6953C199.448 20.5339 199.18 20.3359 198.977 20.1016C198.773 19.8672 198.617 19.5964 198.508 19.2891C198.398 18.9766 198.326 18.6302 198.289 18.25C198.253 17.8698 198.234 17.4531 198.234 17L198.242 12H199.742ZM211.25 12H220.25V13.25L212.734 19.8828H220.25V21H210.75V19.75L218.375 13.1016H211.25V12Z" fill="#56585E"/>
</svg>
