<svg width="244" height="28" viewBox="0 0 244 28" fill="none" xmlns="http://www.w3.org/2000/svg">
<path d="M6.17609 3.322L9.02009 2L13.0611 9.89L10.3371 11.231C9.79909 12.49 12.4961 17.52 13.6341 17.603C13.7241 17.545 16.3051 16.275 16.3051 16.275L20.4151 24.207C20.4151 24.207 17.6511 25.561 17.5611 25.603C9.69909 29.194 -1.54191 7.345 6.17609 3.322ZM8.10509 4.596L7.08209 5.1C1.78809 7.862 11.2591 26.285 16.7301 23.786L17.7011 23.312L15.4301 18.929L14.4041 19.429C11.2411 20.976 6.14209 11.21 9.34909 9.491L10.3561 8.994L8.10509 4.596Z" fill="#2E3038"/>
<path d="M65 13.5H68.5V10H70V13.5H73.5V14.75H70V18.5H68.5V14.75H65V13.5ZM83 21.5C82.3333 21.5 81.7708 21.4089 81.3125 21.2266C80.8594 21.0443 80.4844 20.7969 80.1875 20.4844C79.8906 20.1667 79.6615 19.7969 79.5 19.375C79.3385 18.9531 79.2214 18.5026 79.1484 18.0234C79.0755 17.5391 79.0312 17.0391 79.0156 16.5234C79.0052 16.0078 79 15.5 79 15C79 14.5 79.0052 13.9922 79.0156 13.4766C79.0312 12.9609 79.0755 12.4635 79.1484 11.9844C79.2214 11.5 79.3385 11.0469 79.5 10.625C79.6615 10.2031 79.8906 9.83594 80.1875 9.52344C80.4844 9.20573 80.8594 8.95573 81.3125 8.77344C81.7708 8.59115 82.3333 8.5 83 8.5V9.75C82.5781 9.75 82.224 9.79948 81.9375 9.89844C81.651 9.99219 81.4141 10.138 81.2266 10.3359C81.0443 10.5286 80.9036 10.7708 80.8047 11.0625C80.7057 11.3542 80.6328 11.6953 80.5859 12.0859C80.5443 12.4714 80.5182 12.9089 80.5078 13.3984C80.5026 13.8828 80.5 14.4167 80.5 15C80.5 15.5833 80.5026 16.1198 80.5078 16.6094C80.5182 17.0938 80.5443 17.5312 80.5859 17.9219C80.6328 18.3073 80.7057 18.6458 80.8047 18.9375C80.9036 19.2292 81.0443 19.474 81.2266 19.6719C81.4141 19.8646 81.651 20.0104 81.9375 20.1094C82.224 20.2031 82.5781 20.25 83 20.25V21.5ZM92 20C92.8073 20 93.4896 19.987 94.0469 19.9609C94.6094 19.9349 95.0755 19.875 95.4453 19.7812C95.8151 19.6823 96.1042 19.5365 96.3125 19.3438C96.5208 19.151 96.6745 18.888 96.7734 18.5547C96.8776 18.2214 96.9401 17.8073 96.9609 17.3125C96.987 16.8125 97 16.2083 97 15.5C96.5938 15.7448 96.0677 15.9323 95.4219 16.0625C94.776 16.1875 93.9688 16.25 93 16.25H90.4922C89.3672 16.25 88.4479 16.1719 87.7344 16.0156C87.0208 15.8594 86.4609 15.625 86.0547 15.3125C85.6536 15 85.3776 14.6094 85.2266 14.1406C85.0755 13.6719 85 13.125 85 12.5C85 11.875 85.0755 11.3281 85.2266 10.8594C85.3776 10.3906 85.6536 10 86.0547 9.6875C86.4609 9.375 87.0208 9.14062 87.7344 8.98438C88.4479 8.82812 89.3672 8.75 90.4922 8.75H93C93.9167 8.75 94.6875 8.80729 95.3125 8.92188C95.9427 9.03125 96.4609 9.20052 96.8672 9.42969C97.2786 9.65365 97.5938 9.9375 97.8125 10.2812C98.0312 10.625 98.1901 11.0286 98.2891 11.4922C98.3932 11.9557 98.4531 12.4792 98.4688 13.0625C98.4896 13.6458 98.5 14.2917 98.5 15C98.5 15.75 98.4896 16.4271 98.4688 17.0312C98.4479 17.6302 98.3776 18.1615 98.2578 18.625C98.138 19.0833 97.9479 19.4792 97.6875 19.8125C97.4271 20.1458 97.0547 20.4193 96.5703 20.6328C96.0911 20.8411 95.4792 20.9948 94.7344 21.0938C93.9948 21.1979 93.0833 21.25 92 21.25C91.0833 21.25 90.2865 21.2161 89.6094 21.1484C88.9323 21.0807 88.3516 20.9792 87.8672 20.8438C87.388 20.7083 86.9948 20.5417 86.6875 20.3438C86.3802 20.1458 86.138 19.9167 85.9609 19.6562C85.7891 19.3958 85.6693 19.1068 85.6016 18.7891C85.5391 18.4714 85.5078 18.125 85.5078 17.75H86.75C86.75 17.9583 86.7656 18.1589 86.7969 18.3516C86.8281 18.5443 86.8958 18.724 87 18.8906C87.1094 19.0573 87.276 19.2083 87.5 19.3438C87.724 19.4792 88.0286 19.5964 88.4141 19.6953C88.8047 19.7943 89.2917 19.8698 89.875 19.9219C90.4583 19.974 91.1667 20 92 20ZM93 15C93.8177 15 94.487 14.9818 95.0078 14.9453C95.5286 14.9089 95.9349 14.8229 96.2266 14.6875C96.5234 14.5521 96.7266 14.3516 96.8359 14.0859C96.9453 13.8203 97 13.4583 97 13C97 12.375 96.9453 11.8672 96.8359 11.4766C96.7266 11.0859 96.5234 10.7812 96.2266 10.5625C95.9349 10.3438 95.5286 10.1953 95.0078 10.1172C94.487 10.0391 93.8177 10 93 10H90.4922C89.9089 10 89.4036 10.0156 88.9766 10.0469C88.5547 10.0781 88.1953 10.1302 87.8984 10.2031C87.6068 10.276 87.3672 10.375 87.1797 10.5C86.9974 10.625 86.8542 10.7812 86.75 10.9688C86.651 11.151 86.5833 11.3698 86.5469 11.625C86.5156 11.875 86.5 12.1667 86.5 12.5C86.5 12.8333 86.5182 13.1276 86.5547 13.3828C86.5911 13.6328 86.6589 13.8516 86.7578 14.0391C86.862 14.2214 87.0052 14.375 87.1875 14.5C87.3698 14.625 87.6094 14.724 87.9062 14.7969C88.2031 14.8698 88.5625 14.9219 88.9844 14.9531C89.4062 14.9844 89.9089 15 90.4922 15H93ZM107.5 20C108.307 20 108.99 19.987 109.547 19.9609C110.109 19.9349 110.576 19.875 110.945 19.7812C111.315 19.6823 111.604 19.5365 111.812 19.3438C112.021 19.151 112.174 18.888 112.273 18.5547C112.378 18.2214 112.44 17.8073 112.461 17.3125C112.487 16.8125 112.5 16.2083 112.5 15.5C112.094 15.7448 111.568 15.9323 110.922 16.0625C110.276 16.1875 109.469 16.25 108.5 16.25H105.992C104.867 16.25 103.948 16.1719 103.234 16.0156C102.521 15.8594 101.961 15.625 101.555 15.3125C101.154 15 100.878 14.6094 100.727 14.1406C100.576 13.6719 100.5 13.125 100.5 12.5C100.5 11.875 100.576 11.3281 100.727 10.8594C100.878 10.3906 101.154 10 101.555 9.6875C101.961 9.375 102.521 9.14062 103.234 8.98438C103.948 8.82812 104.867 8.75 105.992 8.75H108.5C109.417 8.75 110.188 8.80729 110.812 8.92188C111.443 9.03125 111.961 9.20052 112.367 9.42969C112.779 9.65365 113.094 9.9375 113.312 10.2812C113.531 10.625 113.69 11.0286 113.789 11.4922C113.893 11.9557 113.953 12.4792 113.969 13.0625C113.99 13.6458 114 14.2917 114 15C114 15.75 113.99 16.4271 113.969 17.0312C113.948 17.6302 113.878 18.1615 113.758 18.625C113.638 19.0833 113.448 19.4792 113.188 19.8125C112.927 20.1458 112.555 20.4193 112.07 20.6328C111.591 20.8411 110.979 20.9948 110.234 21.0938C109.495 21.1979 108.583 21.25 107.5 21.25C106.583 21.25 105.786 21.2161 105.109 21.1484C104.432 21.0807 103.852 20.9792 103.367 20.8438C102.888 20.7083 102.495 20.5417 102.188 20.3438C101.88 20.1458 101.638 19.9167 101.461 19.6562C101.289 19.3958 101.169 19.1068 101.102 18.7891C101.039 18.4714 101.008 18.125 101.008 17.75H102.25C102.25 17.9583 102.266 18.1589 102.297 18.3516C102.328 18.5443 102.396 18.724 102.5 18.8906C102.609 19.0573 102.776 19.2083 103 19.3438C103.224 19.4792 103.529 19.5964 103.914 19.6953C104.305 19.7943 104.792 19.8698 105.375 19.9219C105.958 19.974 106.667 20 107.5 20ZM108.5 15C109.318 15 109.987 14.9818 110.508 14.9453C111.029 14.9089 111.435 14.8229 111.727 14.6875C112.023 14.5521 112.227 14.3516 112.336 14.0859C112.445 13.8203 112.5 13.4583 112.5 13C112.5 12.375 112.445 11.8672 112.336 11.4766C112.227 11.0859 112.023 10.7812 111.727 10.5625C111.435 10.3438 111.029 10.1953 110.508 10.1172C109.987 10.0391 109.318 10 108.5 10H105.992C105.409 10 104.904 10.0156 104.477 10.0469C104.055 10.0781 103.695 10.1302 103.398 10.2031C103.107 10.276 102.867 10.375 102.68 10.5C102.497 10.625 102.354 10.7812 102.25 10.9688C102.151 11.151 102.083 11.3698 102.047 11.625C102.016 11.875 102 12.1667 102 12.5C102 12.8333 102.018 13.1276 102.055 13.3828C102.091 13.6328 102.159 13.8516 102.258 14.0391C102.362 14.2214 102.505 14.375 102.688 14.5C102.87 14.625 103.109 14.724 103.406 14.7969C103.703 14.8698 104.062 14.9219 104.484 14.9531C104.906 14.9844 105.409 15 105.992 15H108.5ZM116 20.25C116.417 20.25 116.768 20.2031 117.055 20.1094C117.346 20.0104 117.583 19.8646 117.766 19.6719C117.953 19.474 118.096 19.2292 118.195 18.9375C118.294 18.6458 118.365 18.3073 118.406 17.9219C118.453 17.5312 118.479 17.0938 118.484 16.6094C118.495 16.1198 118.5 15.5833 118.5 15C118.5 14.4167 118.495 13.8828 118.484 13.3984C118.479 12.9089 118.453 12.4714 118.406 12.0859C118.365 11.6953 118.294 11.3542 118.195 11.0625C118.096 10.7708 117.953 10.5286 117.766 10.3359C117.583 10.138 117.346 9.99219 117.055 9.89844C116.768 9.79948 116.417 9.75 116 9.75V8.5C116.667 8.5 117.227 8.59115 117.68 8.77344C118.138 8.95573 118.516 9.20573 118.812 9.52344C119.109 9.83594 119.339 10.2031 119.5 10.625C119.661 11.0469 119.779 11.5 119.852 11.9844C119.924 12.4635 119.966 12.9609 119.977 13.4766C119.992 13.9922 120 14.5 120 15C120 15.5 119.992 16.0078 119.977 16.5234C119.966 17.0391 119.924 17.5391 119.852 18.0234C119.779 18.5026 119.661 18.9531 119.5 19.375C119.339 19.7969 119.109 20.1667 118.812 20.4844C118.516 20.7969 118.138 21.0443 117.68 21.2266C117.227 21.4089 116.667 21.5 116 21.5V20.25ZM136.758 8.75C137.883 8.75 138.802 8.82031 139.516 8.96094C140.229 9.10156 140.786 9.3099 141.188 9.58594C141.594 9.85677 141.872 10.1953 142.023 10.6016C142.174 11.0026 142.25 11.4688 142.25 12C142.25 12.2969 142.224 12.5781 142.172 12.8438C142.12 13.1042 142.026 13.3438 141.891 13.5625C141.76 13.7812 141.583 13.9818 141.359 14.1641C141.135 14.3411 140.849 14.4948 140.5 14.625C140.896 14.7708 141.224 14.9453 141.484 15.1484C141.745 15.3516 141.948 15.5807 142.094 15.8359C142.245 16.0911 142.349 16.3698 142.406 16.6719C142.469 16.9688 142.5 17.2865 142.5 17.625C142.5 18.0156 142.469 18.3776 142.406 18.7109C142.344 19.0391 142.234 19.3385 142.078 19.6094C141.922 19.875 141.708 20.112 141.438 20.3203C141.172 20.5234 140.836 20.6953 140.43 20.8359C140.023 20.9714 139.536 21.0729 138.969 21.1406C138.406 21.2135 137.75 21.25 137 21.25H134.492C133.367 21.25 132.448 21.1693 131.734 21.0078C131.021 20.8516 130.461 20.6198 130.055 20.3125C129.654 20.0052 129.378 19.6276 129.227 19.1797C129.076 18.7266 129 18.2083 129 17.625C129 17.2865 129.029 16.9688 129.086 16.6719C129.143 16.3698 129.247 16.0911 129.398 15.8359C129.549 15.5807 129.753 15.3516 130.008 15.1484C130.268 14.9453 130.599 14.7708 131 14.625C130.651 14.4948 130.362 14.3411 130.133 14.1641C129.909 13.9818 129.732 13.7812 129.602 13.5625C129.471 13.3438 129.38 13.1042 129.328 12.8438C129.276 12.5781 129.25 12.2969 129.25 12C129.25 11.4688 129.326 11.0026 129.477 10.6016C129.628 10.1953 129.904 9.85677 130.305 9.58594C130.711 9.3099 131.271 9.10156 131.984 8.96094C132.698 8.82031 133.617 8.75 134.742 8.75H136.758ZM137 20C137.583 20 138.086 19.9844 138.508 19.9531C138.935 19.9167 139.294 19.862 139.586 19.7891C139.883 19.7109 140.122 19.612 140.305 19.4922C140.492 19.3724 140.635 19.224 140.734 19.0469C140.839 18.8698 140.909 18.6641 140.945 18.4297C140.982 18.1953 141 17.9271 141 17.625C141 17.3333 140.982 17.0729 140.945 16.8438C140.914 16.6094 140.846 16.4062 140.742 16.2344C140.643 16.0573 140.5 15.9062 140.312 15.7812C140.13 15.6562 139.891 15.5547 139.594 15.4766C139.297 15.3984 138.935 15.3411 138.508 15.3047C138.086 15.2682 137.583 15.25 137 15.25H134.492C133.909 15.25 133.404 15.2682 132.977 15.3047C132.555 15.3411 132.195 15.3984 131.898 15.4766C131.607 15.5547 131.367 15.6562 131.18 15.7812C130.997 15.9062 130.854 16.0573 130.75 16.2344C130.651 16.4062 130.583 16.6094 130.547 16.8438C130.516 17.0729 130.5 17.3333 130.5 17.625C130.5 17.9271 130.518 18.1953 130.555 18.4297C130.591 18.6641 130.659 18.8698 130.758 19.0469C130.862 19.224 131.005 19.3724 131.188 19.4922C131.37 19.612 131.609 19.7109 131.906 19.7891C132.203 19.862 132.562 19.9167 132.984 19.9531C133.406 19.9844 133.909 20 134.492 20H137ZM137 14C137.818 14 138.471 13.9714 138.961 13.9141C139.456 13.8516 139.833 13.7448 140.094 13.5938C140.359 13.4427 140.534 13.2396 140.617 12.9844C140.706 12.724 140.75 12.3958 140.75 12C140.75 11.7396 140.732 11.5104 140.695 11.3125C140.664 11.1094 140.596 10.9349 140.492 10.7891C140.393 10.638 140.25 10.513 140.062 10.4141C139.88 10.3151 139.641 10.2344 139.344 10.1719C139.047 10.1094 138.685 10.0651 138.258 10.0391C137.836 10.013 137.333 10 136.75 10H134.742C134.159 10 133.654 10.013 133.227 10.0391C132.805 10.0651 132.445 10.1094 132.148 10.1719C131.857 10.2344 131.617 10.3151 131.43 10.4141C131.247 10.513 131.104 10.638 131 10.7891C130.901 10.9349 130.833 11.1094 130.797 11.3125C130.766 11.5104 130.75 11.7396 130.75 12C130.75 12.2708 130.768 12.5078 130.805 12.7109C130.841 12.9141 130.909 13.0911 131.008 13.2422C131.112 13.388 131.255 13.5104 131.438 13.6094C131.62 13.7083 131.859 13.7865 132.156 13.8438C132.453 13.901 132.812 13.9427 133.234 13.9688C133.656 13.9896 134.159 14 134.742 14H137ZM153.008 8.75C153.924 8.75 154.695 8.80729 155.32 8.92188C155.951 9.03125 156.469 9.20052 156.875 9.42969C157.281 9.65365 157.594 9.9375 157.812 10.2812C158.031 10.625 158.19 11.0286 158.289 11.4922C158.393 11.9557 158.453 12.4792 158.469 13.0625C158.49 13.6458 158.5 14.2917 158.5 15C158.5 15.7083 158.49 16.3542 158.469 16.9375C158.453 17.5208 158.393 18.0443 158.289 18.5078C158.19 18.9714 158.031 19.375 157.812 19.7188C157.594 20.0625 157.281 20.349 156.875 20.5781C156.469 20.8021 155.951 20.9688 155.32 21.0781C154.695 21.1927 153.924 21.25 153.008 21.25H150C149.083 21.25 148.31 21.1927 147.68 21.0781C147.055 20.9688 146.539 20.8021 146.133 20.5781C145.727 20.349 145.411 20.0625 145.188 19.7188C144.969 19.375 144.807 18.9714 144.703 18.5078C144.604 18.0443 144.547 17.5208 144.531 16.9375C144.516 16.3542 144.508 15.7083 144.508 15C144.508 14.2917 144.516 13.6458 144.531 13.0625C144.547 12.4792 144.604 11.9557 144.703 11.4922C144.807 11.0286 144.969 10.625 145.188 10.2812C145.411 9.9375 145.727 9.65365 146.133 9.42969C146.539 9.20052 147.055 9.03125 147.68 8.92188C148.31 8.80729 149.083 8.75 150 8.75H153.008ZM153.008 20C153.674 20 154.234 19.9818 154.688 19.9453C155.141 19.9036 155.516 19.8229 155.812 19.7031C156.109 19.5833 156.339 19.4115 156.5 19.1875C156.661 18.9635 156.779 18.6667 156.852 18.2969C156.924 17.9271 156.966 17.474 156.977 16.9375C156.992 16.3958 157 15.75 157 15C157 14.25 156.992 13.6068 156.977 13.0703C156.966 12.5286 156.924 12.0729 156.852 11.7031C156.779 11.3333 156.661 11.0365 156.5 10.8125C156.339 10.5885 156.109 10.4167 155.812 10.2969C155.521 10.1771 155.146 10.099 154.688 10.0625C154.234 10.0208 153.674 10 153.008 10H150C149.333 10 148.771 10.0208 148.312 10.0625C147.859 10.099 147.484 10.1771 147.188 10.2969C146.891 10.4167 146.661 10.5885 146.5 10.8125C146.339 11.0365 146.221 11.3333 146.148 11.7031C146.076 12.0729 146.034 12.5286 146.023 13.0703C146.013 13.6068 146.008 14.25 146.008 15C146.008 15.75 146.013 16.3958 146.023 16.9375C146.039 17.474 146.083 17.9271 146.156 18.2969C146.229 18.6667 146.344 18.9635 146.5 19.1875C146.661 19.4115 146.891 19.5833 147.188 19.7031C147.484 19.8229 147.859 19.9036 148.312 19.9453C148.771 19.9818 149.333 20 150 20H153.008ZM171 14.25C171.25 14.25 171.469 14.2292 171.656 14.1875C171.844 14.1458 171.997 14.0651 172.117 13.9453C172.242 13.8203 172.336 13.6432 172.398 13.4141C172.461 13.1849 172.492 12.8828 172.492 12.5078C172.492 12.0911 172.461 11.7396 172.398 11.4531C172.336 11.1667 172.232 10.9297 172.086 10.7422C171.94 10.5547 171.742 10.4115 171.492 10.3125C171.247 10.2135 170.94 10.1406 170.57 10.0938C170.201 10.0469 169.763 10.0208 169.258 10.0156C168.753 10.0052 168.167 10 167.5 10C166.583 10 165.81 10.013 165.18 10.0391C164.555 10.0599 164.036 10.1042 163.625 10.1719C163.219 10.2344 162.906 10.3229 162.688 10.4375C162.469 10.5521 162.307 10.7031 162.203 10.8906C162.104 11.0729 162.044 11.2969 162.023 11.5625C162.008 11.8281 162 12.1406 162 12.5H160.5C160.5 11.8698 160.568 11.3385 160.703 10.9062C160.844 10.474 161.047 10.1198 161.312 9.84375C161.583 9.5625 161.917 9.34896 162.312 9.20312C162.708 9.05208 163.164 8.94531 163.68 8.88281C164.201 8.8151 164.779 8.77604 165.414 8.76562C166.055 8.75521 166.75 8.75 167.5 8.75C168.25 8.75 168.93 8.76302 169.539 8.78906C170.154 8.8099 170.701 8.86198 171.18 8.94531C171.664 9.02865 172.083 9.15104 172.438 9.3125C172.792 9.47396 173.083 9.69531 173.312 9.97656C173.547 10.2526 173.719 10.5964 173.828 11.0078C173.943 11.4193 174 11.9167 174 12.5C174 12.875 173.974 13.1927 173.922 13.4531C173.875 13.7135 173.799 13.9349 173.695 14.1172C173.596 14.2943 173.469 14.4427 173.312 14.5625C173.156 14.6771 172.969 14.7812 172.75 14.875C172.969 14.9688 173.156 15.0885 173.312 15.2344C173.469 15.3802 173.596 15.5599 173.695 15.7734C173.799 15.9818 173.875 16.2292 173.922 16.5156C173.974 16.7969 174 17.125 174 17.5C174 18.0833 173.943 18.5807 173.828 18.9922C173.719 19.4036 173.547 19.75 173.312 20.0312C173.083 20.3073 172.792 20.526 172.438 20.6875C172.083 20.849 171.664 20.9714 171.18 21.0547C170.701 21.138 170.154 21.1901 169.539 21.2109C168.93 21.237 168.25 21.25 167.5 21.25C166.75 21.25 166.055 21.2448 165.414 21.2344C164.779 21.224 164.201 21.1823 163.68 21.1094C163.164 21.0365 162.708 20.9219 162.312 20.7656C161.917 20.6042 161.583 20.375 161.312 20.0781C161.047 19.7812 160.844 19.4036 160.703 18.9453C160.568 18.487 160.5 17.9219 160.5 17.25H162C162 17.6458 162.01 17.9896 162.031 18.2812C162.052 18.5677 162.112 18.8125 162.211 19.0156C162.31 19.2188 162.469 19.3854 162.688 19.5156C162.906 19.6406 163.219 19.7396 163.625 19.8125C164.036 19.8854 164.555 19.9349 165.18 19.9609C165.81 19.987 166.583 20 167.5 20C168.167 20 168.753 19.9974 169.258 19.9922C169.763 19.9818 170.201 19.9531 170.57 19.9062C170.94 19.8594 171.247 19.7865 171.492 19.6875C171.742 19.5885 171.94 19.4453 172.086 19.2578C172.232 19.0703 172.336 18.8333 172.398 18.5469C172.461 18.2604 172.492 17.9089 172.492 17.4922C172.492 17.0547 172.461 16.7057 172.398 16.4453C172.336 16.1797 172.242 15.9766 172.117 15.8359C171.997 15.6953 171.844 15.6042 171.656 15.5625C171.469 15.5208 171.25 15.5 171 15.5H165.5V14.25H171ZM187.5 21H185.5L194.75 10.25H183V9H196.5V10.5L187.5 21ZM209 14.25C209.25 14.25 209.469 14.2292 209.656 14.1875C209.844 14.1458 209.997 14.0651 210.117 13.9453C210.242 13.8203 210.336 13.6432 210.398 13.4141C210.461 13.1849 210.492 12.8828 210.492 12.5078C210.492 12.0911 210.461 11.7396 210.398 11.4531C210.336 11.1667 210.232 10.9297 210.086 10.7422C209.94 10.5547 209.742 10.4115 209.492 10.3125C209.247 10.2135 208.94 10.1406 208.57 10.0938C208.201 10.0469 207.763 10.0208 207.258 10.0156C206.753 10.0052 206.167 10 205.5 10C204.583 10 203.81 10.013 203.18 10.0391C202.555 10.0599 202.036 10.1042 201.625 10.1719C201.219 10.2344 200.906 10.3229 200.688 10.4375C200.469 10.5521 200.307 10.7031 200.203 10.8906C200.104 11.0729 200.044 11.2969 200.023 11.5625C200.008 11.8281 200 12.1406 200 12.5H198.5C198.5 11.8698 198.568 11.3385 198.703 10.9062C198.844 10.474 199.047 10.1198 199.312 9.84375C199.583 9.5625 199.917 9.34896 200.312 9.20312C200.708 9.05208 201.164 8.94531 201.68 8.88281C202.201 8.8151 202.779 8.77604 203.414 8.76562C204.055 8.75521 204.75 8.75 205.5 8.75C206.25 8.75 206.93 8.76302 207.539 8.78906C208.154 8.8099 208.701 8.86198 209.18 8.94531C209.664 9.02865 210.083 9.15104 210.438 9.3125C210.792 9.47396 211.083 9.69531 211.312 9.97656C211.547 10.2526 211.719 10.5964 211.828 11.0078C211.943 11.4193 212 11.9167 212 12.5C212 12.875 211.974 13.1927 211.922 13.4531C211.875 13.7135 211.799 13.9349 211.695 14.1172C211.596 14.2943 211.469 14.4427 211.312 14.5625C211.156 14.6771 210.969 14.7812 210.75 14.875C210.969 14.9688 211.156 15.0885 211.312 15.2344C211.469 15.3802 211.596 15.5599 211.695 15.7734C211.799 15.9818 211.875 16.2292 211.922 16.5156C211.974 16.7969 212 17.125 212 17.5C212 18.0833 211.943 18.5807 211.828 18.9922C211.719 19.4036 211.547 19.75 211.312 20.0312C211.083 20.3073 210.792 20.526 210.438 20.6875C210.083 20.849 209.664 20.9714 209.18 21.0547C208.701 21.138 208.154 21.1901 207.539 21.2109C206.93 21.237 206.25 21.25 205.5 21.25C204.75 21.25 204.055 21.2448 203.414 21.2344C202.779 21.224 202.201 21.1823 201.68 21.1094C201.164 21.0365 200.708 20.9219 200.312 20.7656C199.917 20.6042 199.583 20.375 199.312 20.0781C199.047 19.7812 198.844 19.4036 198.703 18.9453C198.568 18.487 198.5 17.9219 198.5 17.25H200C200 17.6458 200.01 17.9896 200.031 18.2812C200.052 18.5677 200.112 18.8125 200.211 19.0156C200.31 19.2188 200.469 19.3854 200.688 19.5156C200.906 19.6406 201.219 19.7396 201.625 19.8125C202.036 19.8854 202.555 19.9349 203.18 19.9609C203.81 19.987 204.583 20 205.5 20C206.167 20 206.753 19.9974 207.258 19.9922C207.763 19.9818 208.201 19.9531 208.57 19.9062C208.94 19.8594 209.247 19.7865 209.492 19.6875C209.742 19.5885 209.94 19.4453 210.086 19.2578C210.232 19.0703 210.336 18.8333 210.398 18.5469C210.461 18.2604 210.492 17.9089 210.492 17.4922C210.492 17.0547 210.461 16.7057 210.398 16.4453C210.336 16.1797 210.242 15.9766 210.117 15.8359C209.997 15.6953 209.844 15.6042 209.656 15.5625C209.469 15.5208 209.25 15.5 209 15.5H203.5V14.25H209ZM218.5 21H216.5L225.75 10.25H214V9H227.5V10.5L218.5 21ZM240 14.25C240.25 14.25 240.469 14.2292 240.656 14.1875C240.844 14.1458 240.997 14.0651 241.117 13.9453C241.242 13.8203 241.336 13.6432 241.398 13.4141C241.461 13.1849 241.492 12.8828 241.492 12.5078C241.492 12.0911 241.461 11.7396 241.398 11.4531C241.336 11.1667 241.232 10.9297 241.086 10.7422C240.94 10.5547 240.742 10.4115 240.492 10.3125C240.247 10.2135 239.94 10.1406 239.57 10.0938C239.201 10.0469 238.763 10.0208 238.258 10.0156C237.753 10.0052 237.167 10 236.5 10C235.583 10 234.81 10.013 234.18 10.0391C233.555 10.0599 233.036 10.1042 232.625 10.1719C232.219 10.2344 231.906 10.3229 231.688 10.4375C231.469 10.5521 231.307 10.7031 231.203 10.8906C231.104 11.0729 231.044 11.2969 231.023 11.5625C231.008 11.8281 231 12.1406 231 12.5H229.5C229.5 11.8698 229.568 11.3385 229.703 10.9062C229.844 10.474 230.047 10.1198 230.312 9.84375C230.583 9.5625 230.917 9.34896 231.312 9.20312C231.708 9.05208 232.164 8.94531 232.68 8.88281C233.201 8.8151 233.779 8.77604 234.414 8.76562C235.055 8.75521 235.75 8.75 236.5 8.75C237.25 8.75 237.93 8.76302 238.539 8.78906C239.154 8.8099 239.701 8.86198 240.18 8.94531C240.664 9.02865 241.083 9.15104 241.438 9.3125C241.792 9.47396 242.083 9.69531 242.312 9.97656C242.547 10.2526 242.719 10.5964 242.828 11.0078C242.943 11.4193 243 11.9167 243 12.5C243 12.875 242.974 13.1927 242.922 13.4531C242.875 13.7135 242.799 13.9349 242.695 14.1172C242.596 14.2943 242.469 14.4427 242.312 14.5625C242.156 14.6771 241.969 14.7812 241.75 14.875C241.969 14.9688 242.156 15.0885 242.312 15.2344C242.469 15.3802 242.596 15.5599 242.695 15.7734C242.799 15.9818 242.875 16.2292 242.922 16.5156C242.974 16.7969 243 17.125 243 17.5C243 18.0833 242.943 18.5807 242.828 18.9922C242.719 19.4036 242.547 19.75 242.312 20.0312C242.083 20.3073 241.792 20.526 241.438 20.6875C241.083 20.849 240.664 20.9714 240.18 21.0547C239.701 21.138 239.154 21.1901 238.539 21.2109C237.93 21.237 237.25 21.25 236.5 21.25C235.75 21.25 235.055 21.2448 234.414 21.2344C233.779 21.224 233.201 21.1823 232.68 21.1094C232.164 21.0365 231.708 20.9219 231.312 20.7656C230.917 20.6042 230.583 20.375 230.312 20.0781C230.047 19.7812 229.844 19.4036 229.703 18.9453C229.568 18.487 229.5 17.9219 229.5 17.25H231C231 17.6458 231.01 17.9896 231.031 18.2812C231.052 18.5677 231.112 18.8125 231.211 19.0156C231.31 19.2188 231.469 19.3854 231.688 19.5156C231.906 19.6406 232.219 19.7396 232.625 19.8125C233.036 19.8854 233.555 19.9349 234.18 19.9609C234.81 19.987 235.583 20 236.5 20C237.167 20 237.753 19.9974 238.258 19.9922C238.763 19.9818 239.201 19.9531 239.57 19.9062C239.94 19.8594 240.247 19.7865 240.492 19.6875C240.742 19.5885 240.94 19.4453 241.086 19.2578C241.232 19.0703 241.336 18.8333 241.398 18.5469C241.461 18.2604 241.492 17.9089 241.492 17.4922C241.492 17.0547 241.461 16.7057 241.398 16.4453C241.336 16.1797 241.242 15.9766 241.117 15.8359C240.997 15.6953 240.844 15.6042 240.656 15.5625C240.469 15.5208 240.25 15.5 240 15.5H234.5V14.25H240Z" fill="#56585E"/>
</svg>
