<svg width="283" height="28" viewBox="0 0 283 28" fill="none" xmlns="http://www.w3.org/2000/svg">
<path d="M12 2C6.478 2 2 6.395 2 11.815C2 17.32 6.375 21.083 12 26C17.625 21.083 22 17.32 22 11.815C22 6.395 17.522 2 12 2ZM12 20C7.581 20 4 16.418 4 12C4 7.582 7.581 4 12 4C16.419 4 20 7.582 20 12C20 16.418 16.419 20 12 20Z" fill="#2E3038"/>
<path d="M78.5469 9V10.25H72.5469V21H71.0469V10.25H65.0469V9H78.5469ZM81.7969 21.1719C80.7969 21.1719 79.9479 21.1042 79.25 20.9688C78.5521 20.8281 77.9844 20.5885 77.5469 20.25C77.1094 19.9115 76.7917 19.4583 76.5938 18.8906C76.3958 18.3229 76.2969 17.6094 76.2969 16.75C76.2969 15.7656 76.3958 14.9531 76.5938 14.3125C76.7917 13.6667 77.1094 13.1536 77.5469 12.7734C77.9844 12.3932 78.5521 12.1276 79.25 11.9766C79.9479 11.8255 80.7969 11.75 81.7969 11.75C82.5104 11.75 83.1276 11.8021 83.6484 11.9062C84.1745 12.0104 84.6224 12.1615 84.9922 12.3594C85.3672 12.5573 85.6693 12.7969 85.8984 13.0781C86.1328 13.3594 86.3151 13.6562 86.4453 13.9688C86.5807 14.276 86.6719 14.638 86.7188 15.0547C86.7708 15.4714 86.7969 15.9115 86.7969 16.375L86.6719 16.875H77.7969C77.7969 17.5625 77.8646 18.1276 78 18.5703C78.1354 19.0078 78.3594 19.3281 78.6719 19.5312C78.9844 19.7344 79.3958 19.8646 79.9062 19.9219C80.4167 19.974 81.0469 20 81.7969 20C82.4844 20 83.0521 19.9818 83.5 19.9453C83.9531 19.9036 84.3125 19.8281 84.5781 19.7188C84.8438 19.6094 85.0286 19.4583 85.1328 19.2656C85.2422 19.0677 85.2969 18.8125 85.2969 18.5H86.7969C86.7969 18.9844 86.7109 19.3984 86.5391 19.7422C86.3724 20.0807 86.0938 20.3568 85.7031 20.5703C85.3125 20.7786 84.7969 20.9297 84.1562 21.0234C83.5208 21.1224 82.7344 21.1719 81.7969 21.1719ZM81.7969 13C81.2969 13 80.849 13.0104 80.4531 13.0312C80.0625 13.0521 79.7188 13.099 79.4219 13.1719C79.1302 13.2396 78.8802 13.3411 78.6719 13.4766C78.4635 13.6068 78.2943 13.763 78.1641 13.9453C78.0391 14.1224 77.9453 14.375 77.8828 14.7031C77.8255 15.026 77.7969 15.4167 77.7969 15.875H85.2969C85.2969 15.2656 85.2318 14.7891 85.1016 14.4453C84.9714 14.0964 84.7656 13.8099 84.4844 13.5859C84.2031 13.362 83.8411 13.2083 83.3984 13.125C82.9557 13.0417 82.4219 13 81.7969 13ZM94.2969 11.75C95.2969 11.75 96.1458 11.8255 96.8438 11.9766C97.5417 12.1276 98.1094 12.3854 98.5469 12.75C98.9844 13.1146 99.3021 13.6042 99.5 14.2188C99.6979 14.8281 99.7969 15.5938 99.7969 16.5156C99.7969 17.4219 99.6979 18.1745 99.5 18.7734C99.3021 19.3724 98.9844 19.849 98.5469 20.2031C98.1094 20.5573 97.5417 20.8073 96.8438 20.9531C96.1458 21.099 95.2969 21.1719 94.2969 21.1719C93.5833 21.1719 92.987 21.1328 92.5078 21.0547C92.0286 20.9766 91.6354 20.8802 91.3281 20.7656C91.026 20.6458 90.7943 20.5182 90.6328 20.3828C90.4766 20.2474 90.3646 20.1198 90.2969 20V24H88.7969V12H90.2969V12.8359C90.3646 12.7318 90.4766 12.6172 90.6328 12.4922C90.7943 12.362 91.026 12.2422 91.3281 12.1328C91.6354 12.0234 92.0286 11.9323 92.5078 11.8594C92.987 11.7865 93.5833 11.75 94.2969 11.75ZM94.2969 13C93.7969 13 93.3516 13.013 92.9609 13.0391C92.5703 13.0651 92.2266 13.1198 91.9297 13.2031C91.6328 13.2812 91.3802 13.3984 91.1719 13.5547C90.9688 13.7057 90.8021 13.9115 90.6719 14.1719C90.5417 14.4271 90.4453 14.7448 90.3828 15.125C90.3255 15.5052 90.2969 15.9609 90.2969 16.4922C90.2969 17.0286 90.3255 17.4896 90.3828 17.875C90.4453 18.2604 90.5417 18.5833 90.6719 18.8438C90.8021 19.099 90.9688 19.3047 91.1719 19.4609C91.3802 19.612 91.6328 19.7292 91.9297 19.8125C92.2266 19.8906 92.5703 19.9427 92.9609 19.9688C93.3516 19.9896 93.7969 20 94.2969 20C94.8802 20 95.3828 19.9818 95.8047 19.9453C96.2318 19.9089 96.5938 19.8438 96.8906 19.75C97.1875 19.6562 97.4271 19.526 97.6094 19.3594C97.7969 19.1927 97.9401 18.9818 98.0391 18.7266C98.1432 18.4661 98.2109 18.1562 98.2422 17.7969C98.2786 17.4323 98.2969 17.0052 98.2969 16.5156C98.2969 16.026 98.2786 15.599 98.2422 15.2344C98.2109 14.8698 98.1432 14.5573 98.0391 14.2969C97.9401 14.0365 97.7969 13.8229 97.6094 13.6562C97.4271 13.4896 97.1875 13.3568 96.8906 13.2578C96.5938 13.1589 96.2318 13.0911 95.8047 13.0547C95.3828 13.0182 94.8802 13 94.2969 13ZM110.508 19.7656C110.492 19.8281 110.375 19.9844 110.156 20.2344C110 20.4219 109.792 20.5885 109.531 20.7344C109.271 20.875 108.922 20.9844 108.484 21.0625C108.052 21.1458 107.482 21.1875 106.773 21.1875C105.831 21.1875 105.026 21.138 104.359 21.0391C103.693 20.9453 103.148 20.7995 102.727 20.6016C102.305 20.3984 101.995 20.1406 101.797 19.8281C101.604 19.5156 101.508 19.1432 101.508 18.7109C101.508 18.2578 101.56 17.875 101.664 17.5625C101.773 17.2448 101.93 16.9792 102.133 16.7656C102.341 16.5521 102.591 16.3854 102.883 16.2656C103.174 16.1458 103.505 16.0547 103.875 15.9922C104.25 15.9297 104.659 15.8906 105.102 15.875C105.544 15.8594 106.016 15.8516 106.516 15.8516C107.229 15.8516 107.826 15.8828 108.305 15.9453C108.784 16.0026 109.174 16.0781 109.477 16.1719C109.784 16.2604 110.016 16.3568 110.172 16.4609C110.328 16.5651 110.44 16.6615 110.508 16.75C110.508 16.1667 110.482 15.6693 110.43 15.2578C110.383 14.8464 110.302 14.5026 110.188 14.2266C110.078 13.9505 109.935 13.7318 109.758 13.5703C109.581 13.4036 109.362 13.2786 109.102 13.1953C108.846 13.112 108.547 13.0599 108.203 13.0391C107.859 13.013 107.466 13 107.023 13C106.336 13 105.766 13.0182 105.312 13.0547C104.859 13.0859 104.5 13.151 104.234 13.25C103.969 13.349 103.781 13.487 103.672 13.6641C103.562 13.8359 103.508 14.0625 103.508 14.3438H102.008C102.008 13.8698 102.091 13.4688 102.258 13.1406C102.43 12.8125 102.711 12.5469 103.102 12.3438C103.497 12.1354 104.016 11.9844 104.656 11.8906C105.297 11.7969 106.086 11.75 107.023 11.75C107.94 11.75 108.716 11.8255 109.352 11.9766C109.987 12.1276 110.5 12.3932 110.891 12.7734C111.286 13.1536 111.57 13.6667 111.742 14.3125C111.919 14.9531 112.008 15.7656 112.008 16.75V21H110.508V19.7656ZM107.023 20C107.685 20 108.237 19.9688 108.68 19.9062C109.128 19.8438 109.487 19.75 109.758 19.625C110.029 19.5 110.221 19.3438 110.336 19.1562C110.451 18.9688 110.508 18.75 110.508 18.5C110.508 18.25 110.44 18.0391 110.305 17.8672C110.174 17.6901 109.953 17.5469 109.641 17.4375C109.333 17.3281 108.924 17.25 108.414 17.2031C107.904 17.151 107.273 17.125 106.523 17.125C105.773 17.125 105.167 17.138 104.703 17.1641C104.245 17.1901 103.891 17.25 103.641 17.3438C103.391 17.4375 103.221 17.5755 103.133 17.7578C103.049 17.9401 103.008 18.1875 103.008 18.5C103.008 18.8125 103.052 19.0677 103.141 19.2656C103.234 19.4583 103.422 19.6094 103.703 19.7188C103.984 19.8281 104.388 19.9036 104.914 19.9453C105.445 19.9818 106.148 20 107.023 20ZM123.516 21H122.016V15.9219C122.016 15.3802 121.979 14.9245 121.906 14.5547C121.839 14.1797 121.695 13.8776 121.477 13.6484C121.263 13.4193 120.958 13.2552 120.562 13.1562C120.172 13.0521 119.656 13 119.016 13C118.312 13 117.734 13.0599 117.281 13.1797C116.828 13.2943 116.471 13.4583 116.211 13.6719C115.951 13.8802 115.768 14.1328 115.664 14.4297C115.565 14.7266 115.516 15.0573 115.516 15.4219V21H114.016V12H115.516V13.4219C115.521 13.4062 115.544 13.3542 115.586 13.2656C115.628 13.1771 115.701 13.0729 115.805 12.9531C115.914 12.8281 116.06 12.6953 116.242 12.5547C116.43 12.4141 116.669 12.2839 116.961 12.1641C117.258 12.0443 117.615 11.9453 118.031 11.8672C118.448 11.7891 118.943 11.75 119.516 11.75C120.078 11.75 120.565 11.7865 120.977 11.8594C121.393 11.9271 121.747 12.0312 122.039 12.1719C122.336 12.3073 122.576 12.4792 122.758 12.6875C122.945 12.8906 123.094 13.125 123.203 13.3906C123.292 13.25 123.43 13.0859 123.617 12.8984C123.805 12.7109 124.065 12.5312 124.398 12.3594C124.737 12.1875 125.159 12.0443 125.664 11.9297C126.169 11.8099 126.786 11.75 127.516 11.75C128.115 11.75 128.628 11.7917 129.055 11.875C129.487 11.9531 129.852 12.0729 130.148 12.2344C130.445 12.3906 130.682 12.5859 130.859 12.8203C131.042 13.0547 131.18 13.3281 131.273 13.6406C131.372 13.9479 131.438 14.2943 131.469 14.6797C131.5 15.0599 131.516 15.474 131.516 15.9219V21H130.016V15.9219C130.016 15.3802 129.979 14.9245 129.906 14.5547C129.839 14.1797 129.695 13.8776 129.477 13.6484C129.263 13.4193 128.958 13.2552 128.562 13.1562C128.172 13.0521 127.656 13 127.016 13C126.312 13 125.734 13.0599 125.281 13.1797C124.828 13.2943 124.471 13.4583 124.211 13.6719C123.951 13.8802 123.768 14.1328 123.664 14.4297C123.565 14.7266 123.516 15.0573 123.516 15.4219V21ZM142.477 19.7656C142.461 19.8281 142.344 19.9844 142.125 20.2344C141.969 20.4219 141.76 20.5885 141.5 20.7344C141.24 20.875 140.891 20.9844 140.453 21.0625C140.021 21.1458 139.451 21.1875 138.742 21.1875C137.799 21.1875 136.995 21.138 136.328 21.0391C135.661 20.9453 135.117 20.7995 134.695 20.6016C134.273 20.3984 133.964 20.1406 133.766 19.8281C133.573 19.5156 133.477 19.1432 133.477 18.7109C133.477 18.2578 133.529 17.875 133.633 17.5625C133.742 17.2448 133.898 16.9792 134.102 16.7656C134.31 16.5521 134.56 16.3854 134.852 16.2656C135.143 16.1458 135.474 16.0547 135.844 15.9922C136.219 15.9297 136.628 15.8906 137.07 15.875C137.513 15.8594 137.984 15.8516 138.484 15.8516C139.198 15.8516 139.794 15.8828 140.273 15.9453C140.753 16.0026 141.143 16.0781 141.445 16.1719C141.753 16.2604 141.984 16.3568 142.141 16.4609C142.297 16.5651 142.409 16.6615 142.477 16.75C142.477 16.1667 142.451 15.6693 142.398 15.2578C142.352 14.8464 142.271 14.5026 142.156 14.2266C142.047 13.9505 141.904 13.7318 141.727 13.5703C141.549 13.4036 141.331 13.2786 141.07 13.1953C140.815 13.112 140.516 13.0599 140.172 13.0391C139.828 13.013 139.435 13 138.992 13C138.305 13 137.734 13.0182 137.281 13.0547C136.828 13.0859 136.469 13.151 136.203 13.25C135.938 13.349 135.75 13.487 135.641 13.6641C135.531 13.8359 135.477 14.0625 135.477 14.3438H133.977C133.977 13.8698 134.06 13.4688 134.227 13.1406C134.398 12.8125 134.68 12.5469 135.07 12.3438C135.466 12.1354 135.984 11.9844 136.625 11.8906C137.266 11.7969 138.055 11.75 138.992 11.75C139.909 11.75 140.685 11.8255 141.32 11.9766C141.956 12.1276 142.469 12.3932 142.859 12.7734C143.255 13.1536 143.539 13.6667 143.711 14.3125C143.888 14.9531 143.977 15.7656 143.977 16.75V21H142.477V19.7656ZM138.992 20C139.654 20 140.206 19.9688 140.648 19.9062C141.096 19.8438 141.456 19.75 141.727 19.625C141.997 19.5 142.19 19.3438 142.305 19.1562C142.419 18.9688 142.477 18.75 142.477 18.5C142.477 18.25 142.409 18.0391 142.273 17.8672C142.143 17.6901 141.922 17.5469 141.609 17.4375C141.302 17.3281 140.893 17.25 140.383 17.2031C139.872 17.151 139.242 17.125 138.492 17.125C137.742 17.125 137.135 17.138 136.672 17.1641C136.214 17.1901 135.859 17.25 135.609 17.3438C135.359 17.4375 135.19 17.5755 135.102 17.7578C135.018 17.9401 134.977 18.1875 134.977 18.5C134.977 18.8125 135.021 19.0677 135.109 19.2656C135.203 19.4583 135.391 19.6094 135.672 19.7188C135.953 19.8281 136.357 19.9036 136.883 19.9453C137.414 19.9818 138.117 20 138.992 20ZM151.234 16.8984C150.526 16.8984 149.904 16.888 149.367 16.8672C148.831 16.8464 148.367 16.8047 147.977 16.7422C147.591 16.6745 147.268 16.5807 147.008 16.4609C146.753 16.3411 146.549 16.1823 146.398 15.9844C146.247 15.7812 146.141 15.5339 146.078 15.2422C146.016 14.9453 145.984 14.625 145.984 14.2812C145.984 13.8125 146.083 13.4193 146.281 13.1016C146.479 12.7786 146.797 12.5182 147.234 12.3203C147.672 12.1172 148.24 11.9714 148.938 11.8828C149.635 11.7943 150.484 11.75 151.484 11.75C152.474 11.75 153.289 11.8021 153.93 11.9062C154.576 12.0104 155.086 12.1719 155.461 12.3906C155.841 12.6042 156.107 12.875 156.258 13.2031C156.409 13.5312 156.484 13.9219 156.484 14.375H154.984C154.984 14.0938 154.93 13.8646 154.82 13.6875C154.716 13.5104 154.531 13.3724 154.266 13.2734C154 13.1693 153.641 13.099 153.188 13.0625C152.74 13.0208 152.172 13 151.484 13C150.734 13 150.104 13.0104 149.594 13.0312C149.083 13.0521 148.672 13.1042 148.359 13.1875C148.047 13.2708 147.823 13.3984 147.688 13.5703C147.552 13.7422 147.484 13.9792 147.484 14.2812C147.484 14.4583 147.495 14.6328 147.516 14.8047C147.542 14.9714 147.596 15.1094 147.68 15.2188C147.763 15.3281 147.885 15.4115 148.047 15.4688C148.208 15.526 148.427 15.5703 148.703 15.6016C148.984 15.6276 149.331 15.6432 149.742 15.6484C150.154 15.6484 150.651 15.6484 151.234 15.6484C151.943 15.6484 152.562 15.6641 153.094 15.6953C153.63 15.7266 154.094 15.7812 154.484 15.8594C154.875 15.9375 155.198 16.0573 155.453 16.2188C155.708 16.3802 155.911 16.5573 156.062 16.75C156.219 16.9375 156.328 17.1615 156.391 17.4219C156.453 17.6771 156.484 17.974 156.484 18.3125C156.484 18.651 156.453 18.9557 156.391 19.2266C156.328 19.4922 156.219 19.7292 156.062 19.9375C155.906 20.1406 155.693 20.3177 155.422 20.4688C155.156 20.6146 154.82 20.7344 154.414 20.8281C154.008 20.9167 153.521 20.9818 152.953 21.0234C152.391 21.0703 151.734 21.0938 150.984 21.0938C150.047 21.0938 149.258 21.0469 148.617 20.9531C147.982 20.8594 147.469 20.7109 147.078 20.5078C146.688 20.2995 146.406 20.0312 146.234 19.7031C146.068 19.375 145.984 18.974 145.984 18.5H147.484C147.484 18.8125 147.536 19.0677 147.641 19.2656C147.75 19.4583 147.938 19.6094 148.203 19.7188C148.469 19.8281 148.826 19.9036 149.273 19.9453C149.727 19.9818 150.297 20 150.984 20C151.609 20 152.141 19.987 152.578 19.9609C153.021 19.9297 153.391 19.8828 153.688 19.8203C153.984 19.7578 154.219 19.6823 154.391 19.5938C154.562 19.5052 154.693 19.3984 154.781 19.2734C154.87 19.1484 154.924 19.0104 154.945 18.8594C154.971 18.7031 154.984 18.5312 154.984 18.3438C154.984 18.1719 154.971 18.0208 154.945 17.8906C154.924 17.7552 154.872 17.6224 154.789 17.4922C154.706 17.3568 154.583 17.2552 154.422 17.1875C154.26 17.1198 154.039 17.0651 153.758 17.0234C153.482 16.9766 153.138 16.9453 152.727 16.9297C152.315 16.9089 151.818 16.8984 151.234 16.8984ZM161.234 21.5C161.234 21.8854 161.208 22.2318 161.156 22.5391C161.104 22.8464 160.984 23.1068 160.797 23.3203C160.609 23.5391 160.333 23.7057 159.969 23.8203C159.604 23.9401 159.109 24 158.484 24V22.75C158.734 22.75 158.94 22.7318 159.102 22.6953C159.263 22.6589 159.391 22.5938 159.484 22.5C159.578 22.4062 159.643 22.2786 159.68 22.1172C159.716 21.9557 159.734 21.75 159.734 21.5V12H161.234V21.5ZM161.234 10.5H159.734V9H161.234V10.5ZM164.234 12H165.734V21H164.234V12ZM165.734 10.5H164.234V9H165.734V10.5ZM173.484 21.1719C172.484 21.1719 171.635 21.099 170.938 20.9531C170.24 20.8073 169.672 20.5573 169.234 20.2031C168.797 19.849 168.479 19.3724 168.281 18.7734C168.083 18.1745 167.984 17.4219 167.984 16.5156C167.984 15.5781 168.083 14.8021 168.281 14.1875C168.479 13.5729 168.797 13.0859 169.234 12.7266C169.672 12.3672 170.24 12.1146 170.938 11.9688C171.635 11.8229 172.484 11.75 173.484 11.75C174.193 11.75 174.786 11.7865 175.266 11.8594C175.745 11.9323 176.135 12.0234 176.438 12.1328C176.745 12.2422 176.977 12.362 177.133 12.4922C177.294 12.6172 177.411 12.7344 177.484 12.8438V9H178.984V21H177.484V19.6641C177.484 19.6641 177.359 19.8125 177.109 20.1094C176.891 20.3229 176.648 20.4948 176.383 20.625C176.117 20.7552 175.745 20.8802 175.266 21C174.786 21.1146 174.193 21.1719 173.484 21.1719ZM173.484 20C173.984 20 174.43 19.9896 174.82 19.9688C175.211 19.9427 175.555 19.8906 175.852 19.8125C176.148 19.7344 176.398 19.6198 176.602 19.4688C176.81 19.3125 176.979 19.1068 177.109 18.8516C177.24 18.5964 177.333 18.2812 177.391 17.9062C177.453 17.526 177.484 17.0703 177.484 16.5391C177.484 15.987 177.453 15.5182 177.391 15.1328C177.333 14.7422 177.24 14.4167 177.109 14.1562C176.979 13.8906 176.81 13.6823 176.602 13.5312C176.398 13.3802 176.148 13.2656 175.852 13.1875C175.555 13.1042 175.211 13.0521 174.82 13.0312C174.43 13.0104 173.984 13 173.484 13C172.901 13 172.396 13.0182 171.969 13.0547C171.547 13.0911 171.188 13.1562 170.891 13.25C170.594 13.3438 170.352 13.474 170.164 13.6406C169.982 13.8073 169.839 14.0208 169.734 14.2812C169.635 14.5417 169.568 14.8568 169.531 15.2266C169.5 15.5911 169.484 16.0208 169.484 16.5156C169.484 17.0052 169.5 17.4323 169.531 17.7969C169.568 18.1562 169.635 18.4661 169.734 18.7266C169.839 18.9818 169.982 19.1927 170.164 19.3594C170.352 19.526 170.594 19.6562 170.891 19.75C171.188 19.8438 171.547 19.9089 171.969 19.9453C172.396 19.9818 172.901 20 173.484 20ZM180.984 20H182.484L181.484 23H180.484L180.984 20ZM199.984 18.5V21H198.484V18.5H187.984V17L197.984 9H199.984V17.25H201.984V18.5H199.984ZM198.484 17.25V10L189.484 17.25H198.484ZM203.984 20H205.484L204.484 23H203.484L203.984 20ZM220.992 8.75C221.909 8.75 222.68 8.80729 223.305 8.92188C223.935 9.03125 224.453 9.20052 224.859 9.42969C225.266 9.65365 225.578 9.9375 225.797 10.2812C226.016 10.625 226.174 11.0286 226.273 11.4922C226.378 11.9557 226.438 12.4792 226.453 13.0625C226.474 13.6458 226.484 14.2917 226.484 15C226.484 15.7083 226.474 16.3542 226.453 16.9375C226.438 17.5208 226.378 18.0443 226.273 18.5078C226.174 18.9714 226.016 19.375 225.797 19.7188C225.578 20.0625 225.266 20.349 224.859 20.5781C224.453 20.8021 223.935 20.9688 223.305 21.0781C222.68 21.1927 221.909 21.25 220.992 21.25H216.477C215.56 21.25 214.786 21.1927 214.156 21.0781C213.531 20.9688 213.016 20.8021 212.609 20.5781C212.203 20.349 211.888 20.0625 211.664 19.7188C211.445 19.375 211.284 18.9714 211.18 18.5078C211.081 18.0443 211.023 17.5208 211.008 16.9375C210.992 16.3542 210.984 15.7083 210.984 15C210.984 14.2917 210.992 13.6458 211.008 13.0625C211.023 12.4792 211.081 11.9557 211.18 11.4922C211.284 11.0286 211.445 10.625 211.664 10.2812C211.888 9.9375 212.203 9.65365 212.609 9.42969C213.016 9.20052 213.531 9.03125 214.156 8.92188C214.786 8.80729 215.56 8.75 216.477 8.75H220.992ZM220.992 20C221.654 20 222.211 19.9818 222.664 19.9453C223.122 19.9036 223.5 19.8229 223.797 19.7031C224.094 19.5833 224.323 19.4115 224.484 19.1875C224.646 18.9635 224.763 18.6667 224.836 18.2969C224.909 17.9271 224.951 17.474 224.961 16.9375C224.977 16.3958 224.984 15.75 224.984 15C224.984 14.25 224.977 13.6068 224.961 13.0703C224.951 12.5286 224.909 12.0729 224.836 11.7031C224.763 11.3333 224.646 11.0365 224.484 10.8125C224.323 10.5885 224.094 10.4167 223.797 10.2969C223.505 10.1771 223.13 10.099 222.672 10.0625C222.219 10.0208 221.659 10 220.992 10H216.477C215.81 10 215.247 10.0208 214.789 10.0625C214.336 10.099 213.961 10.1771 213.664 10.2969C213.367 10.4167 213.138 10.5885 212.977 10.8125C212.815 11.0365 212.698 11.3333 212.625 11.7031C212.552 12.0729 212.51 12.5286 212.5 13.0703C212.49 13.6068 212.484 14.25 212.484 15C212.484 15.75 212.49 16.3958 212.5 16.9375C212.516 17.474 212.56 17.9271 212.633 18.2969C212.706 18.6667 212.82 18.9635 212.977 19.1875C213.138 19.4115 213.367 19.5833 213.664 19.7031C213.961 19.8229 214.336 19.9036 214.789 19.9453C215.247 19.9818 215.81 20 216.477 20H220.992ZM228.984 9H230.484V21H228.984V9ZM233.484 12H234.984V21H233.484V12ZM234.984 10.5H233.484V9H234.984V10.5ZM246.984 21H245.484V15.9219C245.484 15.3802 245.448 14.9245 245.375 14.5547C245.307 14.1797 245.164 13.8776 244.945 13.6484C244.732 13.4193 244.427 13.2552 244.031 13.1562C243.641 13.0521 243.125 13 242.484 13C241.781 13 241.203 13.0599 240.75 13.1797C240.297 13.2943 239.94 13.4583 239.68 13.6719C239.419 13.8802 239.237 14.1328 239.133 14.4297C239.034 14.7266 238.984 15.0573 238.984 15.4219V21H237.484V12H238.984V13.4219C238.99 13.4062 239.013 13.3542 239.055 13.2656C239.096 13.1771 239.169 13.0729 239.273 12.9531C239.383 12.8281 239.529 12.6953 239.711 12.5547C239.898 12.4141 240.138 12.2839 240.43 12.1641C240.727 12.0443 241.083 11.9453 241.5 11.8672C241.917 11.7891 242.411 11.75 242.984 11.75C243.547 11.75 244.034 11.7865 244.445 11.8594C244.862 11.9271 245.216 12.0312 245.508 12.1719C245.805 12.3073 246.044 12.4792 246.227 12.6875C246.414 12.8906 246.562 13.125 246.672 13.3906C246.76 13.25 246.898 13.0859 247.086 12.8984C247.273 12.7109 247.534 12.5312 247.867 12.3594C248.206 12.1875 248.628 12.0443 249.133 11.9297C249.638 11.8099 250.255 11.75 250.984 11.75C251.583 11.75 252.096 11.7917 252.523 11.875C252.956 11.9531 253.32 12.0729 253.617 12.2344C253.914 12.3906 254.151 12.5859 254.328 12.8203C254.51 13.0547 254.648 13.3281 254.742 13.6406C254.841 13.9479 254.906 14.2943 254.938 14.6797C254.969 15.0599 254.984 15.474 254.984 15.9219V21H253.484V15.9219C253.484 15.3802 253.448 14.9245 253.375 14.5547C253.307 14.1797 253.164 13.8776 252.945 13.6484C252.732 13.4193 252.427 13.2552 252.031 13.1562C251.641 13.0521 251.125 13 250.484 13C249.781 13 249.203 13.0599 248.75 13.1797C248.297 13.2943 247.94 13.4583 247.68 13.6719C247.419 13.8802 247.237 14.1328 247.133 14.4297C247.034 14.7266 246.984 15.0573 246.984 15.4219V21ZM257.484 9H258.984V21H257.484V9ZM270.445 19.7656C270.43 19.8281 270.312 19.9844 270.094 20.2344C269.938 20.4219 269.729 20.5885 269.469 20.7344C269.208 20.875 268.859 20.9844 268.422 21.0625C267.99 21.1458 267.419 21.1875 266.711 21.1875C265.768 21.1875 264.964 21.138 264.297 21.0391C263.63 20.9453 263.086 20.7995 262.664 20.6016C262.242 20.3984 261.932 20.1406 261.734 19.8281C261.542 19.5156 261.445 19.1432 261.445 18.7109C261.445 18.2578 261.497 17.875 261.602 17.5625C261.711 17.2448 261.867 16.9792 262.07 16.7656C262.279 16.5521 262.529 16.3854 262.82 16.2656C263.112 16.1458 263.443 16.0547 263.812 15.9922C264.188 15.9297 264.596 15.8906 265.039 15.875C265.482 15.8594 265.953 15.8516 266.453 15.8516C267.167 15.8516 267.763 15.8828 268.242 15.9453C268.721 16.0026 269.112 16.0781 269.414 16.1719C269.721 16.2604 269.953 16.3568 270.109 16.4609C270.266 16.5651 270.378 16.6615 270.445 16.75C270.445 16.1667 270.419 15.6693 270.367 15.2578C270.32 14.8464 270.24 14.5026 270.125 14.2266C270.016 13.9505 269.872 13.7318 269.695 13.5703C269.518 13.4036 269.299 13.2786 269.039 13.1953C268.784 13.112 268.484 13.0599 268.141 13.0391C267.797 13.013 267.404 13 266.961 13C266.273 13 265.703 13.0182 265.25 13.0547C264.797 13.0859 264.438 13.151 264.172 13.25C263.906 13.349 263.719 13.487 263.609 13.6641C263.5 13.8359 263.445 14.0625 263.445 14.3438H261.945C261.945 13.8698 262.029 13.4688 262.195 13.1406C262.367 12.8125 262.648 12.5469 263.039 12.3438C263.435 12.1354 263.953 11.9844 264.594 11.8906C265.234 11.7969 266.023 11.75 266.961 11.75C267.878 11.75 268.654 11.8255 269.289 11.9766C269.924 12.1276 270.438 12.3932 270.828 12.7734C271.224 13.1536 271.508 13.6667 271.68 14.3125C271.857 14.9531 271.945 15.7656 271.945 16.75V21H270.445V19.7656ZM266.961 20C267.622 20 268.174 19.9688 268.617 19.9062C269.065 19.8438 269.424 19.75 269.695 19.625C269.966 19.5 270.159 19.3438 270.273 19.1562C270.388 18.9688 270.445 18.75 270.445 18.5C270.445 18.25 270.378 18.0391 270.242 17.8672C270.112 17.6901 269.891 17.5469 269.578 17.4375C269.271 17.3281 268.862 17.25 268.352 17.2031C267.841 17.151 267.211 17.125 266.461 17.125C265.711 17.125 265.104 17.138 264.641 17.1641C264.182 17.1901 263.828 17.25 263.578 17.3438C263.328 17.4375 263.159 17.5755 263.07 17.7578C262.987 17.9401 262.945 18.1875 262.945 18.5C262.945 18.8125 262.99 19.0677 263.078 19.2656C263.172 19.4583 263.359 19.6094 263.641 19.7188C263.922 19.8281 264.326 19.9036 264.852 19.9453C265.383 19.9818 266.086 20 266.961 20ZM281.703 14.9297C281.703 14.5547 281.674 14.2448 281.617 14C281.565 13.75 281.438 13.5521 281.234 13.4062C281.031 13.2552 280.729 13.151 280.328 13.0938C279.932 13.0312 279.391 13 278.703 13C278.031 13 277.484 13.0599 277.062 13.1797C276.641 13.2943 276.31 13.4583 276.07 13.6719C275.831 13.8854 275.667 14.1406 275.578 14.4375C275.495 14.7344 275.453 15.0651 275.453 15.4297V21H273.953V12H275.453V13.4297C275.505 13.2682 275.602 13.0911 275.742 12.8984C275.883 12.7005 276.096 12.5182 276.383 12.3516C276.669 12.1797 277.039 12.0365 277.492 11.9219C277.951 11.8073 278.521 11.75 279.203 11.75C279.984 11.75 280.62 11.8203 281.109 11.9609C281.599 12.0964 281.979 12.2995 282.25 12.5703C282.526 12.8359 282.711 13.1667 282.805 13.5625C282.904 13.9583 282.953 14.4141 282.953 14.9297H281.703Z" fill="#56585E"/>
</svg>
