<svg width="987" height="40" viewBox="0 0 987 40" fill="none" xmlns="http://www.w3.org/2000/svg">
<rect x="0.8" y="0.8" width="319.4" height="38.4" rx="19.2" fill="#56585E"/>
<rect x="0.8" y="0.8" width="319.4" height="38.4" rx="19.2" stroke="#56585E" stroke-width="1.6"/>
<path d="M113 14V15.25H107V26H105.5V15.25H99.5V14H113ZM116.25 26.1719C115.25 26.1719 114.401 26.1042 113.703 25.9688C113.005 25.8281 112.438 25.5885 112 25.25C111.562 24.9115 111.245 24.4583 111.047 23.8906C110.849 23.3229 110.75 22.6094 110.75 21.75C110.75 20.7656 110.849 19.9531 111.047 19.3125C111.245 18.6667 111.562 18.1536 112 17.7734C112.438 17.3932 113.005 17.1276 113.703 16.9766C114.401 16.8255 115.25 16.75 116.25 16.75C116.964 16.75 117.581 16.8021 118.102 16.9062C118.628 17.0104 119.076 17.1615 119.445 17.3594C119.82 17.5573 120.122 17.7969 120.352 18.0781C120.586 18.3594 120.768 18.6562 120.898 18.9688C121.034 19.276 121.125 19.638 121.172 20.0547C121.224 20.4714 121.25 20.9115 121.25 21.375L121.125 21.875H112.25C112.25 22.5625 112.318 23.1276 112.453 23.5703C112.589 24.0078 112.812 24.3281 113.125 24.5312C113.438 24.7344 113.849 24.8646 114.359 24.9219C114.87 24.974 115.5 25 116.25 25C116.938 25 117.505 24.9818 117.953 24.9453C118.406 24.9036 118.766 24.8281 119.031 24.7188C119.297 24.6094 119.482 24.4583 119.586 24.2656C119.695 24.0677 119.75 23.8125 119.75 23.5H121.25C121.25 23.9844 121.164 24.3984 120.992 24.7422C120.826 25.0807 120.547 25.3568 120.156 25.5703C119.766 25.7786 119.25 25.9297 118.609 26.0234C117.974 26.1224 117.188 26.1719 116.25 26.1719ZM116.25 18C115.75 18 115.302 18.0104 114.906 18.0312C114.516 18.0521 114.172 18.099 113.875 18.1719C113.583 18.2396 113.333 18.3411 113.125 18.4766C112.917 18.6068 112.747 18.763 112.617 18.9453C112.492 19.1224 112.398 19.375 112.336 19.7031C112.279 20.026 112.25 20.4167 112.25 20.875H119.75C119.75 20.2656 119.685 19.7891 119.555 19.4453C119.424 19.0964 119.219 18.8099 118.938 18.5859C118.656 18.362 118.294 18.2083 117.852 18.125C117.409 18.0417 116.875 18 116.25 18ZM123.75 14H125.25V26H123.75V14ZM133 26.1719C132 26.1719 131.151 26.1042 130.453 25.9688C129.755 25.8281 129.188 25.5885 128.75 25.25C128.312 24.9115 127.995 24.4583 127.797 23.8906C127.599 23.3229 127.5 22.6094 127.5 21.75C127.5 20.7656 127.599 19.9531 127.797 19.3125C127.995 18.6667 128.312 18.1536 128.75 17.7734C129.188 17.3932 129.755 17.1276 130.453 16.9766C131.151 16.8255 132 16.75 133 16.75C133.714 16.75 134.331 16.8021 134.852 16.9062C135.378 17.0104 135.826 17.1615 136.195 17.3594C136.57 17.5573 136.872 17.7969 137.102 18.0781C137.336 18.3594 137.518 18.6562 137.648 18.9688C137.784 19.276 137.875 19.638 137.922 20.0547C137.974 20.4714 138 20.9115 138 21.375L137.875 21.875H129C129 22.5625 129.068 23.1276 129.203 23.5703C129.339 24.0078 129.562 24.3281 129.875 24.5312C130.188 24.7344 130.599 24.8646 131.109 24.9219C131.62 24.974 132.25 25 133 25C133.688 25 134.255 24.9818 134.703 24.9453C135.156 24.9036 135.516 24.8281 135.781 24.7188C136.047 24.6094 136.232 24.4583 136.336 24.2656C136.445 24.0677 136.5 23.8125 136.5 23.5H138C138 23.9844 137.914 24.3984 137.742 24.7422C137.576 25.0807 137.297 25.3568 136.906 25.5703C136.516 25.7786 136 25.9297 135.359 26.0234C134.724 26.1224 133.938 26.1719 133 26.1719ZM133 18C132.5 18 132.052 18.0104 131.656 18.0312C131.266 18.0521 130.922 18.099 130.625 18.1719C130.333 18.2396 130.083 18.3411 129.875 18.4766C129.667 18.6068 129.497 18.763 129.367 18.9453C129.242 19.1224 129.148 19.375 129.086 19.7031C129.029 20.026 129 20.4167 129 20.875H136.5C136.5 20.2656 136.435 19.7891 136.305 19.4453C136.174 19.0964 135.969 18.8099 135.688 18.5859C135.406 18.362 135.044 18.2083 134.602 18.125C134.159 18.0417 133.625 18 133 18ZM145.25 18C144.667 18 144.161 18.0182 143.734 18.0547C143.312 18.0911 142.953 18.1562 142.656 18.25C142.359 18.3438 142.117 18.474 141.93 18.6406C141.747 18.8073 141.604 19.0208 141.5 19.2812C141.401 19.5417 141.333 19.8568 141.297 20.2266C141.266 20.5911 141.25 21.0208 141.25 21.5156C141.25 22.0052 141.266 22.4323 141.297 22.7969C141.333 23.1562 141.401 23.4661 141.5 23.7266C141.604 23.9818 141.747 24.1927 141.93 24.3594C142.117 24.526 142.359 24.6562 142.656 24.75C142.953 24.8438 143.312 24.9089 143.734 24.9453C144.161 24.9818 144.667 25 145.25 25C145.75 25 146.195 24.9896 146.586 24.9688C146.977 24.9427 147.32 24.8906 147.617 24.8125C147.914 24.7292 148.164 24.612 148.367 24.4609C148.576 24.3047 148.745 24.099 148.875 23.8438C149.005 23.5833 149.099 23.263 149.156 22.8828C149.219 22.4974 149.25 22.0339 149.25 21.4922C149.25 20.9505 149.219 20.487 149.156 20.1016C149.099 19.7161 149.005 19.3958 148.875 19.1406C148.745 18.8802 148.576 18.6745 148.367 18.5234C148.164 18.3724 147.914 18.2578 147.617 18.1797C147.32 18.1016 146.977 18.0521 146.586 18.0312C146.195 18.0104 145.75 18 145.25 18ZM150.75 24.75C150.75 25.625 150.651 26.3516 150.453 26.9297C150.255 27.5078 149.938 27.974 149.5 28.3281C149.062 28.6875 148.495 28.9375 147.797 29.0781C147.099 29.2188 146.25 29.2891 145.25 29.2891C144.312 29.2891 143.523 29.2474 142.883 29.1641C142.247 29.0807 141.734 28.9479 141.344 28.7656C140.953 28.5885 140.672 28.3568 140.5 28.0703C140.333 27.7891 140.25 27.4453 140.25 27.0391H141.75C141.75 27.2422 141.802 27.4089 141.906 27.5391C142.016 27.6693 142.203 27.7708 142.469 27.8438C142.734 27.9167 143.091 27.9661 143.539 27.9922C143.992 28.0234 144.562 28.0391 145.25 28.0391C146 28.0391 146.63 28.0104 147.141 27.9531C147.651 27.901 148.062 27.7734 148.375 27.5703C148.688 27.3672 148.911 27.0599 149.047 26.6484C149.182 26.237 149.25 25.6875 149.25 25C149.177 25.125 149.06 25.2604 148.898 25.4062C148.742 25.5521 148.51 25.6875 148.203 25.8125C147.901 25.9375 147.51 26.0417 147.031 26.125C146.552 26.2083 145.958 26.25 145.25 26.25C144.25 26.25 143.401 26.1745 142.703 26.0234C142.005 25.8776 141.438 25.625 141 25.2656C140.562 24.9062 140.245 24.4219 140.047 23.8125C139.849 23.2031 139.75 22.4375 139.75 21.5156C139.75 20.5781 139.849 19.8021 140.047 19.1875C140.245 18.5729 140.562 18.0859 141 17.7266C141.438 17.3672 142.005 17.1146 142.703 16.9688C143.401 16.8229 144.25 16.75 145.25 16.75C145.958 16.75 146.552 16.7865 147.031 16.8594C147.51 16.9323 147.901 17.0234 148.203 17.1328C148.51 17.2422 148.742 17.362 148.898 17.4922C149.06 17.6172 149.177 17.7318 149.25 17.8359V17H150.75V24.75ZM160.5 19.9297C160.5 19.5547 160.471 19.2448 160.414 19C160.362 18.75 160.234 18.5521 160.031 18.4062C159.828 18.2552 159.526 18.151 159.125 18.0938C158.729 18.0312 158.188 18 157.5 18C156.828 18 156.281 18.0599 155.859 18.1797C155.438 18.2943 155.107 18.4583 154.867 18.6719C154.628 18.8854 154.464 19.1406 154.375 19.4375C154.292 19.7344 154.25 20.0651 154.25 20.4297V26H152.75V17H154.25V18.4297C154.302 18.2682 154.398 18.0911 154.539 17.8984C154.68 17.7005 154.893 17.5182 155.18 17.3516C155.466 17.1797 155.836 17.0365 156.289 16.9219C156.747 16.8073 157.318 16.75 158 16.75C158.781 16.75 159.417 16.8203 159.906 16.9609C160.396 17.0964 160.776 17.2995 161.047 17.5703C161.323 17.8359 161.508 18.1667 161.602 18.5625C161.701 18.9583 161.75 19.4141 161.75 19.9297H160.5ZM171.711 24.7656C171.695 24.8281 171.578 24.9844 171.359 25.2344C171.203 25.4219 170.995 25.5885 170.734 25.7344C170.474 25.875 170.125 25.9844 169.688 26.0625C169.255 26.1458 168.685 26.1875 167.977 26.1875C167.034 26.1875 166.229 26.138 165.562 26.0391C164.896 25.9453 164.352 25.7995 163.93 25.6016C163.508 25.3984 163.198 25.1406 163 24.8281C162.807 24.5156 162.711 24.1432 162.711 23.7109C162.711 23.2578 162.763 22.875 162.867 22.5625C162.977 22.2448 163.133 21.9792 163.336 21.7656C163.544 21.5521 163.794 21.3854 164.086 21.2656C164.378 21.1458 164.708 21.0547 165.078 20.9922C165.453 20.9297 165.862 20.8906 166.305 20.875C166.747 20.8594 167.219 20.8516 167.719 20.8516C168.432 20.8516 169.029 20.8828 169.508 20.9453C169.987 21.0026 170.378 21.0781 170.68 21.1719C170.987 21.2604 171.219 21.3568 171.375 21.4609C171.531 21.5651 171.643 21.6615 171.711 21.75C171.711 21.1667 171.685 20.6693 171.633 20.2578C171.586 19.8464 171.505 19.5026 171.391 19.2266C171.281 18.9505 171.138 18.7318 170.961 18.5703C170.784 18.4036 170.565 18.2786 170.305 18.1953C170.049 18.112 169.75 18.0599 169.406 18.0391C169.062 18.013 168.669 18 168.227 18C167.539 18 166.969 18.0182 166.516 18.0547C166.062 18.0859 165.703 18.151 165.438 18.25C165.172 18.349 164.984 18.487 164.875 18.6641C164.766 18.8359 164.711 19.0625 164.711 19.3438H163.211C163.211 18.8698 163.294 18.4688 163.461 18.1406C163.633 17.8125 163.914 17.5469 164.305 17.3438C164.701 17.1354 165.219 16.9844 165.859 16.8906C166.5 16.7969 167.289 16.75 168.227 16.75C169.143 16.75 169.919 16.8255 170.555 16.9766C171.19 17.1276 171.703 17.3932 172.094 17.7734C172.49 18.1536 172.773 18.6667 172.945 19.3125C173.122 19.9531 173.211 20.7656 173.211 21.75V26H171.711V24.7656ZM168.227 25C168.888 25 169.44 24.9688 169.883 24.9062C170.331 24.8438 170.69 24.75 170.961 24.625C171.232 24.5 171.424 24.3438 171.539 24.1562C171.654 23.9688 171.711 23.75 171.711 23.5C171.711 23.25 171.643 23.0391 171.508 22.8672C171.378 22.6901 171.156 22.5469 170.844 22.4375C170.536 22.3281 170.128 22.25 169.617 22.2031C169.107 22.151 168.477 22.125 167.727 22.125C166.977 22.125 166.37 22.138 165.906 22.1641C165.448 22.1901 165.094 22.25 164.844 22.3438C164.594 22.4375 164.424 22.5755 164.336 22.7578C164.253 22.9401 164.211 23.1875 164.211 23.5C164.211 23.8125 164.255 24.0677 164.344 24.2656C164.438 24.4583 164.625 24.6094 164.906 24.7188C165.188 24.8281 165.591 24.9036 166.117 24.9453C166.648 24.9818 167.352 25 168.227 25ZM184.719 26H183.219V20.9219C183.219 20.3802 183.182 19.9245 183.109 19.5547C183.042 19.1797 182.898 18.8776 182.68 18.6484C182.466 18.4193 182.161 18.2552 181.766 18.1562C181.375 18.0521 180.859 18 180.219 18C179.516 18 178.938 18.0599 178.484 18.1797C178.031 18.2943 177.674 18.4583 177.414 18.6719C177.154 18.8802 176.971 19.1328 176.867 19.4297C176.768 19.7266 176.719 20.0573 176.719 20.4219V26H175.219V17H176.719V18.4219C176.724 18.4062 176.747 18.3542 176.789 18.2656C176.831 18.1771 176.904 18.0729 177.008 17.9531C177.117 17.8281 177.263 17.6953 177.445 17.5547C177.633 17.4141 177.872 17.2839 178.164 17.1641C178.461 17.0443 178.818 16.9453 179.234 16.8672C179.651 16.7891 180.146 16.75 180.719 16.75C181.281 16.75 181.768 16.7865 182.18 16.8594C182.596 16.9271 182.951 17.0312 183.242 17.1719C183.539 17.3073 183.779 17.4792 183.961 17.6875C184.148 17.8906 184.297 18.125 184.406 18.3906C184.495 18.25 184.633 18.0859 184.82 17.8984C185.008 17.7109 185.268 17.5312 185.602 17.3594C185.94 17.1875 186.362 17.0443 186.867 16.9297C187.372 16.8099 187.99 16.75 188.719 16.75C189.318 16.75 189.831 16.7917 190.258 16.875C190.69 16.9531 191.055 17.0729 191.352 17.2344C191.648 17.3906 191.885 17.5859 192.062 17.8203C192.245 18.0547 192.383 18.3281 192.477 18.6406C192.576 18.9479 192.641 19.2943 192.672 19.6797C192.703 20.0599 192.719 20.474 192.719 20.9219V26H191.219V20.9219C191.219 20.3802 191.182 19.9245 191.109 19.5547C191.042 19.1797 190.898 18.8776 190.68 18.6484C190.466 18.4193 190.161 18.2552 189.766 18.1562C189.375 18.0521 188.859 18 188.219 18C187.516 18 186.938 18.0599 186.484 18.1797C186.031 18.2943 185.674 18.4583 185.414 18.6719C185.154 18.8802 184.971 19.1328 184.867 19.4297C184.768 19.7266 184.719 20.0573 184.719 20.4219V26Z" fill="white"/>
<path d="M210.5 26L222.5 14M222.5 14H210.5M222.5 14V26" stroke="white"/>
<rect x="333.8" y="0.8" width="319.4" height="38.4" rx="19.2" fill="#56585E"/>
<rect x="333.8" y="0.8" width="319.4" height="38.4" rx="19.2" stroke="#56585E" stroke-width="1.6"/>
<path d="M427.5 14H429V26H427.5V14ZM440.5 26V21C440.5 20.4427 440.458 19.974 440.375 19.5938C440.292 19.2083 440.125 18.8984 439.875 18.6641C439.625 18.4297 439.271 18.2604 438.812 18.1562C438.354 18.0521 437.75 18 437 18C436.188 18 435.521 18.0599 435 18.1797C434.484 18.2995 434.078 18.4688 433.781 18.6875C433.484 18.9062 433.279 19.1693 433.164 19.4766C433.055 19.7839 433 20.125 433 20.5V26H431.5V17H433V18.5C433.109 18.2448 433.266 18.026 433.469 17.8438C433.672 17.6562 433.901 17.4974 434.156 17.3672C434.411 17.237 434.688 17.1328 434.984 17.0547C435.281 16.9714 435.578 16.9089 435.875 16.8672C436.172 16.8203 436.458 16.7891 436.734 16.7734C437.016 16.7578 437.271 16.75 437.5 16.75C438.167 16.75 438.74 16.7917 439.219 16.875C439.703 16.9583 440.112 17.0807 440.445 17.2422C440.784 17.4036 441.055 17.6042 441.258 17.8438C441.461 18.0833 441.617 18.362 441.727 18.6797C441.841 18.9922 441.917 19.3438 441.953 19.7344C441.99 20.1198 442.008 20.5417 442.008 21L442 26H440.5ZM449.266 21.8984C448.557 21.8984 447.935 21.888 447.398 21.8672C446.862 21.8464 446.398 21.8047 446.008 21.7422C445.622 21.6745 445.299 21.5807 445.039 21.4609C444.784 21.3411 444.581 21.1823 444.43 20.9844C444.279 20.7812 444.172 20.5339 444.109 20.2422C444.047 19.9453 444.016 19.625 444.016 19.2812C444.016 18.8125 444.115 18.4193 444.312 18.1016C444.51 17.7786 444.828 17.5182 445.266 17.3203C445.703 17.1172 446.271 16.9714 446.969 16.8828C447.667 16.7943 448.516 16.75 449.516 16.75C450.505 16.75 451.32 16.8021 451.961 16.9062C452.607 17.0104 453.117 17.1719 453.492 17.3906C453.872 17.6042 454.138 17.875 454.289 18.2031C454.44 18.5312 454.516 18.9219 454.516 19.375H453.016C453.016 19.0938 452.961 18.8646 452.852 18.6875C452.747 18.5104 452.562 18.3724 452.297 18.2734C452.031 18.1693 451.672 18.099 451.219 18.0625C450.771 18.0208 450.203 18 449.516 18C448.766 18 448.135 18.0104 447.625 18.0312C447.115 18.0521 446.703 18.1042 446.391 18.1875C446.078 18.2708 445.854 18.3984 445.719 18.5703C445.583 18.7422 445.516 18.9792 445.516 19.2812C445.516 19.4583 445.526 19.6328 445.547 19.8047C445.573 19.9714 445.628 20.1094 445.711 20.2188C445.794 20.3281 445.917 20.4115 446.078 20.4688C446.24 20.526 446.458 20.5703 446.734 20.6016C447.016 20.6276 447.362 20.6432 447.773 20.6484C448.185 20.6484 448.682 20.6484 449.266 20.6484C449.974 20.6484 450.594 20.6641 451.125 20.6953C451.661 20.7266 452.125 20.7812 452.516 20.8594C452.906 20.9375 453.229 21.0573 453.484 21.2188C453.74 21.3802 453.943 21.5573 454.094 21.75C454.25 21.9375 454.359 22.1615 454.422 22.4219C454.484 22.6771 454.516 22.974 454.516 23.3125C454.516 23.651 454.484 23.9557 454.422 24.2266C454.359 24.4922 454.25 24.7292 454.094 24.9375C453.938 25.1406 453.724 25.3177 453.453 25.4688C453.188 25.6146 452.852 25.7344 452.445 25.8281C452.039 25.9167 451.552 25.9818 450.984 26.0234C450.422 26.0703 449.766 26.0938 449.016 26.0938C448.078 26.0938 447.289 26.0469 446.648 25.9531C446.013 25.8594 445.5 25.7109 445.109 25.5078C444.719 25.2995 444.438 25.0312 444.266 24.7031C444.099 24.375 444.016 23.974 444.016 23.5H445.516C445.516 23.8125 445.568 24.0677 445.672 24.2656C445.781 24.4583 445.969 24.6094 446.234 24.7188C446.5 24.8281 446.857 24.9036 447.305 24.9453C447.758 24.9818 448.328 25 449.016 25C449.641 25 450.172 24.987 450.609 24.9609C451.052 24.9297 451.422 24.8828 451.719 24.8203C452.016 24.7578 452.25 24.6823 452.422 24.5938C452.594 24.5052 452.724 24.3984 452.812 24.2734C452.901 24.1484 452.956 24.0104 452.977 23.8594C453.003 23.7031 453.016 23.5312 453.016 23.3438C453.016 23.1719 453.003 23.0208 452.977 22.8906C452.956 22.7552 452.904 22.6224 452.82 22.4922C452.737 22.3568 452.615 22.2552 452.453 22.1875C452.292 22.1198 452.07 22.0651 451.789 22.0234C451.513 21.9766 451.169 21.9453 450.758 21.9297C450.346 21.9089 449.849 21.8984 449.266 21.8984ZM465.266 22C465.266 22.7656 465.203 23.4062 465.078 23.9219C464.953 24.4323 464.742 24.8411 464.445 25.1484C464.154 25.4557 463.768 25.6745 463.289 25.8047C462.81 25.9349 462.219 26 461.516 26C460.833 26 460.26 25.9479 459.797 25.8438C459.333 25.7396 458.958 25.5625 458.672 25.3125C458.385 25.0625 458.18 24.7292 458.055 24.3125C457.93 23.8958 457.867 23.375 457.867 22.75V18.2344H456.016V17H457.867V14.5391H459.367V17H465.016V18.2344H459.367V22.75C459.367 23.25 459.404 23.6354 459.477 23.9062C459.555 24.1771 459.677 24.375 459.844 24.5C460.01 24.625 460.229 24.6979 460.5 24.7188C460.776 24.7396 461.112 24.75 461.508 24.75C461.82 24.75 462.099 24.7448 462.344 24.7344C462.594 24.724 462.81 24.6927 462.992 24.6406C463.18 24.5833 463.339 24.5 463.469 24.3906C463.599 24.276 463.703 24.1172 463.781 23.9141C463.865 23.7109 463.924 23.4557 463.961 23.1484C463.997 22.8359 464.016 22.4531 464.016 22H465.266ZM475.727 24.7656C475.711 24.8281 475.594 24.9844 475.375 25.2344C475.219 25.4219 475.01 25.5885 474.75 25.7344C474.49 25.875 474.141 25.9844 473.703 26.0625C473.271 26.1458 472.701 26.1875 471.992 26.1875C471.049 26.1875 470.245 26.138 469.578 26.0391C468.911 25.9453 468.367 25.7995 467.945 25.6016C467.523 25.3984 467.214 25.1406 467.016 24.8281C466.823 24.5156 466.727 24.1432 466.727 23.7109C466.727 23.2578 466.779 22.875 466.883 22.5625C466.992 22.2448 467.148 21.9792 467.352 21.7656C467.56 21.5521 467.81 21.3854 468.102 21.2656C468.393 21.1458 468.724 21.0547 469.094 20.9922C469.469 20.9297 469.878 20.8906 470.32 20.875C470.763 20.8594 471.234 20.8516 471.734 20.8516C472.448 20.8516 473.044 20.8828 473.523 20.9453C474.003 21.0026 474.393 21.0781 474.695 21.1719C475.003 21.2604 475.234 21.3568 475.391 21.4609C475.547 21.5651 475.659 21.6615 475.727 21.75C475.727 21.1667 475.701 20.6693 475.648 20.2578C475.602 19.8464 475.521 19.5026 475.406 19.2266C475.297 18.9505 475.154 18.7318 474.977 18.5703C474.799 18.4036 474.581 18.2786 474.32 18.1953C474.065 18.112 473.766 18.0599 473.422 18.0391C473.078 18.013 472.685 18 472.242 18C471.555 18 470.984 18.0182 470.531 18.0547C470.078 18.0859 469.719 18.151 469.453 18.25C469.188 18.349 469 18.487 468.891 18.6641C468.781 18.8359 468.727 19.0625 468.727 19.3438H467.227C467.227 18.8698 467.31 18.4688 467.477 18.1406C467.648 17.8125 467.93 17.5469 468.32 17.3438C468.716 17.1354 469.234 16.9844 469.875 16.8906C470.516 16.7969 471.305 16.75 472.242 16.75C473.159 16.75 473.935 16.8255 474.57 16.9766C475.206 17.1276 475.719 17.3932 476.109 17.7734C476.505 18.1536 476.789 18.6667 476.961 19.3125C477.138 19.9531 477.227 20.7656 477.227 21.75V26H475.727V24.7656ZM472.242 25C472.904 25 473.456 24.9688 473.898 24.9062C474.346 24.8438 474.706 24.75 474.977 24.625C475.247 24.5 475.44 24.3438 475.555 24.1562C475.669 23.9688 475.727 23.75 475.727 23.5C475.727 23.25 475.659 23.0391 475.523 22.8672C475.393 22.6901 475.172 22.5469 474.859 22.4375C474.552 22.3281 474.143 22.25 473.633 22.2031C473.122 22.151 472.492 22.125 471.742 22.125C470.992 22.125 470.385 22.138 469.922 22.1641C469.464 22.1901 469.109 22.25 468.859 22.3438C468.609 22.4375 468.44 22.5755 468.352 22.7578C468.268 22.9401 468.227 23.1875 468.227 23.5C468.227 23.8125 468.271 24.0677 468.359 24.2656C468.453 24.4583 468.641 24.6094 468.922 24.7188C469.203 24.8281 469.607 24.9036 470.133 24.9453C470.664 24.9818 471.367 25 472.242 25ZM484.484 18C483.901 18 483.396 18.0182 482.969 18.0547C482.547 18.0911 482.188 18.1562 481.891 18.25C481.594 18.3438 481.352 18.474 481.164 18.6406C480.982 18.8073 480.839 19.0208 480.734 19.2812C480.635 19.5417 480.568 19.8568 480.531 20.2266C480.5 20.5911 480.484 21.0208 480.484 21.5156C480.484 22.0052 480.5 22.4323 480.531 22.7969C480.568 23.1562 480.635 23.4661 480.734 23.7266C480.839 23.9818 480.982 24.1927 481.164 24.3594C481.352 24.526 481.594 24.6562 481.891 24.75C482.188 24.8438 482.547 24.9089 482.969 24.9453C483.396 24.9818 483.901 25 484.484 25C484.984 25 485.43 24.9896 485.82 24.9688C486.211 24.9427 486.555 24.8906 486.852 24.8125C487.148 24.7292 487.398 24.612 487.602 24.4609C487.81 24.3047 487.979 24.099 488.109 23.8438C488.24 23.5833 488.333 23.263 488.391 22.8828C488.453 22.4974 488.484 22.0339 488.484 21.4922C488.484 20.9505 488.453 20.487 488.391 20.1016C488.333 19.7161 488.24 19.3958 488.109 19.1406C487.979 18.8802 487.81 18.6745 487.602 18.5234C487.398 18.3724 487.148 18.2578 486.852 18.1797C486.555 18.1016 486.211 18.0521 485.82 18.0312C485.43 18.0104 484.984 18 484.484 18ZM489.984 24.75C489.984 25.625 489.885 26.3516 489.688 26.9297C489.49 27.5078 489.172 27.974 488.734 28.3281C488.297 28.6875 487.729 28.9375 487.031 29.0781C486.333 29.2188 485.484 29.2891 484.484 29.2891C483.547 29.2891 482.758 29.2474 482.117 29.1641C481.482 29.0807 480.969 28.9479 480.578 28.7656C480.188 28.5885 479.906 28.3568 479.734 28.0703C479.568 27.7891 479.484 27.4453 479.484 27.0391H480.984C480.984 27.2422 481.036 27.4089 481.141 27.5391C481.25 27.6693 481.438 27.7708 481.703 27.8438C481.969 27.9167 482.326 27.9661 482.773 27.9922C483.227 28.0234 483.797 28.0391 484.484 28.0391C485.234 28.0391 485.865 28.0104 486.375 27.9531C486.885 27.901 487.297 27.7734 487.609 27.5703C487.922 27.3672 488.146 27.0599 488.281 26.6484C488.417 26.237 488.484 25.6875 488.484 25C488.411 25.125 488.294 25.2604 488.133 25.4062C487.977 25.5521 487.745 25.6875 487.438 25.8125C487.135 25.9375 486.745 26.0417 486.266 26.125C485.786 26.2083 485.193 26.25 484.484 26.25C483.484 26.25 482.635 26.1745 481.938 26.0234C481.24 25.8776 480.672 25.625 480.234 25.2656C479.797 24.9062 479.479 24.4219 479.281 23.8125C479.083 23.2031 478.984 22.4375 478.984 21.5156C478.984 20.5781 479.083 19.8021 479.281 19.1875C479.479 18.5729 479.797 18.0859 480.234 17.7266C480.672 17.3672 481.24 17.1146 481.938 16.9688C482.635 16.8229 483.484 16.75 484.484 16.75C485.193 16.75 485.786 16.7865 486.266 16.8594C486.745 16.9323 487.135 17.0234 487.438 17.1328C487.745 17.2422 487.977 17.362 488.133 17.4922C488.294 17.6172 488.411 17.7318 488.484 17.8359V17H489.984V24.75ZM499.734 19.9297C499.734 19.5547 499.706 19.2448 499.648 19C499.596 18.75 499.469 18.5521 499.266 18.4062C499.062 18.2552 498.76 18.151 498.359 18.0938C497.964 18.0312 497.422 18 496.734 18C496.062 18 495.516 18.0599 495.094 18.1797C494.672 18.2943 494.341 18.4583 494.102 18.6719C493.862 18.8854 493.698 19.1406 493.609 19.4375C493.526 19.7344 493.484 20.0651 493.484 20.4297V26H491.984V17H493.484V18.4297C493.536 18.2682 493.633 18.0911 493.773 17.8984C493.914 17.7005 494.128 17.5182 494.414 17.3516C494.701 17.1797 495.07 17.0365 495.523 16.9219C495.982 16.8073 496.552 16.75 497.234 16.75C498.016 16.75 498.651 16.8203 499.141 16.9609C499.63 17.0964 500.01 17.2995 500.281 17.5703C500.557 17.8359 500.742 18.1667 500.836 18.5625C500.935 18.9583 500.984 19.4141 500.984 19.9297H499.734ZM510.945 24.7656C510.93 24.8281 510.812 24.9844 510.594 25.2344C510.438 25.4219 510.229 25.5885 509.969 25.7344C509.708 25.875 509.359 25.9844 508.922 26.0625C508.49 26.1458 507.919 26.1875 507.211 26.1875C506.268 26.1875 505.464 26.138 504.797 26.0391C504.13 25.9453 503.586 25.7995 503.164 25.6016C502.742 25.3984 502.432 25.1406 502.234 24.8281C502.042 24.5156 501.945 24.1432 501.945 23.7109C501.945 23.2578 501.997 22.875 502.102 22.5625C502.211 22.2448 502.367 21.9792 502.57 21.7656C502.779 21.5521 503.029 21.3854 503.32 21.2656C503.612 21.1458 503.943 21.0547 504.312 20.9922C504.688 20.9297 505.096 20.8906 505.539 20.875C505.982 20.8594 506.453 20.8516 506.953 20.8516C507.667 20.8516 508.263 20.8828 508.742 20.9453C509.221 21.0026 509.612 21.0781 509.914 21.1719C510.221 21.2604 510.453 21.3568 510.609 21.4609C510.766 21.5651 510.878 21.6615 510.945 21.75C510.945 21.1667 510.919 20.6693 510.867 20.2578C510.82 19.8464 510.74 19.5026 510.625 19.2266C510.516 18.9505 510.372 18.7318 510.195 18.5703C510.018 18.4036 509.799 18.2786 509.539 18.1953C509.284 18.112 508.984 18.0599 508.641 18.0391C508.297 18.013 507.904 18 507.461 18C506.773 18 506.203 18.0182 505.75 18.0547C505.297 18.0859 504.938 18.151 504.672 18.25C504.406 18.349 504.219 18.487 504.109 18.6641C504 18.8359 503.945 19.0625 503.945 19.3438H502.445C502.445 18.8698 502.529 18.4688 502.695 18.1406C502.867 17.8125 503.148 17.5469 503.539 17.3438C503.935 17.1354 504.453 16.9844 505.094 16.8906C505.734 16.7969 506.523 16.75 507.461 16.75C508.378 16.75 509.154 16.8255 509.789 16.9766C510.424 17.1276 510.938 17.3932 511.328 17.7734C511.724 18.1536 512.008 18.6667 512.18 19.3125C512.357 19.9531 512.445 20.7656 512.445 21.75V26H510.945V24.7656ZM507.461 25C508.122 25 508.674 24.9688 509.117 24.9062C509.565 24.8438 509.924 24.75 510.195 24.625C510.466 24.5 510.659 24.3438 510.773 24.1562C510.888 23.9688 510.945 23.75 510.945 23.5C510.945 23.25 510.878 23.0391 510.742 22.8672C510.612 22.6901 510.391 22.5469 510.078 22.4375C509.771 22.3281 509.362 22.25 508.852 22.2031C508.341 22.151 507.711 22.125 506.961 22.125C506.211 22.125 505.604 22.138 505.141 22.1641C504.682 22.1901 504.328 22.25 504.078 22.3438C503.828 22.4375 503.659 22.5755 503.57 22.7578C503.487 22.9401 503.445 23.1875 503.445 23.5C503.445 23.8125 503.49 24.0677 503.578 24.2656C503.672 24.4583 503.859 24.6094 504.141 24.7188C504.422 24.8281 504.826 24.9036 505.352 24.9453C505.883 24.9818 506.586 25 507.461 25ZM523.953 26H522.453V20.9219C522.453 20.3802 522.417 19.9245 522.344 19.5547C522.276 19.1797 522.133 18.8776 521.914 18.6484C521.701 18.4193 521.396 18.2552 521 18.1562C520.609 18.0521 520.094 18 519.453 18C518.75 18 518.172 18.0599 517.719 18.1797C517.266 18.2943 516.909 18.4583 516.648 18.6719C516.388 18.8802 516.206 19.1328 516.102 19.4297C516.003 19.7266 515.953 20.0573 515.953 20.4219V26H514.453V17H515.953V18.4219C515.958 18.4062 515.982 18.3542 516.023 18.2656C516.065 18.1771 516.138 18.0729 516.242 17.9531C516.352 17.8281 516.497 17.6953 516.68 17.5547C516.867 17.4141 517.107 17.2839 517.398 17.1641C517.695 17.0443 518.052 16.9453 518.469 16.8672C518.885 16.7891 519.38 16.75 519.953 16.75C520.516 16.75 521.003 16.7865 521.414 16.8594C521.831 16.9271 522.185 17.0312 522.477 17.1719C522.773 17.3073 523.013 17.4792 523.195 17.6875C523.383 17.8906 523.531 18.125 523.641 18.3906C523.729 18.25 523.867 18.0859 524.055 17.8984C524.242 17.7109 524.503 17.5312 524.836 17.3594C525.174 17.1875 525.596 17.0443 526.102 16.9297C526.607 16.8099 527.224 16.75 527.953 16.75C528.552 16.75 529.065 16.7917 529.492 16.875C529.924 16.9531 530.289 17.0729 530.586 17.2344C530.883 17.3906 531.12 17.5859 531.297 17.8203C531.479 18.0547 531.617 18.3281 531.711 18.6406C531.81 18.9479 531.875 19.2943 531.906 19.6797C531.938 20.0599 531.953 20.474 531.953 20.9219V26H530.453V20.9219C530.453 20.3802 530.417 19.9245 530.344 19.5547C530.276 19.1797 530.133 18.8776 529.914 18.6484C529.701 18.4193 529.396 18.2552 529 18.1562C528.609 18.0521 528.094 18 527.453 18C526.75 18 526.172 18.0599 525.719 18.1797C525.266 18.2943 524.909 18.4583 524.648 18.6719C524.388 18.8802 524.206 19.1328 524.102 19.4297C524.003 19.7266 523.953 20.0573 523.953 20.4219V26Z" fill="white"/>
<path d="M549 26L561 14M561 14H549M561 14V26" stroke="white"/>
<rect x="666.8" y="0.8" width="319.4" height="38.4" rx="19.2" fill="#56585E"/>
<rect x="666.8" y="0.8" width="319.4" height="38.4" rx="19.2" stroke="#56585E" stroke-width="1.6"/>
<path d="M764 26V14H775.5V15.25H765.5V19.25H775V20.5H765.5V26H764ZM785.961 24.7656C785.945 24.8281 785.828 24.9844 785.609 25.2344C785.453 25.4219 785.245 25.5885 784.984 25.7344C784.724 25.875 784.375 25.9844 783.938 26.0625C783.505 26.1458 782.935 26.1875 782.227 26.1875C781.284 26.1875 780.479 26.138 779.812 26.0391C779.146 25.9453 778.602 25.7995 778.18 25.6016C777.758 25.3984 777.448 25.1406 777.25 24.8281C777.057 24.5156 776.961 24.1432 776.961 23.7109C776.961 23.2578 777.013 22.875 777.117 22.5625C777.227 22.2448 777.383 21.9792 777.586 21.7656C777.794 21.5521 778.044 21.3854 778.336 21.2656C778.628 21.1458 778.958 21.0547 779.328 20.9922C779.703 20.9297 780.112 20.8906 780.555 20.875C780.997 20.8594 781.469 20.8516 781.969 20.8516C782.682 20.8516 783.279 20.8828 783.758 20.9453C784.237 21.0026 784.628 21.0781 784.93 21.1719C785.237 21.2604 785.469 21.3568 785.625 21.4609C785.781 21.5651 785.893 21.6615 785.961 21.75C785.961 21.1667 785.935 20.6693 785.883 20.2578C785.836 19.8464 785.755 19.5026 785.641 19.2266C785.531 18.9505 785.388 18.7318 785.211 18.5703C785.034 18.4036 784.815 18.2786 784.555 18.1953C784.299 18.112 784 18.0599 783.656 18.0391C783.312 18.013 782.919 18 782.477 18C781.789 18 781.219 18.0182 780.766 18.0547C780.312 18.0859 779.953 18.151 779.688 18.25C779.422 18.349 779.234 18.487 779.125 18.6641C779.016 18.8359 778.961 19.0625 778.961 19.3438H777.461C777.461 18.8698 777.544 18.4688 777.711 18.1406C777.883 17.8125 778.164 17.5469 778.555 17.3438C778.951 17.1354 779.469 16.9844 780.109 16.8906C780.75 16.7969 781.539 16.75 782.477 16.75C783.393 16.75 784.169 16.8255 784.805 16.9766C785.44 17.1276 785.953 17.3932 786.344 17.7734C786.74 18.1536 787.023 18.6667 787.195 19.3125C787.372 19.9531 787.461 20.7656 787.461 21.75V26H785.961V24.7656ZM782.477 25C783.138 25 783.69 24.9688 784.133 24.9062C784.581 24.8438 784.94 24.75 785.211 24.625C785.482 24.5 785.674 24.3438 785.789 24.1562C785.904 23.9688 785.961 23.75 785.961 23.5C785.961 23.25 785.893 23.0391 785.758 22.8672C785.628 22.6901 785.406 22.5469 785.094 22.4375C784.786 22.3281 784.378 22.25 783.867 22.2031C783.357 22.151 782.727 22.125 781.977 22.125C781.227 22.125 780.62 22.138 780.156 22.1641C779.698 22.1901 779.344 22.25 779.094 22.3438C778.844 22.4375 778.674 22.5755 778.586 22.7578C778.503 22.9401 778.461 23.1875 778.461 23.5C778.461 23.8125 778.505 24.0677 778.594 24.2656C778.688 24.4583 778.875 24.6094 779.156 24.7188C779.438 24.8281 779.841 24.9036 780.367 24.9453C780.898 24.9818 781.602 25 782.477 25ZM789.219 21.5156C789.219 20.8906 789.25 20.3385 789.312 19.8594C789.375 19.3802 789.484 18.9635 789.641 18.6094C789.802 18.2552 790.016 17.9609 790.281 17.7266C790.552 17.487 790.891 17.2943 791.297 17.1484C791.708 17.0026 792.195 16.8984 792.758 16.8359C793.32 16.7734 793.977 16.7422 794.727 16.7422C795.727 16.7422 796.549 16.8047 797.195 16.9297C797.841 17.0495 798.352 17.237 798.727 17.4922C799.102 17.7422 799.362 18.0625 799.508 18.4531C799.654 18.8385 799.727 19.2995 799.727 19.8359H798.227C798.227 19.6432 798.221 19.4635 798.211 19.2969C798.201 19.1302 798.161 18.9792 798.094 18.8438C798.031 18.7083 797.93 18.5885 797.789 18.4844C797.648 18.375 797.448 18.2839 797.188 18.2109C796.927 18.138 796.596 18.0833 796.195 18.0469C795.799 18.0104 795.31 17.9922 794.727 17.9922C794.06 17.9922 793.497 18.0156 793.039 18.0625C792.586 18.1094 792.211 18.1875 791.914 18.2969C791.617 18.401 791.388 18.5443 791.227 18.7266C791.065 18.9036 790.948 19.1224 790.875 19.3828C790.802 19.6432 790.758 19.9505 790.742 20.3047C790.732 20.6536 790.727 21.0573 790.727 21.5156C790.727 21.9635 790.732 22.362 790.742 22.7109C790.758 23.0547 790.802 23.3568 790.875 23.6172C790.948 23.8724 791.065 24.0885 791.227 24.2656C791.388 24.4427 791.617 24.5859 791.914 24.6953C792.211 24.8047 792.586 24.8828 793.039 24.9297C793.497 24.9766 794.06 25 794.727 25C795.31 25 795.799 24.9792 796.195 24.9375C796.596 24.8958 796.927 24.8359 797.188 24.7578C797.448 24.6797 797.648 24.5833 797.789 24.4688C797.93 24.3542 798.031 24.224 798.094 24.0781C798.161 23.9271 798.201 23.763 798.211 23.5859C798.221 23.4036 798.227 23.2083 798.227 23H799.727C799.727 23.5469 799.654 24.0208 799.508 24.4219C799.362 24.8229 799.102 25.1536 798.727 25.4141C798.352 25.6693 797.841 25.8594 797.195 25.9844C796.549 26.1094 795.727 26.1719 794.727 26.1719C793.977 26.1719 793.32 26.1406 792.758 26.0781C792.195 26.0156 791.708 25.9141 791.297 25.7734C790.891 25.6276 790.552 25.4375 790.281 25.2031C790.016 24.9688 789.802 24.6797 789.641 24.3359C789.484 23.9922 789.375 23.5885 789.312 23.125C789.25 22.6562 789.219 22.1198 789.219 21.5156ZM806.984 26.1719C805.984 26.1719 805.135 26.1042 804.438 25.9688C803.74 25.8281 803.172 25.5885 802.734 25.25C802.297 24.9115 801.979 24.4583 801.781 23.8906C801.583 23.3229 801.484 22.6094 801.484 21.75C801.484 20.7656 801.583 19.9531 801.781 19.3125C801.979 18.6667 802.297 18.1536 802.734 17.7734C803.172 17.3932 803.74 17.1276 804.438 16.9766C805.135 16.8255 805.984 16.75 806.984 16.75C807.698 16.75 808.315 16.8021 808.836 16.9062C809.362 17.0104 809.81 17.1615 810.18 17.3594C810.555 17.5573 810.857 17.7969 811.086 18.0781C811.32 18.3594 811.503 18.6562 811.633 18.9688C811.768 19.276 811.859 19.638 811.906 20.0547C811.958 20.4714 811.984 20.9115 811.984 21.375L811.859 21.875H802.984C802.984 22.5625 803.052 23.1276 803.188 23.5703C803.323 24.0078 803.547 24.3281 803.859 24.5312C804.172 24.7344 804.583 24.8646 805.094 24.9219C805.604 24.974 806.234 25 806.984 25C807.672 25 808.24 24.9818 808.688 24.9453C809.141 24.9036 809.5 24.8281 809.766 24.7188C810.031 24.6094 810.216 24.4583 810.32 24.2656C810.43 24.0677 810.484 23.8125 810.484 23.5H811.984C811.984 23.9844 811.898 24.3984 811.727 24.7422C811.56 25.0807 811.281 25.3568 810.891 25.5703C810.5 25.7786 809.984 25.9297 809.344 26.0234C808.708 26.1224 807.922 26.1719 806.984 26.1719ZM806.984 18C806.484 18 806.036 18.0104 805.641 18.0312C805.25 18.0521 804.906 18.099 804.609 18.1719C804.318 18.2396 804.068 18.3411 803.859 18.4766C803.651 18.6068 803.482 18.763 803.352 18.9453C803.227 19.1224 803.133 19.375 803.07 19.7031C803.013 20.026 802.984 20.4167 802.984 20.875H810.484C810.484 20.2656 810.419 19.7891 810.289 19.4453C810.159 19.0964 809.953 18.8099 809.672 18.5859C809.391 18.362 809.029 18.2083 808.586 18.125C808.143 18.0417 807.609 18 806.984 18ZM819.484 26.1719C818.766 26.1719 818.167 26.1224 817.688 26.0234C817.214 25.9297 816.826 25.8281 816.523 25.7188C816.221 25.6042 815.992 25.4271 815.836 25.1875C815.68 24.9427 815.562 24.7526 815.484 24.6172V26H813.984V14H815.484V17.8516C815.552 17.7422 815.664 17.625 815.82 17.5C815.982 17.3698 816.214 17.25 816.516 17.1406C816.823 17.026 817.216 16.9323 817.695 16.8594C818.174 16.7865 818.771 16.75 819.484 16.75C820.484 16.75 821.333 16.8255 822.031 16.9766C822.729 17.1276 823.297 17.3854 823.734 17.75C824.172 18.1146 824.49 18.6042 824.688 19.2188C824.885 19.8281 824.984 20.5938 824.984 21.5156C824.984 22.4219 824.885 23.1745 824.688 23.7734C824.49 24.3724 824.172 24.849 823.734 25.2031C823.297 25.5573 822.729 25.8073 822.031 25.9531C821.333 26.099 820.484 26.1719 819.484 26.1719ZM819.484 25C820.068 25 820.57 24.9818 820.992 24.9453C821.419 24.9089 821.781 24.8438 822.078 24.75C822.375 24.6562 822.615 24.526 822.797 24.3594C822.984 24.1927 823.128 23.9818 823.227 23.7266C823.331 23.4661 823.398 23.1562 823.43 22.7969C823.466 22.4323 823.484 22.0052 823.484 21.5156C823.484 21.026 823.466 20.599 823.43 20.2344C823.398 19.8698 823.331 19.5599 823.227 19.3047C823.128 19.0443 822.984 18.8307 822.797 18.6641C822.615 18.4922 822.375 18.3594 822.078 18.2656C821.781 18.1667 821.419 18.099 820.992 18.0625C820.57 18.026 820.068 18.0078 819.484 18.0078C818.984 18.0078 818.539 18.0208 818.148 18.0469C817.758 18.0677 817.414 18.1198 817.117 18.2031C816.82 18.2865 816.568 18.4062 816.359 18.5625C816.156 18.7188 815.99 18.9271 815.859 19.1875C815.729 19.4479 815.633 19.7708 815.57 20.1562C815.513 20.5417 815.484 21.0026 815.484 21.5391C815.484 22.0703 815.513 22.526 815.57 22.9062C815.633 23.2812 815.729 23.5964 815.859 23.8516C815.99 24.1068 816.156 24.3125 816.359 24.4688C816.568 24.6198 816.82 24.7344 817.117 24.8125C817.414 24.8906 817.758 24.9427 818.148 24.9688C818.539 24.9896 818.984 25 819.484 25ZM826.484 21.4375C826.484 20.5156 826.583 19.7526 826.781 19.1484C826.979 18.5443 827.297 18.0651 827.734 17.7109C828.172 17.3568 828.74 17.1094 829.438 16.9688C830.135 16.8229 830.984 16.75 831.984 16.75C832.984 16.75 833.833 16.8229 834.531 16.9688C835.229 17.1094 835.797 17.3568 836.234 17.7109C836.672 18.0651 836.99 18.5443 837.188 19.1484C837.385 19.7526 837.484 20.5156 837.484 21.4375C837.484 22.3594 837.385 23.125 837.188 23.7344C836.99 24.3438 836.672 24.8281 836.234 25.1875C835.797 25.5469 835.229 25.8021 834.531 25.9531C833.833 26.099 832.984 26.1719 831.984 26.1719C830.984 26.1719 830.135 26.099 829.438 25.9531C828.74 25.8021 828.172 25.5469 827.734 25.1875C827.297 24.8281 826.979 24.3438 826.781 23.7344C826.583 23.125 826.484 22.3594 826.484 21.4375ZM827.984 21.4375C827.984 21.9375 828.003 22.3724 828.039 22.7422C828.076 23.112 828.143 23.4297 828.242 23.6953C828.346 23.9609 828.49 24.1771 828.672 24.3438C828.854 24.5104 829.094 24.6432 829.391 24.7422C829.688 24.8411 830.047 24.9089 830.469 24.9453C830.896 24.9818 831.401 25 831.984 25C832.484 25 832.93 24.9896 833.32 24.9688C833.716 24.9427 834.06 24.888 834.352 24.8047C834.648 24.7214 834.901 24.6042 835.109 24.4531C835.318 24.2969 835.484 24.0859 835.609 23.8203C835.74 23.5547 835.833 23.2292 835.891 22.8438C835.953 22.4531 835.984 21.9844 835.984 21.4375C835.984 20.901 835.953 20.4453 835.891 20.0703C835.833 19.6901 835.74 19.3724 835.609 19.1172C835.484 18.862 835.318 18.6615 835.109 18.5156C834.901 18.3646 834.648 18.2526 834.352 18.1797C834.06 18.1016 833.716 18.0521 833.32 18.0312C832.93 18.0104 832.484 18 831.984 18C831.484 18 831.036 18.0104 830.641 18.0312C830.25 18.0521 829.906 18.1016 829.609 18.1797C829.318 18.2526 829.068 18.3646 828.859 18.5156C828.651 18.6615 828.482 18.862 828.352 19.1172C828.227 19.3724 828.133 19.6901 828.07 20.0703C828.013 20.4453 827.984 20.901 827.984 21.4375ZM838.984 21.4375C838.984 20.5156 839.083 19.7526 839.281 19.1484C839.479 18.5443 839.797 18.0651 840.234 17.7109C840.672 17.3568 841.24 17.1094 841.938 16.9688C842.635 16.8229 843.484 16.75 844.484 16.75C845.484 16.75 846.333 16.8229 847.031 16.9688C847.729 17.1094 848.297 17.3568 848.734 17.7109C849.172 18.0651 849.49 18.5443 849.688 19.1484C849.885 19.7526 849.984 20.5156 849.984 21.4375C849.984 22.3594 849.885 23.125 849.688 23.7344C849.49 24.3438 849.172 24.8281 848.734 25.1875C848.297 25.5469 847.729 25.8021 847.031 25.9531C846.333 26.099 845.484 26.1719 844.484 26.1719C843.484 26.1719 842.635 26.099 841.938 25.9531C841.24 25.8021 840.672 25.5469 840.234 25.1875C839.797 24.8281 839.479 24.3438 839.281 23.7344C839.083 23.125 838.984 22.3594 838.984 21.4375ZM840.484 21.4375C840.484 21.9375 840.503 22.3724 840.539 22.7422C840.576 23.112 840.643 23.4297 840.742 23.6953C840.846 23.9609 840.99 24.1771 841.172 24.3438C841.354 24.5104 841.594 24.6432 841.891 24.7422C842.188 24.8411 842.547 24.9089 842.969 24.9453C843.396 24.9818 843.901 25 844.484 25C844.984 25 845.43 24.9896 845.82 24.9688C846.216 24.9427 846.56 24.888 846.852 24.8047C847.148 24.7214 847.401 24.6042 847.609 24.4531C847.818 24.2969 847.984 24.0859 848.109 23.8203C848.24 23.5547 848.333 23.2292 848.391 22.8438C848.453 22.4531 848.484 21.9844 848.484 21.4375C848.484 20.901 848.453 20.4453 848.391 20.0703C848.333 19.6901 848.24 19.3724 848.109 19.1172C847.984 18.862 847.818 18.6615 847.609 18.5156C847.401 18.3646 847.148 18.2526 846.852 18.1797C846.56 18.1016 846.216 18.0521 845.82 18.0312C845.43 18.0104 844.984 18 844.484 18C843.984 18 843.536 18.0104 843.141 18.0312C842.75 18.0521 842.406 18.1016 842.109 18.1797C841.818 18.2526 841.568 18.3646 841.359 18.5156C841.151 18.6615 840.982 18.862 840.852 19.1172C840.727 19.3724 840.633 19.6901 840.57 20.0703C840.513 20.4453 840.484 20.901 840.484 21.4375ZM851.734 14H853.234V20.5625H853.734L859.234 17H861.484L855.109 21.1875L861.734 26H859.484L853.734 21.6875H853.234V26H851.734V14Z" fill="white"/>
<path d="M878.5 26L890.5 14M890.5 14H878.5M890.5 14V26" stroke="white"/>
</svg>
