<svg width="166" height="20" viewBox="0 0 166 20" fill="none" xmlns="http://www.w3.org/2000/svg">
<circle cx="10" cy="10" r="10" fill="#184AFB"/>
<path d="M41.5 5H43V17H41.5V5ZM55 17H53.5V11.9219C53.5 11.3802 53.4635 10.9245 53.3906 10.5547C53.3229 10.1797 53.1797 9.8776 52.9609 9.64844C52.7474 9.41927 52.4427 9.25521 52.0469 9.15625C51.6562 9.05208 51.1406 9 50.5 9C49.7969 9 49.2188 9.0599 48.7656 9.17969C48.3125 9.29427 47.9557 9.45833 47.6953 9.67188C47.4349 9.88021 47.2526 10.1328 47.1484 10.4297C47.0495 10.7266 47 11.0573 47 11.4219V17H45.5V8H47V9.42188C47.0052 9.40625 47.0286 9.35417 47.0703 9.26562C47.112 9.17708 47.1849 9.07292 47.2891 8.95312C47.3984 8.82812 47.5443 8.69531 47.7266 8.55469C47.9141 8.41406 48.1536 8.28385 48.4453 8.16406C48.7422 8.04427 49.099 7.94531 49.5156 7.86719C49.9323 7.78906 50.4271 7.75 51 7.75C51.5625 7.75 52.0495 7.78646 52.4609 7.85938C52.8776 7.92708 53.2318 8.03125 53.5234 8.17188C53.8203 8.30729 54.0599 8.47917 54.2422 8.6875C54.4297 8.89062 54.5781 9.125 54.6875 9.39062C54.776 9.25 54.9141 9.08594 55.1016 8.89844C55.2891 8.71094 55.5495 8.53125 55.8828 8.35938C56.2214 8.1875 56.6432 8.04427 57.1484 7.92969C57.6536 7.8099 58.2708 7.75 59 7.75C59.599 7.75 60.112 7.79167 60.5391 7.875C60.9714 7.95312 61.3359 8.07292 61.6328 8.23438C61.9297 8.39062 62.1667 8.58594 62.3438 8.82031C62.526 9.05469 62.6641 9.32812 62.7578 9.64062C62.8568 9.94792 62.9219 10.2943 62.9531 10.6797C62.9844 11.0599 63 11.474 63 11.9219V17H61.5V11.9219C61.5 11.3802 61.4635 10.9245 61.3906 10.5547C61.3229 10.1797 61.1797 9.8776 60.9609 9.64844C60.7474 9.41927 60.4427 9.25521 60.0469 9.15625C59.6562 9.05208 59.1406 9 58.5 9C57.7969 9 57.2188 9.0599 56.7656 9.17969C56.3125 9.29427 55.9557 9.45833 55.6953 9.67188C55.4349 9.88021 55.2526 10.1328 55.1484 10.4297C55.0495 10.7266 55 11.0573 55 11.4219V17ZM65 5H66.5V11.5625H67L72.5 8H74.75L68.375 12.1875L75 17H72.75L67 12.6875H66.5V17H65V5ZM75 12.4375C75 11.5156 75.099 10.7526 75.2969 10.1484C75.4948 9.54427 75.8125 9.0651 76.25 8.71094C76.6875 8.35677 77.2552 8.10938 77.9531 7.96875C78.651 7.82292 79.5 7.75 80.5 7.75C81.5 7.75 82.349 7.82292 83.0469 7.96875C83.7448 8.10938 84.3125 8.35677 84.75 8.71094C85.1875 9.0651 85.5052 9.54427 85.7031 10.1484C85.901 10.7526 86 11.5156 86 12.4375C86 13.3594 85.901 14.125 85.7031 14.7344C85.5052 15.3438 85.1875 15.8281 84.75 16.1875C84.3125 16.5469 83.7448 16.8021 83.0469 16.9531C82.349 17.099 81.5 17.1719 80.5 17.1719C79.5 17.1719 78.651 17.099 77.9531 16.9531C77.2552 16.8021 76.6875 16.5469 76.25 16.1875C75.8125 15.8281 75.4948 15.3438 75.2969 14.7344C75.099 14.125 75 13.3594 75 12.4375ZM76.5 12.4375C76.5 12.9375 76.5182 13.3724 76.5547 13.7422C76.5911 14.112 76.6589 14.4297 76.7578 14.6953C76.862 14.9609 77.0052 15.1771 77.1875 15.3438C77.3698 15.5104 77.6094 15.6432 77.9062 15.7422C78.2031 15.8411 78.5625 15.9089 78.9844 15.9453C79.4115 15.9818 79.9167 16 80.5 16C81 16 81.4453 15.9896 81.8359 15.9688C82.2318 15.9427 82.5755 15.888 82.8672 15.8047C83.1641 15.7214 83.4167 15.6042 83.625 15.4531C83.8333 15.2969 84 15.0859 84.125 14.8203C84.2552 14.5547 84.349 14.2292 84.4062 13.8438C84.4688 13.4531 84.5 12.9844 84.5 12.4375C84.5 11.901 84.4688 11.4453 84.4062 11.0703C84.349 10.6901 84.2552 10.3724 84.125 10.1172C84 9.86198 83.8333 9.66146 83.625 9.51562C83.4167 9.36458 83.1641 9.2526 82.8672 9.17969C82.5755 9.10156 82.2318 9.05208 81.8359 9.03125C81.4453 9.01042 81 9 80.5 9C80 9 79.5521 9.01042 79.1562 9.03125C78.7656 9.05208 78.4219 9.10156 78.125 9.17969C77.8333 9.2526 77.5833 9.36458 77.375 9.51562C77.1667 9.66146 76.9974 9.86198 76.8672 10.1172C76.7422 10.3724 76.6484 10.6901 76.5859 11.0703C76.5286 11.4453 76.5 11.901 76.5 12.4375ZM96.75 17V12C96.75 11.4427 96.7083 10.974 96.625 10.5938C96.5417 10.2083 96.375 9.89844 96.125 9.66406C95.875 9.42969 95.5208 9.26042 95.0625 9.15625C94.6042 9.05208 94 9 93.25 9C92.4375 9 91.7708 9.0599 91.25 9.17969C90.7344 9.29948 90.3281 9.46875 90.0312 9.6875C89.7344 9.90625 89.5286 10.1693 89.4141 10.4766C89.3047 10.7839 89.25 11.125 89.25 11.5V17H87.75V8H89.25V9.5C89.3594 9.24479 89.5156 9.02604 89.7188 8.84375C89.9219 8.65625 90.151 8.4974 90.4062 8.36719C90.6615 8.23698 90.9375 8.13281 91.2344 8.05469C91.5312 7.97135 91.8281 7.90885 92.125 7.86719C92.4219 7.82031 92.7083 7.78906 92.9844 7.77344C93.2656 7.75781 93.5208 7.75 93.75 7.75C94.4167 7.75 94.9896 7.79167 95.4688 7.875C95.9531 7.95833 96.362 8.08073 96.6953 8.24219C97.0339 8.40365 97.3047 8.60417 97.5078 8.84375C97.7109 9.08333 97.8672 9.36198 97.9766 9.67969C98.0911 9.99219 98.1667 10.3438 98.2031 10.7344C98.2396 11.1198 98.2578 11.5417 98.2578 12L98.25 17H96.75ZM100.766 8H102.266V17H100.766V8ZM102.266 6.5H100.766V5H102.266V6.5ZM109.016 17L104.266 8H106.016L110.016 16L113.766 8H115.516L111.016 17L110.766 17.5C110.641 17.75 110.516 17.9844 110.391 18.2031C110.271 18.4271 110.133 18.6302 109.977 18.8125C109.82 19 109.635 19.1667 109.422 19.3125C109.208 19.4583 108.945 19.5807 108.633 19.6797C108.326 19.7839 107.958 19.862 107.531 19.9141C107.104 19.9714 106.599 20 106.016 20V18.75C106.516 18.75 106.938 18.7292 107.281 18.6875C107.625 18.651 107.911 18.5938 108.141 18.5156C108.375 18.4427 108.562 18.3542 108.703 18.25C108.844 18.1458 108.961 18.0286 109.055 17.8984C109.148 17.7682 109.227 17.6276 109.289 17.4766C109.357 17.3255 109.432 17.1667 109.516 17H109.016ZM125.477 15.7656C125.461 15.8281 125.344 15.9844 125.125 16.2344C124.969 16.4219 124.76 16.5885 124.5 16.7344C124.24 16.875 123.891 16.9844 123.453 17.0625C123.021 17.1458 122.451 17.1875 121.742 17.1875C120.799 17.1875 119.995 17.138 119.328 17.0391C118.661 16.9453 118.117 16.7995 117.695 16.6016C117.273 16.3984 116.964 16.1406 116.766 15.8281C116.573 15.5156 116.477 15.1432 116.477 14.7109C116.477 14.2578 116.529 13.875 116.633 13.5625C116.742 13.2448 116.898 12.9792 117.102 12.7656C117.31 12.5521 117.56 12.3854 117.852 12.2656C118.143 12.1458 118.474 12.0547 118.844 11.9922C119.219 11.9297 119.628 11.8906 120.07 11.875C120.513 11.8594 120.984 11.8516 121.484 11.8516C122.198 11.8516 122.794 11.8828 123.273 11.9453C123.753 12.0026 124.143 12.0781 124.445 12.1719C124.753 12.2604 124.984 12.3568 125.141 12.4609C125.297 12.5651 125.409 12.6615 125.477 12.75C125.477 12.1667 125.451 11.6693 125.398 11.2578C125.352 10.8464 125.271 10.5026 125.156 10.2266C125.047 9.95052 124.904 9.73177 124.727 9.57031C124.549 9.40365 124.331 9.27865 124.07 9.19531C123.815 9.11198 123.516 9.0599 123.172 9.03906C122.828 9.01302 122.435 9 121.992 9C121.305 9 120.734 9.01823 120.281 9.05469C119.828 9.08594 119.469 9.15104 119.203 9.25C118.938 9.34896 118.75 9.48698 118.641 9.66406C118.531 9.83594 118.477 10.0625 118.477 10.3438H116.977C116.977 9.86979 117.06 9.46875 117.227 9.14062C117.398 8.8125 117.68 8.54688 118.07 8.34375C118.466 8.13542 118.984 7.98438 119.625 7.89062C120.266 7.79688 121.055 7.75 121.992 7.75C122.909 7.75 123.685 7.82552 124.32 7.97656C124.956 8.1276 125.469 8.39323 125.859 8.77344C126.255 9.15365 126.539 9.66667 126.711 10.3125C126.888 10.9531 126.977 11.7656 126.977 12.75V17H125.477V15.7656ZM121.992 16C122.654 16 123.206 15.9688 123.648 15.9062C124.096 15.8438 124.456 15.75 124.727 15.625C124.997 15.5 125.19 15.3438 125.305 15.1562C125.419 14.9688 125.477 14.75 125.477 14.5C125.477 14.25 125.409 14.0391 125.273 13.8672C125.143 13.6901 124.922 13.5469 124.609 13.4375C124.302 13.3281 123.893 13.25 123.383 13.2031C122.872 13.151 122.242 13.125 121.492 13.125C120.742 13.125 120.135 13.138 119.672 13.1641C119.214 13.1901 118.859 13.25 118.609 13.3438C118.359 13.4375 118.19 13.5755 118.102 13.7578C118.018 13.9401 117.977 14.1875 117.977 14.5C117.977 14.8125 118.021 15.0677 118.109 15.2656C118.203 15.4583 118.391 15.6094 118.672 15.7188C118.953 15.8281 119.357 15.9036 119.883 15.9453C120.414 15.9818 121.117 16 121.992 16ZM137.734 13C137.734 13.7656 137.672 14.4062 137.547 14.9219C137.422 15.4323 137.211 15.8411 136.914 16.1484C136.622 16.4557 136.237 16.6745 135.758 16.8047C135.279 16.9349 134.688 17 133.984 17C133.302 17 132.729 16.9479 132.266 16.8438C131.802 16.7396 131.427 16.5625 131.141 16.3125C130.854 16.0625 130.648 15.7292 130.523 15.3125C130.398 14.8958 130.336 14.375 130.336 13.75V9.23438H128.484V8H130.336V5.53906H131.836V8H137.484V9.23438H131.836V13.75C131.836 14.25 131.872 14.6354 131.945 14.9062C132.023 15.1771 132.146 15.375 132.312 15.5C132.479 15.625 132.698 15.6979 132.969 15.7188C133.245 15.7396 133.581 15.75 133.977 15.75C134.289 15.75 134.568 15.7448 134.812 15.7344C135.062 15.724 135.279 15.6927 135.461 15.6406C135.648 15.5833 135.807 15.5 135.938 15.3906C136.068 15.276 136.172 15.1172 136.25 14.9141C136.333 14.7109 136.393 14.4557 136.43 14.1484C136.466 13.8359 136.484 13.4531 136.484 13H137.734ZM140.234 5H141.734V17H140.234V5ZM153.195 15.7656C153.18 15.8281 153.062 15.9844 152.844 16.2344C152.688 16.4219 152.479 16.5885 152.219 16.7344C151.958 16.875 151.609 16.9844 151.172 17.0625C150.74 17.1458 150.169 17.1875 149.461 17.1875C148.518 17.1875 147.714 17.138 147.047 17.0391C146.38 16.9453 145.836 16.7995 145.414 16.6016C144.992 16.3984 144.682 16.1406 144.484 15.8281C144.292 15.5156 144.195 15.1432 144.195 14.7109C144.195 14.2578 144.247 13.875 144.352 13.5625C144.461 13.2448 144.617 12.9792 144.82 12.7656C145.029 12.5521 145.279 12.3854 145.57 12.2656C145.862 12.1458 146.193 12.0547 146.562 11.9922C146.938 11.9297 147.346 11.8906 147.789 11.875C148.232 11.8594 148.703 11.8516 149.203 11.8516C149.917 11.8516 150.513 11.8828 150.992 11.9453C151.471 12.0026 151.862 12.0781 152.164 12.1719C152.471 12.2604 152.703 12.3568 152.859 12.4609C153.016 12.5651 153.128 12.6615 153.195 12.75C153.195 12.1667 153.169 11.6693 153.117 11.2578C153.07 10.8464 152.99 10.5026 152.875 10.2266C152.766 9.95052 152.622 9.73177 152.445 9.57031C152.268 9.40365 152.049 9.27865 151.789 9.19531C151.534 9.11198 151.234 9.0599 150.891 9.03906C150.547 9.01302 150.154 9 149.711 9C149.023 9 148.453 9.01823 148 9.05469C147.547 9.08594 147.188 9.15104 146.922 9.25C146.656 9.34896 146.469 9.48698 146.359 9.66406C146.25 9.83594 146.195 10.0625 146.195 10.3438H144.695C144.695 9.86979 144.779 9.46875 144.945 9.14062C145.117 8.8125 145.398 8.54688 145.789 8.34375C146.185 8.13542 146.703 7.98438 147.344 7.89062C147.984 7.79688 148.773 7.75 149.711 7.75C150.628 7.75 151.404 7.82552 152.039 7.97656C152.674 8.1276 153.188 8.39323 153.578 8.77344C153.974 9.15365 154.258 9.66667 154.43 10.3125C154.607 10.9531 154.695 11.7656 154.695 12.75V17H153.195V15.7656ZM149.711 16C150.372 16 150.924 15.9688 151.367 15.9062C151.815 15.8438 152.174 15.75 152.445 15.625C152.716 15.5 152.909 15.3438 153.023 15.1562C153.138 14.9688 153.195 14.75 153.195 14.5C153.195 14.25 153.128 14.0391 152.992 13.8672C152.862 13.6901 152.641 13.5469 152.328 13.4375C152.021 13.3281 151.612 13.25 151.102 13.2031C150.591 13.151 149.961 13.125 149.211 13.125C148.461 13.125 147.854 13.138 147.391 13.1641C146.932 13.1901 146.578 13.25 146.328 13.3438C146.078 13.4375 145.909 13.5755 145.82 13.7578C145.737 13.9401 145.695 14.1875 145.695 14.5C145.695 14.8125 145.74 15.0677 145.828 15.2656C145.922 15.4583 146.109 15.6094 146.391 15.7188C146.672 15.8281 147.076 15.9036 147.602 15.9453C148.133 15.9818 148.836 16 149.711 16ZM164.453 10.9297C164.453 10.5547 164.424 10.2448 164.367 10C164.315 9.75 164.188 9.55208 163.984 9.40625C163.781 9.25521 163.479 9.15104 163.078 9.09375C162.682 9.03125 162.141 9 161.453 9C160.781 9 160.234 9.0599 159.812 9.17969C159.391 9.29427 159.06 9.45833 158.82 9.67188C158.581 9.88542 158.417 10.1406 158.328 10.4375C158.245 10.7344 158.203 11.0651 158.203 11.4297V17H156.703V8H158.203V9.42969C158.255 9.26823 158.352 9.09115 158.492 8.89844C158.633 8.70052 158.846 8.51823 159.133 8.35156C159.419 8.17969 159.789 8.03646 160.242 7.92188C160.701 7.80729 161.271 7.75 161.953 7.75C162.734 7.75 163.37 7.82031 163.859 7.96094C164.349 8.09635 164.729 8.29948 165 8.57031C165.276 8.83594 165.461 9.16667 165.555 9.5625C165.654 9.95833 165.703 10.4141 165.703 10.9297H164.453Z" fill="#56585E"/>
</svg>
