<svg width="165" height="20" viewBox="0 0 165 20" fill="none" xmlns="http://www.w3.org/2000/svg">
<circle cx="10" cy="10" r="10" fill="#184AFB"/>
<path d="M43 6V17H41.5V5H44L50.9922 15.5L57.9844 5H60.375V17H58.875V6.16406L51.75 17H50.2344L43 6ZM71.8359 15.7656C71.8203 15.8281 71.7031 15.9844 71.4844 16.2344C71.3281 16.4219 71.1198 16.5885 70.8594 16.7344C70.599 16.875 70.25 16.9844 69.8125 17.0625C69.3802 17.1458 68.8099 17.1875 68.1016 17.1875C67.1589 17.1875 66.3542 17.138 65.6875 17.0391C65.0208 16.9453 64.4766 16.7995 64.0547 16.6016C63.6328 16.3984 63.3229 16.1406 63.125 15.8281C62.9323 15.5156 62.8359 15.1432 62.8359 14.7109C62.8359 14.2578 62.888 13.875 62.9922 13.5625C63.1016 13.2448 63.2578 12.9792 63.4609 12.7656C63.6693 12.5521 63.9193 12.3854 64.2109 12.2656C64.5026 12.1458 64.8333 12.0547 65.2031 11.9922C65.5781 11.9297 65.987 11.8906 66.4297 11.875C66.8724 11.8594 67.3438 11.8516 67.8438 11.8516C68.5573 11.8516 69.1536 11.8828 69.6328 11.9453C70.112 12.0026 70.5026 12.0781 70.8047 12.1719C71.112 12.2604 71.3438 12.3568 71.5 12.4609C71.6562 12.5651 71.7682 12.6615 71.8359 12.75C71.8359 12.1667 71.8099 11.6693 71.7578 11.2578C71.7109 10.8464 71.6302 10.5026 71.5156 10.2266C71.4062 9.95052 71.263 9.73177 71.0859 9.57031C70.9089 9.40365 70.6901 9.27865 70.4297 9.19531C70.1745 9.11198 69.875 9.0599 69.5312 9.03906C69.1875 9.01302 68.7943 9 68.3516 9C67.6641 9 67.0938 9.01823 66.6406 9.05469C66.1875 9.08594 65.8281 9.15104 65.5625 9.25C65.2969 9.34896 65.1094 9.48698 65 9.66406C64.8906 9.83594 64.8359 10.0625 64.8359 10.3438H63.3359C63.3359 9.86979 63.4193 9.46875 63.5859 9.14062C63.7578 8.8125 64.0391 8.54688 64.4297 8.34375C64.8255 8.13542 65.3438 7.98438 65.9844 7.89062C66.625 7.79688 67.4141 7.75 68.3516 7.75C69.2682 7.75 70.0443 7.82552 70.6797 7.97656C71.3151 8.1276 71.8281 8.39323 72.2188 8.77344C72.6146 9.15365 72.8984 9.66667 73.0703 10.3125C73.2474 10.9531 73.3359 11.7656 73.3359 12.75V17H71.8359V15.7656ZM68.3516 16C69.013 16 69.5651 15.9688 70.0078 15.9062C70.4557 15.8438 70.8151 15.75 71.0859 15.625C71.3568 15.5 71.5495 15.3438 71.6641 15.1562C71.7786 14.9688 71.8359 14.75 71.8359 14.5C71.8359 14.25 71.7682 14.0391 71.6328 13.8672C71.5026 13.6901 71.2812 13.5469 70.9688 13.4375C70.6615 13.3281 70.2526 13.25 69.7422 13.2031C69.2318 13.151 68.6016 13.125 67.8516 13.125C67.1016 13.125 66.4948 13.138 66.0312 13.1641C65.5729 13.1901 65.2188 13.25 64.9688 13.3438C64.7188 13.4375 64.5495 13.5755 64.4609 13.7578C64.3776 13.9401 64.3359 14.1875 64.3359 14.5C64.3359 14.8125 64.3802 15.0677 64.4688 15.2656C64.5625 15.4583 64.75 15.6094 65.0312 15.7188C65.3125 15.8281 65.7161 15.9036 66.2422 15.9453C66.7734 15.9818 67.4766 16 68.3516 16ZM80.5938 7.75C81.3021 7.75 81.8958 7.78906 82.375 7.86719C82.8542 7.94531 83.2448 8.04427 83.5469 8.16406C83.8542 8.27865 84.0859 8.40365 84.2422 8.53906C84.4036 8.67448 84.5208 8.79948 84.5938 8.91406V8H86.0938V20H84.5938V16C84.5208 16.1198 84.4036 16.2474 84.2422 16.3828C84.0859 16.5182 83.8542 16.6458 83.5469 16.7656C83.2448 16.8802 82.8542 16.9766 82.375 17.0547C81.8958 17.1328 81.3021 17.1719 80.5938 17.1719C79.5938 17.1719 78.7448 17.099 78.0469 16.9531C77.349 16.8021 76.7812 16.5469 76.3438 16.1875C75.9062 15.8281 75.5885 15.3438 75.3906 14.7344C75.1927 14.125 75.0938 13.3594 75.0938 12.4375C75.0938 11.5156 75.1927 10.7526 75.3906 10.1484C75.5885 9.54427 75.9062 9.0651 76.3438 8.71094C76.7812 8.35677 77.349 8.10938 78.0469 7.96875C78.7448 7.82292 79.5938 7.75 80.5938 7.75ZM80.5938 9C80.0104 9 79.5052 9.01562 79.0781 9.04688C78.6562 9.07812 78.2969 9.13802 78 9.22656C77.7031 9.3151 77.4609 9.4375 77.2734 9.59375C77.0911 9.75 76.9479 9.95573 76.8438 10.2109C76.7448 10.4661 76.6771 10.776 76.6406 11.1406C76.6094 11.5052 76.5938 11.9375 76.5938 12.4375C76.5938 12.9375 76.6094 13.3724 76.6406 13.7422C76.6771 14.112 76.7448 14.4297 76.8438 14.6953C76.9479 14.9609 77.0911 15.1771 77.2734 15.3438C77.4609 15.5104 77.7031 15.6432 78 15.7422C78.2969 15.8411 78.6562 15.9089 79.0781 15.9453C79.5052 15.9818 80.0104 16 80.5938 16C81.0938 16 81.5391 15.9896 81.9297 15.9688C82.3203 15.9427 82.6641 15.888 82.9609 15.8047C83.2578 15.7214 83.5078 15.6016 83.7109 15.4453C83.9193 15.2891 84.0885 15.0781 84.2188 14.8125C84.349 14.5469 84.4427 14.2188 84.5 13.8281C84.5625 13.4375 84.5938 12.9661 84.5938 12.4141C84.5938 11.8724 84.5625 11.4115 84.5 11.0312C84.4427 10.651 84.349 10.3359 84.2188 10.0859C84.0885 9.83073 83.9193 9.63021 83.7109 9.48438C83.5078 9.33854 83.2578 9.23177 82.9609 9.16406C82.6641 9.09115 82.3203 9.04688 81.9297 9.03125C81.5391 9.01042 81.0938 9 80.5938 9ZM93.3438 12.8984C92.6354 12.8984 92.013 12.888 91.4766 12.8672C90.9401 12.8464 90.4766 12.8047 90.0859 12.7422C89.7005 12.6745 89.3776 12.5807 89.1172 12.4609C88.862 12.3411 88.6589 12.1823 88.5078 11.9844C88.3568 11.7812 88.25 11.5339 88.1875 11.2422C88.125 10.9453 88.0938 10.625 88.0938 10.2812C88.0938 9.8125 88.1927 9.41927 88.3906 9.10156C88.5885 8.77865 88.9062 8.51823 89.3438 8.32031C89.7812 8.11719 90.349 7.97135 91.0469 7.88281C91.7448 7.79427 92.5938 7.75 93.5938 7.75C94.5833 7.75 95.3984 7.80208 96.0391 7.90625C96.6849 8.01042 97.1953 8.17188 97.5703 8.39062C97.9505 8.60417 98.2161 8.875 98.3672 9.20312C98.5182 9.53125 98.5938 9.92188 98.5938 10.375H97.0938C97.0938 10.0938 97.0391 9.86458 96.9297 9.6875C96.8255 9.51042 96.6406 9.3724 96.375 9.27344C96.1094 9.16927 95.75 9.09896 95.2969 9.0625C94.849 9.02083 94.2812 9 93.5938 9C92.8438 9 92.2135 9.01042 91.7031 9.03125C91.1927 9.05208 90.7812 9.10417 90.4688 9.1875C90.1562 9.27083 89.9323 9.39844 89.7969 9.57031C89.6615 9.74219 89.5938 9.97917 89.5938 10.2812C89.5938 10.4583 89.6042 10.6328 89.625 10.8047C89.651 10.9714 89.7057 11.1094 89.7891 11.2188C89.8724 11.3281 89.9948 11.4115 90.1562 11.4688C90.3177 11.526 90.5365 11.5703 90.8125 11.6016C91.0938 11.6276 91.4401 11.6432 91.8516 11.6484C92.263 11.6484 92.7604 11.6484 93.3438 11.6484C94.0521 11.6484 94.6719 11.6641 95.2031 11.6953C95.7396 11.7266 96.2031 11.7812 96.5938 11.8594C96.9844 11.9375 97.3073 12.0573 97.5625 12.2188C97.8177 12.3802 98.0208 12.5573 98.1719 12.75C98.3281 12.9375 98.4375 13.1615 98.5 13.4219C98.5625 13.6771 98.5938 13.974 98.5938 14.3125C98.5938 14.651 98.5625 14.9557 98.5 15.2266C98.4375 15.4922 98.3281 15.7292 98.1719 15.9375C98.0156 16.1406 97.8021 16.3177 97.5312 16.4688C97.2656 16.6146 96.9297 16.7344 96.5234 16.8281C96.1172 16.9167 95.6302 16.9818 95.0625 17.0234C94.5 17.0703 93.8438 17.0938 93.0938 17.0938C92.1562 17.0938 91.3672 17.0469 90.7266 16.9531C90.0911 16.8594 89.5781 16.7109 89.1875 16.5078C88.7969 16.2995 88.5156 16.0312 88.3438 15.7031C88.1771 15.375 88.0938 14.974 88.0938 14.5H89.5938C89.5938 14.8125 89.6458 15.0677 89.75 15.2656C89.8594 15.4583 90.0469 15.6094 90.3125 15.7188C90.5781 15.8281 90.9349 15.9036 91.3828 15.9453C91.8359 15.9818 92.4062 16 93.0938 16C93.7188 16 94.25 15.987 94.6875 15.9609C95.1302 15.9297 95.5 15.8828 95.7969 15.8203C96.0938 15.7578 96.3281 15.6823 96.5 15.5938C96.6719 15.5052 96.8021 15.3984 96.8906 15.2734C96.9792 15.1484 97.0339 15.0104 97.0547 14.8594C97.0807 14.7031 97.0938 14.5312 97.0938 14.3438C97.0938 14.1719 97.0807 14.0208 97.0547 13.8906C97.0339 13.7552 96.9818 13.6224 96.8984 13.4922C96.8151 13.3568 96.6927 13.2552 96.5312 13.1875C96.3698 13.1198 96.1484 13.0651 95.8672 13.0234C95.5911 12.9766 95.2474 12.9453 94.8359 12.9297C94.4245 12.9089 93.9271 12.8984 93.3438 12.8984ZM109.555 15.7656C109.539 15.8281 109.422 15.9844 109.203 16.2344C109.047 16.4219 108.839 16.5885 108.578 16.7344C108.318 16.875 107.969 16.9844 107.531 17.0625C107.099 17.1458 106.529 17.1875 105.82 17.1875C104.878 17.1875 104.073 17.138 103.406 17.0391C102.74 16.9453 102.195 16.7995 101.773 16.6016C101.352 16.3984 101.042 16.1406 100.844 15.8281C100.651 15.5156 100.555 15.1432 100.555 14.7109C100.555 14.2578 100.607 13.875 100.711 13.5625C100.82 13.2448 100.977 12.9792 101.18 12.7656C101.388 12.5521 101.638 12.3854 101.93 12.2656C102.221 12.1458 102.552 12.0547 102.922 11.9922C103.297 11.9297 103.706 11.8906 104.148 11.875C104.591 11.8594 105.062 11.8516 105.562 11.8516C106.276 11.8516 106.872 11.8828 107.352 11.9453C107.831 12.0026 108.221 12.0781 108.523 12.1719C108.831 12.2604 109.062 12.3568 109.219 12.4609C109.375 12.5651 109.487 12.6615 109.555 12.75C109.555 12.1667 109.529 11.6693 109.477 11.2578C109.43 10.8464 109.349 10.5026 109.234 10.2266C109.125 9.95052 108.982 9.73177 108.805 9.57031C108.628 9.40365 108.409 9.27865 108.148 9.19531C107.893 9.11198 107.594 9.0599 107.25 9.03906C106.906 9.01302 106.513 9 106.07 9C105.383 9 104.812 9.01823 104.359 9.05469C103.906 9.08594 103.547 9.15104 103.281 9.25C103.016 9.34896 102.828 9.48698 102.719 9.66406C102.609 9.83594 102.555 10.0625 102.555 10.3438H101.055C101.055 9.86979 101.138 9.46875 101.305 9.14062C101.477 8.8125 101.758 8.54688 102.148 8.34375C102.544 8.13542 103.062 7.98438 103.703 7.89062C104.344 7.79688 105.133 7.75 106.07 7.75C106.987 7.75 107.763 7.82552 108.398 7.97656C109.034 8.1276 109.547 8.39323 109.938 8.77344C110.333 9.15365 110.617 9.66667 110.789 10.3125C110.966 10.9531 111.055 11.7656 111.055 12.75V17H109.555V15.7656ZM106.07 16C106.732 16 107.284 15.9688 107.727 15.9062C108.174 15.8438 108.534 15.75 108.805 15.625C109.076 15.5 109.268 15.3438 109.383 15.1562C109.497 14.9688 109.555 14.75 109.555 14.5C109.555 14.25 109.487 14.0391 109.352 13.8672C109.221 13.6901 109 13.5469 108.688 13.4375C108.38 13.3281 107.971 13.25 107.461 13.2031C106.951 13.151 106.32 13.125 105.57 13.125C104.82 13.125 104.214 13.138 103.75 13.1641C103.292 13.1901 102.938 13.25 102.688 13.3438C102.438 13.4375 102.268 13.5755 102.18 13.7578C102.096 13.9401 102.055 14.1875 102.055 14.5C102.055 14.8125 102.099 15.0677 102.188 15.2656C102.281 15.4583 102.469 15.6094 102.75 15.7188C103.031 15.8281 103.435 15.9036 103.961 15.9453C104.492 15.9818 105.195 16 106.07 16ZM118.312 17.1719C117.312 17.1719 116.464 17.099 115.766 16.9531C115.068 16.8073 114.5 16.5573 114.062 16.2031C113.625 15.849 113.307 15.3724 113.109 14.7734C112.911 14.1745 112.812 13.4219 112.812 12.5156C112.812 11.5781 112.911 10.8021 113.109 10.1875C113.307 9.57292 113.625 9.08594 114.062 8.72656C114.5 8.36719 115.068 8.11458 115.766 7.96875C116.464 7.82292 117.312 7.75 118.312 7.75C119.021 7.75 119.615 7.78646 120.094 7.85938C120.573 7.93229 120.964 8.02344 121.266 8.13281C121.573 8.24219 121.805 8.36198 121.961 8.49219C122.122 8.61719 122.24 8.73438 122.312 8.84375V5H123.812V17H122.312V15.6641C122.312 15.6641 122.188 15.8125 121.938 16.1094C121.719 16.3229 121.477 16.4948 121.211 16.625C120.945 16.7552 120.573 16.8802 120.094 17C119.615 17.1146 119.021 17.1719 118.312 17.1719ZM118.312 16C118.812 16 119.258 15.9896 119.648 15.9688C120.039 15.9427 120.383 15.8906 120.68 15.8125C120.977 15.7344 121.227 15.6198 121.43 15.4688C121.638 15.3125 121.807 15.1068 121.938 14.8516C122.068 14.5964 122.161 14.2812 122.219 13.9062C122.281 13.526 122.312 13.0703 122.312 12.5391C122.312 11.987 122.281 11.5182 122.219 11.1328C122.161 10.7422 122.068 10.4167 121.938 10.1562C121.807 9.89062 121.638 9.68229 121.43 9.53125C121.227 9.38021 120.977 9.26562 120.68 9.1875C120.383 9.10417 120.039 9.05208 119.648 9.03125C119.258 9.01042 118.812 9 118.312 9C117.729 9 117.224 9.01823 116.797 9.05469C116.375 9.09115 116.016 9.15625 115.719 9.25C115.422 9.34375 115.18 9.47396 114.992 9.64062C114.81 9.80729 114.667 10.0208 114.562 10.2812C114.464 10.5417 114.396 10.8568 114.359 11.2266C114.328 11.5911 114.312 12.0208 114.312 12.5156C114.312 13.0052 114.328 13.4323 114.359 13.7969C114.396 14.1562 114.464 14.4661 114.562 14.7266C114.667 14.9818 114.81 15.1927 114.992 15.3594C115.18 15.526 115.422 15.6562 115.719 15.75C116.016 15.8438 116.375 15.9089 116.797 15.9453C117.224 15.9818 117.729 16 118.312 16ZM126.312 8H127.812V17H126.312V8ZM127.812 6.5H126.312V5H127.812V6.5ZM139.812 17H138.312V11.9219C138.312 11.3802 138.276 10.9245 138.203 10.5547C138.135 10.1797 137.992 9.8776 137.773 9.64844C137.56 9.41927 137.255 9.25521 136.859 9.15625C136.469 9.05208 135.953 9 135.312 9C134.609 9 134.031 9.0599 133.578 9.17969C133.125 9.29427 132.768 9.45833 132.508 9.67188C132.247 9.88021 132.065 10.1328 131.961 10.4297C131.862 10.7266 131.812 11.0573 131.812 11.4219V17H130.312V8H131.812V9.42188C131.818 9.40625 131.841 9.35417 131.883 9.26562C131.924 9.17708 131.997 9.07292 132.102 8.95312C132.211 8.82812 132.357 8.69531 132.539 8.55469C132.727 8.41406 132.966 8.28385 133.258 8.16406C133.555 8.04427 133.911 7.94531 134.328 7.86719C134.745 7.78906 135.24 7.75 135.812 7.75C136.375 7.75 136.862 7.78646 137.273 7.85938C137.69 7.92708 138.044 8.03125 138.336 8.17188C138.633 8.30729 138.872 8.47917 139.055 8.6875C139.242 8.89062 139.391 9.125 139.5 9.39062C139.589 9.25 139.727 9.08594 139.914 8.89844C140.102 8.71094 140.362 8.53125 140.695 8.35938C141.034 8.1875 141.456 8.04427 141.961 7.92969C142.466 7.8099 143.083 7.75 143.812 7.75C144.411 7.75 144.924 7.79167 145.352 7.875C145.784 7.95312 146.148 8.07292 146.445 8.23438C146.742 8.39062 146.979 8.58594 147.156 8.82031C147.339 9.05469 147.477 9.32812 147.57 9.64062C147.669 9.94792 147.734 10.2943 147.766 10.6797C147.797 11.0599 147.812 11.474 147.812 11.9219V17H146.312V11.9219C146.312 11.3802 146.276 10.9245 146.203 10.5547C146.135 10.1797 145.992 9.8776 145.773 9.64844C145.56 9.41927 145.255 9.25521 144.859 9.15625C144.469 9.05208 143.953 9 143.312 9C142.609 9 142.031 9.0599 141.578 9.17969C141.125 9.29427 140.768 9.45833 140.508 9.67188C140.247 9.88021 140.065 10.1328 139.961 10.4297C139.862 10.7266 139.812 11.0573 139.812 11.4219V17ZM150.312 8H151.812V17H150.312V8ZM151.812 6.5H150.312V5H151.812V6.5ZM154.812 8H163.812V9.25L156.297 15.8828H163.812V17H154.312V15.75L161.938 9.10156H154.812V8Z" fill="#56585E"/>
</svg>
