<svg width="162" height="20" viewBox="0 0 162 20" fill="none" xmlns="http://www.w3.org/2000/svg">
<circle cx="10" cy="10" r="10" fill="#184AFB"/>
<path d="M41.5 5H50.5156C51.2604 5 51.888 5.03385 52.3984 5.10156C52.9141 5.16406 53.3385 5.26042 53.6719 5.39062C54.0052 5.52083 54.2604 5.68229 54.4375 5.875C54.6198 6.06771 54.7526 6.29427 54.8359 6.55469C54.9193 6.8151 54.9661 7.10677 54.9766 7.42969C54.9922 7.7526 55 8.10938 55 8.5C55 8.90625 54.9896 9.28125 54.9688 9.625C54.9531 9.96875 54.8932 10.2812 54.7891 10.5625C54.6901 10.8385 54.5286 11.0833 54.3047 11.2969C54.0859 11.5052 53.7708 11.6797 53.3594 11.8203C52.9531 11.9609 52.4349 12.0677 51.8047 12.1406C51.1797 12.2135 50.4089 12.25 49.4922 12.25H43V17H41.5V5ZM43 11H49.4922C50.1589 11 50.7188 10.9896 51.1719 10.9688C51.6302 10.9427 52.0078 10.8984 52.3047 10.8359C52.6016 10.7734 52.8307 10.6849 52.9922 10.5703C53.1536 10.4557 53.2708 10.3047 53.3438 10.1172C53.4219 9.92969 53.4661 9.70573 53.4766 9.44531C53.4922 9.17969 53.5 8.86458 53.5 8.5C53.5 8.16146 53.4922 7.86979 53.4766 7.625C53.4661 7.38021 53.4219 7.17448 53.3438 7.00781C53.2708 6.84115 53.1536 6.70833 52.9922 6.60938C52.8307 6.51042 52.6016 6.4349 52.3047 6.38281C52.0078 6.32552 51.6302 6.28906 51.1719 6.27344C50.7188 6.25781 50.1589 6.25 49.4922 6.25H43V11ZM64.9609 15.7656C64.9453 15.8281 64.8281 15.9844 64.6094 16.2344C64.4531 16.4219 64.2448 16.5885 63.9844 16.7344C63.724 16.875 63.375 16.9844 62.9375 17.0625C62.5052 17.1458 61.9349 17.1875 61.2266 17.1875C60.2839 17.1875 59.4792 17.138 58.8125 17.0391C58.1458 16.9453 57.6016 16.7995 57.1797 16.6016C56.7578 16.3984 56.4479 16.1406 56.25 15.8281C56.0573 15.5156 55.9609 15.1432 55.9609 14.7109C55.9609 14.2578 56.013 13.875 56.1172 13.5625C56.2266 13.2448 56.3828 12.9792 56.5859 12.7656C56.7943 12.5521 57.0443 12.3854 57.3359 12.2656C57.6276 12.1458 57.9583 12.0547 58.3281 11.9922C58.7031 11.9297 59.112 11.8906 59.5547 11.875C59.9974 11.8594 60.4688 11.8516 60.9688 11.8516C61.6823 11.8516 62.2786 11.8828 62.7578 11.9453C63.237 12.0026 63.6276 12.0781 63.9297 12.1719C64.237 12.2604 64.4688 12.3568 64.625 12.4609C64.7812 12.5651 64.8932 12.6615 64.9609 12.75C64.9609 12.1667 64.9349 11.6693 64.8828 11.2578C64.8359 10.8464 64.7552 10.5026 64.6406 10.2266C64.5312 9.95052 64.388 9.73177 64.2109 9.57031C64.0339 9.40365 63.8151 9.27865 63.5547 9.19531C63.2995 9.11198 63 9.0599 62.6562 9.03906C62.3125 9.01302 61.9193 9 61.4766 9C60.7891 9 60.2188 9.01823 59.7656 9.05469C59.3125 9.08594 58.9531 9.15104 58.6875 9.25C58.4219 9.34896 58.2344 9.48698 58.125 9.66406C58.0156 9.83594 57.9609 10.0625 57.9609 10.3438H56.4609C56.4609 9.86979 56.5443 9.46875 56.7109 9.14062C56.8828 8.8125 57.1641 8.54688 57.5547 8.34375C57.9505 8.13542 58.4688 7.98438 59.1094 7.89062C59.75 7.79688 60.5391 7.75 61.4766 7.75C62.3932 7.75 63.1693 7.82552 63.8047 7.97656C64.4401 8.1276 64.9531 8.39323 65.3438 8.77344C65.7396 9.15365 66.0234 9.66667 66.1953 10.3125C66.3724 10.9531 66.4609 11.7656 66.4609 12.75V17H64.9609V15.7656ZM61.4766 16C62.138 16 62.6901 15.9688 63.1328 15.9062C63.5807 15.8438 63.9401 15.75 64.2109 15.625C64.4818 15.5 64.6745 15.3438 64.7891 15.1562C64.9036 14.9688 64.9609 14.75 64.9609 14.5C64.9609 14.25 64.8932 14.0391 64.7578 13.8672C64.6276 13.6901 64.4062 13.5469 64.0938 13.4375C63.7865 13.3281 63.3776 13.25 62.8672 13.2031C62.3568 13.151 61.7266 13.125 60.9766 13.125C60.2266 13.125 59.6198 13.138 59.1562 13.1641C58.6979 13.1901 58.3438 13.25 58.0938 13.3438C57.8438 13.4375 57.6745 13.5755 57.5859 13.7578C57.5026 13.9401 57.4609 14.1875 57.4609 14.5C57.4609 14.8125 57.5052 15.0677 57.5938 15.2656C57.6875 15.4583 57.875 15.6094 58.1562 15.7188C58.4375 15.8281 58.8411 15.9036 59.3672 15.9453C59.8984 15.9818 60.6016 16 61.4766 16ZM76.2188 10.9297C76.2188 10.5547 76.1901 10.2448 76.1328 10C76.0807 9.75 75.9531 9.55208 75.75 9.40625C75.5469 9.25521 75.2448 9.15104 74.8438 9.09375C74.4479 9.03125 73.9062 9 73.2188 9C72.5469 9 72 9.0599 71.5781 9.17969C71.1562 9.29427 70.8255 9.45833 70.5859 9.67188C70.3464 9.88542 70.1823 10.1406 70.0938 10.4375C70.0104 10.7344 69.9688 11.0651 69.9688 11.4297V17H68.4688V8H69.9688V9.42969C70.0208 9.26823 70.1172 9.09115 70.2578 8.89844C70.3984 8.70052 70.612 8.51823 70.8984 8.35156C71.1849 8.17969 71.5547 8.03646 72.0078 7.92188C72.4661 7.80729 73.0365 7.75 73.7188 7.75C74.5 7.75 75.1354 7.82031 75.625 7.96094C76.1146 8.09635 76.4948 8.29948 76.7656 8.57031C77.0417 8.83594 77.2266 9.16667 77.3203 9.5625C77.4193 9.95833 77.4688 10.4141 77.4688 10.9297H76.2188ZM87.2188 13C87.2188 13.7656 87.1562 14.4062 87.0312 14.9219C86.9062 15.4323 86.6953 15.8411 86.3984 16.1484C86.1068 16.4557 85.7214 16.6745 85.2422 16.8047C84.763 16.9349 84.1719 17 83.4688 17C82.7865 17 82.2135 16.9479 81.75 16.8438C81.2865 16.7396 80.9115 16.5625 80.625 16.3125C80.3385 16.0625 80.1328 15.7292 80.0078 15.3125C79.8828 14.8958 79.8203 14.375 79.8203 13.75V9.23438H77.9688V8H79.8203V5.53906H81.3203V8H86.9688V9.23438H81.3203V13.75C81.3203 14.25 81.3568 14.6354 81.4297 14.9062C81.5078 15.1771 81.6302 15.375 81.7969 15.5C81.9635 15.625 82.1823 15.6979 82.4531 15.7188C82.7292 15.7396 83.0651 15.75 83.4609 15.75C83.7734 15.75 84.0521 15.7448 84.2969 15.7344C84.5469 15.724 84.763 15.6927 84.9453 15.6406C85.1328 15.5833 85.2917 15.5 85.4219 15.3906C85.5521 15.276 85.6562 15.1172 85.7344 14.9141C85.8177 14.7109 85.8776 14.4557 85.9141 14.1484C85.9505 13.8359 85.9688 13.4531 85.9688 13H87.2188ZM98.2188 17V12C98.2188 11.4427 98.1771 10.974 98.0938 10.5938C98.0104 10.2083 97.8438 9.89844 97.5938 9.66406C97.3438 9.42969 96.9896 9.26042 96.5312 9.15625C96.0729 9.05208 95.4688 9 94.7188 9C93.9062 9 93.2396 9.0599 92.7188 9.17969C92.2031 9.29948 91.7969 9.46875 91.5 9.6875C91.2031 9.90625 90.9974 10.1693 90.8828 10.4766C90.7734 10.7839 90.7188 11.125 90.7188 11.5V17H89.2188V8H90.7188V9.5C90.8281 9.24479 90.9844 9.02604 91.1875 8.84375C91.3906 8.65625 91.6198 8.4974 91.875 8.36719C92.1302 8.23698 92.4062 8.13281 92.7031 8.05469C93 7.97135 93.2969 7.90885 93.5938 7.86719C93.8906 7.82031 94.1771 7.78906 94.4531 7.77344C94.7344 7.75781 94.9896 7.75 95.2188 7.75C95.8854 7.75 96.4583 7.79167 96.9375 7.875C97.4219 7.95833 97.8307 8.08073 98.1641 8.24219C98.5026 8.40365 98.7734 8.60417 98.9766 8.84375C99.1797 9.08333 99.3359 9.36198 99.4453 9.67969C99.5599 9.99219 99.6354 10.3438 99.6719 10.7344C99.7083 11.1198 99.7266 11.5417 99.7266 12L99.7188 17H98.2188ZM105.484 17L100.734 8H102.484L106.484 16L110.234 8H111.984L107.484 17L107.234 17.5C107.109 17.75 106.984 17.9844 106.859 18.2031C106.74 18.4271 106.602 18.6302 106.445 18.8125C106.289 19 106.104 19.1667 105.891 19.3125C105.677 19.4583 105.414 19.5807 105.102 19.6797C104.794 19.7839 104.427 19.862 104 19.9141C103.573 19.9714 103.068 20 102.484 20V18.75C102.984 18.75 103.406 18.7292 103.75 18.6875C104.094 18.651 104.38 18.5938 104.609 18.5156C104.844 18.4427 105.031 18.3542 105.172 18.25C105.312 18.1458 105.43 18.0286 105.523 17.8984C105.617 17.7682 105.695 17.6276 105.758 17.4766C105.826 17.3255 105.901 17.1667 105.984 17H105.484ZM112.734 12.4375C112.734 11.5156 112.833 10.7526 113.031 10.1484C113.229 9.54427 113.547 9.0651 113.984 8.71094C114.422 8.35677 114.99 8.10938 115.688 7.96875C116.385 7.82292 117.234 7.75 118.234 7.75C119.234 7.75 120.083 7.82292 120.781 7.96875C121.479 8.10938 122.047 8.35677 122.484 8.71094C122.922 9.0651 123.24 9.54427 123.438 10.1484C123.635 10.7526 123.734 11.5156 123.734 12.4375C123.734 13.3594 123.635 14.125 123.438 14.7344C123.24 15.3438 122.922 15.8281 122.484 16.1875C122.047 16.5469 121.479 16.8021 120.781 16.9531C120.083 17.099 119.234 17.1719 118.234 17.1719C117.234 17.1719 116.385 17.099 115.688 16.9531C114.99 16.8021 114.422 16.5469 113.984 16.1875C113.547 15.8281 113.229 15.3438 113.031 14.7344C112.833 14.125 112.734 13.3594 112.734 12.4375ZM114.234 12.4375C114.234 12.9375 114.253 13.3724 114.289 13.7422C114.326 14.112 114.393 14.4297 114.492 14.6953C114.596 14.9609 114.74 15.1771 114.922 15.3438C115.104 15.5104 115.344 15.6432 115.641 15.7422C115.938 15.8411 116.297 15.9089 116.719 15.9453C117.146 15.9818 117.651 16 118.234 16C118.734 16 119.18 15.9896 119.57 15.9688C119.966 15.9427 120.31 15.888 120.602 15.8047C120.898 15.7214 121.151 15.6042 121.359 15.4531C121.568 15.2969 121.734 15.0859 121.859 14.8203C121.99 14.5547 122.083 14.2292 122.141 13.8438C122.203 13.4531 122.234 12.9844 122.234 12.4375C122.234 11.901 122.203 11.4453 122.141 11.0703C122.083 10.6901 121.99 10.3724 121.859 10.1172C121.734 9.86198 121.568 9.66146 121.359 9.51562C121.151 9.36458 120.898 9.2526 120.602 9.17969C120.31 9.10156 119.966 9.05208 119.57 9.03125C119.18 9.01042 118.734 9 118.234 9C117.734 9 117.286 9.01042 116.891 9.03125C116.5 9.05208 116.156 9.10156 115.859 9.17969C115.568 9.2526 115.318 9.36458 115.109 9.51562C114.901 9.66146 114.732 9.86198 114.602 10.1172C114.477 10.3724 114.383 10.6901 114.32 11.0703C114.263 11.4453 114.234 11.901 114.234 12.4375ZM133.234 10.9297C133.234 10.5547 133.206 10.2448 133.148 10C133.096 9.75 132.969 9.55208 132.766 9.40625C132.562 9.25521 132.26 9.15104 131.859 9.09375C131.464 9.03125 130.922 9 130.234 9C129.562 9 129.016 9.0599 128.594 9.17969C128.172 9.29427 127.841 9.45833 127.602 9.67188C127.362 9.88542 127.198 10.1406 127.109 10.4375C127.026 10.7344 126.984 11.0651 126.984 11.4297V17H125.484V8H126.984V9.42969C127.036 9.26823 127.133 9.09115 127.273 8.89844C127.414 8.70052 127.628 8.51823 127.914 8.35156C128.201 8.17969 128.57 8.03646 129.023 7.92188C129.482 7.80729 130.052 7.75 130.734 7.75C131.516 7.75 132.151 7.82031 132.641 7.96094C133.13 8.09635 133.51 8.29948 133.781 8.57031C134.057 8.83594 134.242 9.16667 134.336 9.5625C134.435 9.95833 134.484 10.4141 134.484 10.9297H133.234ZM135.984 5H137.484V17H135.984V5ZM148.945 15.7656C148.93 15.8281 148.812 15.9844 148.594 16.2344C148.438 16.4219 148.229 16.5885 147.969 16.7344C147.708 16.875 147.359 16.9844 146.922 17.0625C146.49 17.1458 145.919 17.1875 145.211 17.1875C144.268 17.1875 143.464 17.138 142.797 17.0391C142.13 16.9453 141.586 16.7995 141.164 16.6016C140.742 16.3984 140.432 16.1406 140.234 15.8281C140.042 15.5156 139.945 15.1432 139.945 14.7109C139.945 14.2578 139.997 13.875 140.102 13.5625C140.211 13.2448 140.367 12.9792 140.57 12.7656C140.779 12.5521 141.029 12.3854 141.32 12.2656C141.612 12.1458 141.943 12.0547 142.312 11.9922C142.688 11.9297 143.096 11.8906 143.539 11.875C143.982 11.8594 144.453 11.8516 144.953 11.8516C145.667 11.8516 146.263 11.8828 146.742 11.9453C147.221 12.0026 147.612 12.0781 147.914 12.1719C148.221 12.2604 148.453 12.3568 148.609 12.4609C148.766 12.5651 148.878 12.6615 148.945 12.75C148.945 12.1667 148.919 11.6693 148.867 11.2578C148.82 10.8464 148.74 10.5026 148.625 10.2266C148.516 9.95052 148.372 9.73177 148.195 9.57031C148.018 9.40365 147.799 9.27865 147.539 9.19531C147.284 9.11198 146.984 9.0599 146.641 9.03906C146.297 9.01302 145.904 9 145.461 9C144.773 9 144.203 9.01823 143.75 9.05469C143.297 9.08594 142.938 9.15104 142.672 9.25C142.406 9.34896 142.219 9.48698 142.109 9.66406C142 9.83594 141.945 10.0625 141.945 10.3438H140.445C140.445 9.86979 140.529 9.46875 140.695 9.14062C140.867 8.8125 141.148 8.54688 141.539 8.34375C141.935 8.13542 142.453 7.98438 143.094 7.89062C143.734 7.79688 144.523 7.75 145.461 7.75C146.378 7.75 147.154 7.82552 147.789 7.97656C148.424 8.1276 148.938 8.39323 149.328 8.77344C149.724 9.15365 150.008 9.66667 150.18 10.3125C150.357 10.9531 150.445 11.7656 150.445 12.75V17H148.945V15.7656ZM145.461 16C146.122 16 146.674 15.9688 147.117 15.9062C147.565 15.8438 147.924 15.75 148.195 15.625C148.466 15.5 148.659 15.3438 148.773 15.1562C148.888 14.9688 148.945 14.75 148.945 14.5C148.945 14.25 148.878 14.0391 148.742 13.8672C148.612 13.6901 148.391 13.5469 148.078 13.4375C147.771 13.3281 147.362 13.25 146.852 13.2031C146.341 13.151 145.711 13.125 144.961 13.125C144.211 13.125 143.604 13.138 143.141 13.1641C142.682 13.1901 142.328 13.25 142.078 13.3438C141.828 13.4375 141.659 13.5755 141.57 13.7578C141.487 13.9401 141.445 14.1875 141.445 14.5C141.445 14.8125 141.49 15.0677 141.578 15.2656C141.672 15.4583 141.859 15.6094 142.141 15.7188C142.422 15.8281 142.826 15.9036 143.352 15.9453C143.883 15.9818 144.586 16 145.461 16ZM160.203 10.9297C160.203 10.5547 160.174 10.2448 160.117 10C160.065 9.75 159.938 9.55208 159.734 9.40625C159.531 9.25521 159.229 9.15104 158.828 9.09375C158.432 9.03125 157.891 9 157.203 9C156.531 9 155.984 9.0599 155.562 9.17969C155.141 9.29427 154.81 9.45833 154.57 9.67188C154.331 9.88542 154.167 10.1406 154.078 10.4375C153.995 10.7344 153.953 11.0651 153.953 11.4297V17H152.453V8H153.953V9.42969C154.005 9.26823 154.102 9.09115 154.242 8.89844C154.383 8.70052 154.596 8.51823 154.883 8.35156C155.169 8.17969 155.539 8.03646 155.992 7.92188C156.451 7.80729 157.021 7.75 157.703 7.75C158.484 7.75 159.12 7.82031 159.609 7.96094C160.099 8.09635 160.479 8.29948 160.75 8.57031C161.026 8.83594 161.211 9.16667 161.305 9.5625C161.404 9.95833 161.453 10.4141 161.453 10.9297H160.203Z" fill="#56585E"/>
</svg>
