<svg width="106" height="28" viewBox="0 0 106 28" fill="none" xmlns="http://www.w3.org/2000/svg">
<path d="M6.816 14.256C7.22133 14.32 7.58933 14.4853 7.92 14.752C8.26133 15.0187 8.528 15.3493 8.72 15.744C8.92267 16.1387 9.024 16.56 9.024 17.008C9.024 17.5733 8.88 18.0853 8.592 18.544C8.304 18.992 7.88267 19.3493 7.328 19.616C6.784 19.872 6.13867 20 5.392 20H1.232V8.848H5.232C5.98933 8.848 6.63467 8.976 7.168 9.232C7.70133 9.47733 8.10133 9.81333 8.368 10.24C8.63467 10.6667 8.768 11.1467 8.768 11.68C8.768 12.3413 8.58667 12.8907 8.224 13.328C7.872 13.7547 7.40267 14.064 6.816 14.256ZM2.688 13.664H5.136C5.81867 13.664 6.34667 13.504 6.72 13.184C7.09333 12.864 7.28 12.4213 7.28 11.856C7.28 11.2907 7.09333 10.848 6.72 10.528C6.34667 10.208 5.808 10.048 5.104 10.048H2.688V13.664ZM5.264 18.8C5.98933 18.8 6.55467 18.6293 6.96 18.288C7.36533 17.9467 7.568 17.472 7.568 16.864C7.568 16.2453 7.35467 15.76 6.928 15.408C6.50133 15.0453 5.93067 14.864 5.216 14.864H2.688V18.8H5.264ZM10.6605 15.584C10.6605 14.688 10.8418 13.904 11.2045 13.232C11.5672 12.5493 12.0632 12.0213 12.6925 11.648C13.3325 11.2747 14.0418 11.088 14.8205 11.088C15.5885 11.088 16.2552 11.2533 16.8205 11.584C17.3858 11.9147 17.8072 12.3307 18.0845 12.832V11.232H19.5565V20H18.0845V18.368C17.7965 18.88 17.3645 19.3067 16.7885 19.648C16.2232 19.9787 15.5618 20.144 14.8045 20.144C14.0258 20.144 13.3218 19.952 12.6925 19.568C12.0632 19.184 11.5672 18.6453 11.2045 17.952C10.8418 17.2587 10.6605 16.4693 10.6605 15.584ZM18.0845 15.6C18.0845 14.9387 17.9512 14.3627 17.6845 13.872C17.4178 13.3813 17.0552 13.008 16.5965 12.752C16.1485 12.4853 15.6525 12.352 15.1085 12.352C14.5645 12.352 14.0685 12.48 13.6205 12.736C13.1725 12.992 12.8152 13.3653 12.5485 13.856C12.2818 14.3467 12.1485 14.9227 12.1485 15.584C12.1485 16.256 12.2818 16.8427 12.5485 17.344C12.8152 17.8347 13.1725 18.2133 13.6205 18.48C14.0685 18.736 14.5645 18.864 15.1085 18.864C15.6525 18.864 16.1485 18.736 16.5965 18.48C17.0552 18.2133 17.4178 17.8347 17.6845 17.344C17.9512 16.8427 18.0845 16.2613 18.0845 15.6ZM23.953 12.432V17.6C23.953 18.0267 24.0437 18.3307 24.225 18.512C24.4063 18.6827 24.721 18.768 25.169 18.768H26.241V20H24.929C24.1183 20 23.5103 19.8133 23.105 19.44C22.6997 19.0667 22.497 18.4533 22.497 17.6V12.432H21.361V11.232H22.497V9.024H23.953V11.232H26.241V12.432H23.953ZM27.6211 15.584C27.6211 14.688 27.8025 13.904 28.1651 13.232C28.5278 12.5493 29.0238 12.0213 29.6531 11.648C30.2931 11.2747 31.0025 11.088 31.7811 11.088C32.5491 11.088 33.2158 11.2533 33.7811 11.584C34.3465 11.9147 34.7678 12.3307 35.0451 12.832V11.232H36.5171V20H35.0451V18.368C34.7571 18.88 34.3251 19.3067 33.7491 19.648C33.1838 19.9787 32.5225 20.144 31.7651 20.144C30.9865 20.144 30.2825 19.952 29.6531 19.568C29.0238 19.184 28.5278 18.6453 28.1651 17.952C27.8025 17.2587 27.6211 16.4693 27.6211 15.584ZM35.0451 15.6C35.0451 14.9387 34.9118 14.3627 34.6451 13.872C34.3785 13.3813 34.0158 13.008 33.5571 12.752C33.1091 12.4853 32.6131 12.352 32.0691 12.352C31.5251 12.352 31.0291 12.48 30.5811 12.736C30.1331 12.992 29.7758 13.3653 29.5091 13.856C29.2425 14.3467 29.1091 14.9227 29.1091 15.584C29.1091 16.256 29.2425 16.8427 29.5091 17.344C29.7758 17.8347 30.1331 18.2133 30.5811 18.48C31.0291 18.736 31.5251 18.864 32.0691 18.864C32.6131 18.864 33.1091 18.736 33.5571 18.48C34.0158 18.2133 34.3785 17.8347 34.6451 17.344C34.9118 16.8427 35.0451 16.2613 35.0451 15.6ZM42.7056 12.432H40.8656V20H39.4096V12.432H38.2736V11.232H39.4096V10.608C39.4096 9.62667 39.6603 8.912 40.1616 8.464C40.6736 8.00533 41.4896 7.776 42.6096 7.776V8.992C41.9696 8.992 41.5163 9.12 41.2496 9.376C40.9936 9.62133 40.8656 10.032 40.8656 10.608V11.232H42.7056V12.432ZM47.6672 20.144C46.9952 20.144 46.3926 20.032 45.8592 19.808C45.3259 19.5733 44.9046 19.2533 44.5952 18.848C44.2859 18.432 44.1152 17.9573 44.0832 17.424H45.5872C45.6299 17.8613 45.8326 18.2187 46.1952 18.496C46.5686 18.7733 47.0539 18.912 47.6512 18.912C48.2059 18.912 48.6432 18.7893 48.9632 18.544C49.2832 18.2987 49.4432 17.9893 49.4432 17.616C49.4432 17.232 49.2726 16.9493 48.9312 16.768C48.5899 16.576 48.0619 16.3893 47.3472 16.208C46.6966 16.0373 46.1632 15.8667 45.7472 15.696C45.3419 15.5147 44.9899 15.2533 44.6912 14.912C44.4032 14.56 44.2592 14.1013 44.2592 13.536C44.2592 13.088 44.3926 12.6773 44.6592 12.304C44.9259 11.9307 45.3046 11.6373 45.7952 11.424C46.2859 11.2 46.8459 11.088 47.4752 11.088C48.4459 11.088 49.2299 11.3333 49.8272 11.824C50.4246 12.3147 50.7446 12.9867 50.7872 13.84H49.3312C49.2992 13.3813 49.1126 13.0133 48.7712 12.736C48.4406 12.4587 47.9926 12.32 47.4272 12.32C46.9046 12.32 46.4886 12.432 46.1792 12.656C45.8699 12.88 45.7152 13.1733 45.7152 13.536C45.7152 13.824 45.8059 14.064 45.9872 14.256C46.1792 14.4373 46.4139 14.5867 46.6912 14.704C46.9792 14.8107 47.3739 14.9333 47.8752 15.072C48.5046 15.2427 49.0166 15.4133 49.4112 15.584C49.8059 15.744 50.1419 15.9893 50.4192 16.32C50.7072 16.6507 50.8566 17.0827 50.8672 17.616C50.8672 18.096 50.7339 18.528 50.4672 18.912C50.2006 19.296 49.8219 19.6 49.3312 19.824C48.8512 20.0373 48.2966 20.144 47.6672 20.144ZM53.8346 9.808C53.5573 9.808 53.3226 9.712 53.1306 9.52C52.9386 9.328 52.8426 9.09333 52.8426 8.816C52.8426 8.53867 52.9386 8.304 53.1306 8.112C53.3226 7.92 53.5573 7.824 53.8346 7.824C54.1013 7.824 54.3253 7.92 54.5066 8.112C54.6986 8.304 54.7946 8.53867 54.7946 8.816C54.7946 9.09333 54.6986 9.328 54.5066 9.52C54.3253 9.712 54.1013 9.808 53.8346 9.808ZM54.5386 11.232V20H53.0826V11.232H54.5386ZM58.6361 8.16V20H57.1801V8.16H58.6361Z" fill="#184AFB"/>
<path d="M84 14H102M102 14L96 8M102 14L96 20" stroke="#184AFB" stroke-width="1.6"/>
</svg>
