<svg width="97" height="20" viewBox="0 0 97 20" fill="none" xmlns="http://www.w3.org/2000/svg">
<circle cx="10" cy="10" r="10" fill="#184AFB"/>
<path d="M54.5 5V6.25H48.5V17H47V6.25H41V5H54.5ZM61.4609 15.7656C61.4453 15.8281 61.3281 15.9844 61.1094 16.2344C60.9531 16.4219 60.7448 16.5885 60.4844 16.7344C60.224 16.875 59.875 16.9844 59.4375 17.0625C59.0052 17.1458 58.4349 17.1875 57.7266 17.1875C56.7839 17.1875 55.9792 17.138 55.3125 17.0391C54.6458 16.9453 54.1016 16.7995 53.6797 16.6016C53.2578 16.3984 52.9479 16.1406 52.75 15.8281C52.5573 15.5156 52.4609 15.1432 52.4609 14.7109C52.4609 14.2578 52.513 13.875 52.6172 13.5625C52.7266 13.2448 52.8828 12.9792 53.0859 12.7656C53.2943 12.5521 53.5443 12.3854 53.8359 12.2656C54.1276 12.1458 54.4583 12.0547 54.8281 11.9922C55.2031 11.9297 55.612 11.8906 56.0547 11.875C56.4974 11.8594 56.9688 11.8516 57.4688 11.8516C58.1823 11.8516 58.7786 11.8828 59.2578 11.9453C59.737 12.0026 60.1276 12.0781 60.4297 12.1719C60.737 12.2604 60.9688 12.3568 61.125 12.4609C61.2812 12.5651 61.3932 12.6615 61.4609 12.75C61.4609 12.1667 61.4349 11.6693 61.3828 11.2578C61.3359 10.8464 61.2552 10.5026 61.1406 10.2266C61.0312 9.95052 60.888 9.73177 60.7109 9.57031C60.5339 9.40365 60.3151 9.27865 60.0547 9.19531C59.7995 9.11198 59.5 9.0599 59.1562 9.03906C58.8125 9.01302 58.4193 9 57.9766 9C57.2891 9 56.7188 9.01823 56.2656 9.05469C55.8125 9.08594 55.4531 9.15104 55.1875 9.25C54.9219 9.34896 54.7344 9.48698 54.625 9.66406C54.5156 9.83594 54.4609 10.0625 54.4609 10.3438H52.9609C52.9609 9.86979 53.0443 9.46875 53.2109 9.14062C53.3828 8.8125 53.6641 8.54688 54.0547 8.34375C54.4505 8.13542 54.9688 7.98438 55.6094 7.89062C56.25 7.79688 57.0391 7.75 57.9766 7.75C58.8932 7.75 59.6693 7.82552 60.3047 7.97656C60.9401 8.1276 61.4531 8.39323 61.8438 8.77344C62.2396 9.15365 62.5234 9.66667 62.6953 10.3125C62.8724 10.9531 62.9609 11.7656 62.9609 12.75V17H61.4609V15.7656ZM57.9766 16C58.638 16 59.1901 15.9688 59.6328 15.9062C60.0807 15.8438 60.4401 15.75 60.7109 15.625C60.9818 15.5 61.1745 15.3438 61.2891 15.1562C61.4036 14.9688 61.4609 14.75 61.4609 14.5C61.4609 14.25 61.3932 14.0391 61.2578 13.8672C61.1276 13.6901 60.9062 13.5469 60.5938 13.4375C60.2865 13.3281 59.8776 13.25 59.3672 13.2031C58.8568 13.151 58.2266 13.125 57.4766 13.125C56.7266 13.125 56.1198 13.138 55.6562 13.1641C55.1979 13.1901 54.8438 13.25 54.5938 13.3438C54.3438 13.4375 54.1745 13.5755 54.0859 13.7578C54.0026 13.9401 53.9609 14.1875 53.9609 14.5C53.9609 14.8125 54.0052 15.0677 54.0938 15.2656C54.1875 15.4583 54.375 15.6094 54.6562 15.7188C54.9375 15.8281 55.3411 15.9036 55.8672 15.9453C56.3984 15.9818 57.1016 16 57.9766 16ZM64.9688 8L65.4688 5H66.9688L65.9688 8H64.9688ZM69.4688 5H70.9688V17H69.4688V5ZM73.9688 8H75.4688V17H73.9688V8ZM75.4688 6.5H73.9688V5H75.4688V6.5ZM87.4688 17H85.9688V11.9219C85.9688 11.3802 85.9323 10.9245 85.8594 10.5547C85.7917 10.1797 85.6484 9.8776 85.4297 9.64844C85.2161 9.41927 84.9115 9.25521 84.5156 9.15625C84.125 9.05208 83.6094 9 82.9688 9C82.2656 9 81.6875 9.0599 81.2344 9.17969C80.7812 9.29427 80.4245 9.45833 80.1641 9.67188C79.9036 9.88021 79.7214 10.1328 79.6172 10.4297C79.5182 10.7266 79.4688 11.0573 79.4688 11.4219V17H77.9688V8H79.4688V9.42188C79.474 9.40625 79.4974 9.35417 79.5391 9.26562C79.5807 9.17708 79.6536 9.07292 79.7578 8.95312C79.8672 8.82812 80.013 8.69531 80.1953 8.55469C80.3828 8.41406 80.6224 8.28385 80.9141 8.16406C81.2109 8.04427 81.5677 7.94531 81.9844 7.86719C82.401 7.78906 82.8958 7.75 83.4688 7.75C84.0312 7.75 84.5182 7.78646 84.9297 7.85938C85.3464 7.92708 85.7005 8.03125 85.9922 8.17188C86.2891 8.30729 86.5286 8.47917 86.7109 8.6875C86.8984 8.89062 87.0469 9.125 87.1562 9.39062C87.2448 9.25 87.3828 9.08594 87.5703 8.89844C87.7578 8.71094 88.0182 8.53125 88.3516 8.35938C88.6901 8.1875 89.112 8.04427 89.6172 7.92969C90.1224 7.8099 90.7396 7.75 91.4688 7.75C92.0677 7.75 92.5807 7.79167 93.0078 7.875C93.4401 7.95312 93.8047 8.07292 94.1016 8.23438C94.3984 8.39062 94.6354 8.58594 94.8125 8.82031C94.9948 9.05469 95.1328 9.32812 95.2266 9.64062C95.3255 9.94792 95.3906 10.2943 95.4219 10.6797C95.4531 11.0599 95.4688 11.474 95.4688 11.9219V17H93.9688V11.9219C93.9688 11.3802 93.9323 10.9245 93.8594 10.5547C93.7917 10.1797 93.6484 9.8776 93.4297 9.64844C93.2161 9.41927 92.9115 9.25521 92.5156 9.15625C92.125 9.05208 91.6094 9 90.9688 9C90.2656 9 89.6875 9.0599 89.2344 9.17969C88.7812 9.29427 88.4245 9.45833 88.1641 9.67188C87.9036 9.88021 87.7214 10.1328 87.6172 10.4297C87.5182 10.7266 87.4688 11.0573 87.4688 11.4219V17Z" fill="#56585E"/>
</svg>
