<svg width="76" height="24" viewBox="0 0 76 24" fill="none" xmlns="http://www.w3.org/2000/svg">
<rect width="76" height="24" rx="12" fill="#F5F5F5"/>
<path d="M7.824 15.52H2.96L2.064 18H0.528L4.56 6.912H6.24L10.256 18H8.72L7.824 15.52ZM7.408 14.336L5.392 8.704L3.376 14.336H7.408ZM12.2373 6.848H13.8533L12.3173 10.48H11.2933L12.2373 6.848ZM16.6013 16.8H20.9053V18H14.9373V16.8L19.1933 10.416H14.9693V9.232H20.8733V10.416L16.6013 16.8ZM26.6185 18.144C25.7972 18.144 25.0505 17.9573 24.3785 17.584C23.7172 17.2107 23.1945 16.6827 22.8105 16C22.4372 15.3067 22.2505 14.5067 22.2505 13.6C22.2505 12.704 22.4425 11.9147 22.8265 11.232C23.2212 10.5387 23.7545 10.0107 24.4265 9.648C25.0985 9.27467 25.8505 9.088 26.6825 9.088C27.5145 9.088 28.2665 9.27467 28.9385 9.648C29.6105 10.0107 30.1385 10.5333 30.5225 11.216C30.9172 11.8987 31.1145 12.6933 31.1145 13.6C31.1145 14.5067 30.9118 15.3067 30.5065 16C30.1118 16.6827 29.5732 17.2107 28.8905 17.584C28.2078 17.9573 27.4505 18.144 26.6185 18.144ZM26.6185 16.864C27.1412 16.864 27.6318 16.7413 28.0905 16.496C28.5492 16.2507 28.9172 15.8827 29.1945 15.392C29.4825 14.9013 29.6265 14.304 29.6265 13.6C29.6265 12.896 29.4878 12.2987 29.2105 11.808C28.9332 11.3173 28.5705 10.9547 28.1225 10.72C27.6745 10.4747 27.1892 10.352 26.6665 10.352C26.1332 10.352 25.6425 10.4747 25.1945 10.72C24.7572 10.9547 24.4052 11.3173 24.1385 11.808C23.8718 12.2987 23.7385 12.896 23.7385 13.6C23.7385 14.3147 23.8665 14.9173 24.1225 15.408C24.3892 15.8987 24.7412 16.2667 25.1785 16.512C25.6158 16.7467 26.0958 16.864 26.6185 16.864ZM34.4849 6.16V18H33.0289V6.16H34.4849ZM37.7184 7.808C37.441 7.808 37.2064 7.712 37.0144 7.52C36.8224 7.328 36.7264 7.09333 36.7264 6.816C36.7264 6.53867 36.8224 6.304 37.0144 6.112C37.2064 5.92 37.441 5.824 37.7184 5.824C37.985 5.824 38.209 5.92 38.3904 6.112C38.5824 6.304 38.6784 6.53867 38.6784 6.816C38.6784 7.09333 38.5824 7.328 38.3904 7.52C38.209 7.712 37.985 7.808 37.7184 7.808ZM38.4224 9.232V18H36.9664V9.232H38.4224ZM45.7999 18L42.3599 14.128V18H40.9039V6.16H42.3599V13.12L45.7359 9.232H47.7679L43.6399 13.6L47.7839 18H45.7999Z" fill="#184AFB"/>
<path d="M68 4V12M68 20V12M68 12H60H76" stroke="#184AFB" stroke-width="2"/>
</svg>
