<svg width="121" height="20" viewBox="0 0 121 20" fill="none" xmlns="http://www.w3.org/2000/svg">
<circle cx="10" cy="10" r="10" fill="#184AFB"/>
<path d="M49.4453 10.6719L56.5 17H54.375L48.3984 11.6406L42.625 17H40.5L47.3203 10.6719L41 5H43.125L48.3594 9.70312L53.4297 5H55.5547L49.4453 10.6719ZM65.9609 15.7656C65.9453 15.8281 65.8281 15.9844 65.6094 16.2344C65.4531 16.4219 65.2448 16.5885 64.9844 16.7344C64.724 16.875 64.375 16.9844 63.9375 17.0625C63.5052 17.1458 62.9349 17.1875 62.2266 17.1875C61.2839 17.1875 60.4792 17.138 59.8125 17.0391C59.1458 16.9453 58.6016 16.7995 58.1797 16.6016C57.7578 16.3984 57.4479 16.1406 57.25 15.8281C57.0573 15.5156 56.9609 15.1432 56.9609 14.7109C56.9609 14.2578 57.013 13.875 57.1172 13.5625C57.2266 13.2448 57.3828 12.9792 57.5859 12.7656C57.7943 12.5521 58.0443 12.3854 58.3359 12.2656C58.6276 12.1458 58.9583 12.0547 59.3281 11.9922C59.7031 11.9297 60.112 11.8906 60.5547 11.875C60.9974 11.8594 61.4688 11.8516 61.9688 11.8516C62.6823 11.8516 63.2786 11.8828 63.7578 11.9453C64.237 12.0026 64.6276 12.0781 64.9297 12.1719C65.237 12.2604 65.4688 12.3568 65.625 12.4609C65.7812 12.5651 65.8932 12.6615 65.9609 12.75C65.9609 12.1667 65.9349 11.6693 65.8828 11.2578C65.8359 10.8464 65.7552 10.5026 65.6406 10.2266C65.5312 9.95052 65.388 9.73177 65.2109 9.57031C65.0339 9.40365 64.8151 9.27865 64.5547 9.19531C64.2995 9.11198 64 9.0599 63.6562 9.03906C63.3125 9.01302 62.9193 9 62.4766 9C61.7891 9 61.2188 9.01823 60.7656 9.05469C60.3125 9.08594 59.9531 9.15104 59.6875 9.25C59.4219 9.34896 59.2344 9.48698 59.125 9.66406C59.0156 9.83594 58.9609 10.0625 58.9609 10.3438H57.4609C57.4609 9.86979 57.5443 9.46875 57.7109 9.14062C57.8828 8.8125 58.1641 8.54688 58.5547 8.34375C58.9505 8.13542 59.4688 7.98438 60.1094 7.89062C60.75 7.79688 61.5391 7.75 62.4766 7.75C63.3932 7.75 64.1693 7.82552 64.8047 7.97656C65.4401 8.1276 65.9531 8.39323 66.3438 8.77344C66.7396 9.15365 67.0234 9.66667 67.1953 10.3125C67.3724 10.9531 67.4609 11.7656 67.4609 12.75V17H65.9609V15.7656ZM62.4766 16C63.138 16 63.6901 15.9688 64.1328 15.9062C64.5807 15.8438 64.9401 15.75 65.2109 15.625C65.4818 15.5 65.6745 15.3438 65.7891 15.1562C65.9036 14.9688 65.9609 14.75 65.9609 14.5C65.9609 14.25 65.8932 14.0391 65.7578 13.8672C65.6276 13.6901 65.4062 13.5469 65.0938 13.4375C64.7865 13.3281 64.3776 13.25 63.8672 13.2031C63.3568 13.151 62.7266 13.125 61.9766 13.125C61.2266 13.125 60.6198 13.138 60.1562 13.1641C59.6979 13.1901 59.3438 13.25 59.0938 13.3438C58.8438 13.4375 58.6745 13.5755 58.5859 13.7578C58.5026 13.9401 58.4609 14.1875 58.4609 14.5C58.4609 14.8125 58.5052 15.0677 58.5938 15.2656C58.6875 15.4583 58.875 15.6094 59.1562 15.7188C59.4375 15.8281 59.8411 15.9036 60.3672 15.9453C60.8984 15.9818 61.6016 16 62.4766 16ZM69.9688 5H71.4688V17H69.9688V5ZM79.2188 7.75C79.9271 7.75 80.5208 7.78906 81 7.86719C81.4792 7.94531 81.8698 8.04427 82.1719 8.16406C82.4792 8.27865 82.7109 8.40365 82.8672 8.53906C83.0286 8.67448 83.1458 8.79948 83.2188 8.91406V8H84.7188V20H83.2188V16C83.1458 16.1198 83.0286 16.2474 82.8672 16.3828C82.7109 16.5182 82.4792 16.6458 82.1719 16.7656C81.8698 16.8802 81.4792 16.9766 81 17.0547C80.5208 17.1328 79.9271 17.1719 79.2188 17.1719C78.2188 17.1719 77.3698 17.099 76.6719 16.9531C75.974 16.8021 75.4062 16.5469 74.9688 16.1875C74.5312 15.8281 74.2135 15.3438 74.0156 14.7344C73.8177 14.125 73.7188 13.3594 73.7188 12.4375C73.7188 11.5156 73.8177 10.7526 74.0156 10.1484C74.2135 9.54427 74.5312 9.0651 74.9688 8.71094C75.4062 8.35677 75.974 8.10938 76.6719 7.96875C77.3698 7.82292 78.2188 7.75 79.2188 7.75ZM79.2188 9C78.6354 9 78.1302 9.01562 77.7031 9.04688C77.2812 9.07812 76.9219 9.13802 76.625 9.22656C76.3281 9.3151 76.0859 9.4375 75.8984 9.59375C75.7161 9.75 75.5729 9.95573 75.4688 10.2109C75.3698 10.4661 75.3021 10.776 75.2656 11.1406C75.2344 11.5052 75.2188 11.9375 75.2188 12.4375C75.2188 12.9375 75.2344 13.3724 75.2656 13.7422C75.3021 14.112 75.3698 14.4297 75.4688 14.6953C75.5729 14.9609 75.7161 15.1771 75.8984 15.3438C76.0859 15.5104 76.3281 15.6432 76.625 15.7422C76.9219 15.8411 77.2812 15.9089 77.7031 15.9453C78.1302 15.9818 78.6354 16 79.2188 16C79.7188 16 80.1641 15.9896 80.5547 15.9688C80.9453 15.9427 81.2891 15.888 81.5859 15.8047C81.8828 15.7214 82.1328 15.6016 82.3359 15.4453C82.5443 15.2891 82.7135 15.0781 82.8438 14.8125C82.974 14.5469 83.0677 14.2188 83.125 13.8281C83.1875 13.4375 83.2188 12.9661 83.2188 12.4141C83.2188 11.8724 83.1875 11.4115 83.125 11.0312C83.0677 10.651 82.974 10.3359 82.8438 10.0859C82.7135 9.83073 82.5443 9.63021 82.3359 9.48438C82.1328 9.33854 81.8828 9.23177 81.5859 9.16406C81.2891 9.09115 80.9453 9.04688 80.5547 9.03125C80.1641 9.01042 79.7188 9 79.2188 9ZM95.6797 15.7656C95.6641 15.8281 95.5469 15.9844 95.3281 16.2344C95.1719 16.4219 94.9635 16.5885 94.7031 16.7344C94.4427 16.875 94.0938 16.9844 93.6562 17.0625C93.224 17.1458 92.6536 17.1875 91.9453 17.1875C91.0026 17.1875 90.1979 17.138 89.5312 17.0391C88.8646 16.9453 88.3203 16.7995 87.8984 16.6016C87.4766 16.3984 87.1667 16.1406 86.9688 15.8281C86.776 15.5156 86.6797 15.1432 86.6797 14.7109C86.6797 14.2578 86.7318 13.875 86.8359 13.5625C86.9453 13.2448 87.1016 12.9792 87.3047 12.7656C87.513 12.5521 87.763 12.3854 88.0547 12.2656C88.3464 12.1458 88.6771 12.0547 89.0469 11.9922C89.4219 11.9297 89.8307 11.8906 90.2734 11.875C90.7161 11.8594 91.1875 11.8516 91.6875 11.8516C92.401 11.8516 92.9974 11.8828 93.4766 11.9453C93.9557 12.0026 94.3464 12.0781 94.6484 12.1719C94.9557 12.2604 95.1875 12.3568 95.3438 12.4609C95.5 12.5651 95.612 12.6615 95.6797 12.75C95.6797 12.1667 95.6536 11.6693 95.6016 11.2578C95.5547 10.8464 95.474 10.5026 95.3594 10.2266C95.25 9.95052 95.1068 9.73177 94.9297 9.57031C94.7526 9.40365 94.5339 9.27865 94.2734 9.19531C94.0182 9.11198 93.7188 9.0599 93.375 9.03906C93.0312 9.01302 92.638 9 92.1953 9C91.5078 9 90.9375 9.01823 90.4844 9.05469C90.0312 9.08594 89.6719 9.15104 89.4062 9.25C89.1406 9.34896 88.9531 9.48698 88.8438 9.66406C88.7344 9.83594 88.6797 10.0625 88.6797 10.3438H87.1797C87.1797 9.86979 87.263 9.46875 87.4297 9.14062C87.6016 8.8125 87.8828 8.54688 88.2734 8.34375C88.6693 8.13542 89.1875 7.98438 89.8281 7.89062C90.4688 7.79688 91.2578 7.75 92.1953 7.75C93.112 7.75 93.888 7.82552 94.5234 7.97656C95.1589 8.1276 95.6719 8.39323 96.0625 8.77344C96.4583 9.15365 96.7422 9.66667 96.9141 10.3125C97.0911 10.9531 97.1797 11.7656 97.1797 12.75V17H95.6797V15.7656ZM92.1953 16C92.8568 16 93.4089 15.9688 93.8516 15.9062C94.2995 15.8438 94.6589 15.75 94.9297 15.625C95.2005 15.5 95.3932 15.3438 95.5078 15.1562C95.6224 14.9688 95.6797 14.75 95.6797 14.5C95.6797 14.25 95.612 14.0391 95.4766 13.8672C95.3464 13.6901 95.125 13.5469 94.8125 13.4375C94.5052 13.3281 94.0964 13.25 93.5859 13.2031C93.0755 13.151 92.4453 13.125 91.6953 13.125C90.9453 13.125 90.3385 13.138 89.875 13.1641C89.4167 13.1901 89.0625 13.25 88.8125 13.3438C88.5625 13.4375 88.3932 13.5755 88.3047 13.7578C88.2214 13.9401 88.1797 14.1875 88.1797 14.5C88.1797 14.8125 88.224 15.0677 88.3125 15.2656C88.4062 15.4583 88.5938 15.6094 88.875 15.7188C89.1562 15.8281 89.5599 15.9036 90.0859 15.9453C90.6172 15.9818 91.3203 16 92.1953 16ZM106.938 10.9297C106.938 10.5547 106.909 10.2448 106.852 10C106.799 9.75 106.672 9.55208 106.469 9.40625C106.266 9.25521 105.964 9.15104 105.562 9.09375C105.167 9.03125 104.625 9 103.938 9C103.266 9 102.719 9.0599 102.297 9.17969C101.875 9.29427 101.544 9.45833 101.305 9.67188C101.065 9.88542 100.901 10.1406 100.812 10.4375C100.729 10.7344 100.688 11.0651 100.688 11.4297V17H99.1875V8H100.688V9.42969C100.74 9.26823 100.836 9.09115 100.977 8.89844C101.117 8.70052 101.331 8.51823 101.617 8.35156C101.904 8.17969 102.273 8.03646 102.727 7.92188C103.185 7.80729 103.755 7.75 104.438 7.75C105.219 7.75 105.854 7.82031 106.344 7.96094C106.833 8.09635 107.214 8.29948 107.484 8.57031C107.76 8.83594 107.945 9.16667 108.039 9.5625C108.138 9.95833 108.188 10.4141 108.188 10.9297H106.938ZM108.938 12.4375C108.938 11.5156 109.036 10.7526 109.234 10.1484C109.432 9.54427 109.75 9.0651 110.188 8.71094C110.625 8.35677 111.193 8.10938 111.891 7.96875C112.589 7.82292 113.438 7.75 114.438 7.75C115.438 7.75 116.286 7.82292 116.984 7.96875C117.682 8.10938 118.25 8.35677 118.688 8.71094C119.125 9.0651 119.443 9.54427 119.641 10.1484C119.839 10.7526 119.938 11.5156 119.938 12.4375C119.938 13.3594 119.839 14.125 119.641 14.7344C119.443 15.3438 119.125 15.8281 118.688 16.1875C118.25 16.5469 117.682 16.8021 116.984 16.9531C116.286 17.099 115.438 17.1719 114.438 17.1719C113.438 17.1719 112.589 17.099 111.891 16.9531C111.193 16.8021 110.625 16.5469 110.188 16.1875C109.75 15.8281 109.432 15.3438 109.234 14.7344C109.036 14.125 108.938 13.3594 108.938 12.4375ZM110.438 12.4375C110.438 12.9375 110.456 13.3724 110.492 13.7422C110.529 14.112 110.596 14.4297 110.695 14.6953C110.799 14.9609 110.943 15.1771 111.125 15.3438C111.307 15.5104 111.547 15.6432 111.844 15.7422C112.141 15.8411 112.5 15.9089 112.922 15.9453C113.349 15.9818 113.854 16 114.438 16C114.938 16 115.383 15.9896 115.773 15.9688C116.169 15.9427 116.513 15.888 116.805 15.8047C117.102 15.7214 117.354 15.6042 117.562 15.4531C117.771 15.2969 117.938 15.0859 118.062 14.8203C118.193 14.5547 118.286 14.2292 118.344 13.8438C118.406 13.4531 118.438 12.9844 118.438 12.4375C118.438 11.901 118.406 11.4453 118.344 11.0703C118.286 10.6901 118.193 10.3724 118.062 10.1172C117.938 9.86198 117.771 9.66146 117.562 9.51562C117.354 9.36458 117.102 9.2526 116.805 9.17969C116.513 9.10156 116.169 9.05208 115.773 9.03125C115.383 9.01042 114.938 9 114.438 9C113.938 9 113.49 9.01042 113.094 9.03125C112.703 9.05208 112.359 9.10156 112.062 9.17969C111.771 9.2526 111.521 9.36458 111.312 9.51562C111.104 9.66146 110.935 9.86198 110.805 10.1172C110.68 10.3724 110.586 10.6901 110.523 11.0703C110.466 11.4453 110.438 11.901 110.438 12.4375Z" fill="#56585E"/>
</svg>
